<svg xmlns="http://www.w3.org/2000/svg" xmlns:xlink="http://www.w3.org/1999/xlink" width="605.941" height="370.708" viewBox="0 0 605.941 370.708"><defs><linearGradient id="a" x1="8.959" y1="2.257" x2="-3.686" y2="-0.464" gradientUnits="objectBoundingBox"><stop offset="0" stop-color="#fff" stop-opacity="0"/><stop offset="0.579" stop-color="#f9eedc" stop-opacity="0.58"/><stop offset="1" stop-color="#d1d0cd"/></linearGradient><linearGradient id="b" x1="7.69" y1="2.077" x2="-3.398" y2="-0.375" xlink:href="#a"/><linearGradient id="c" x1="-0.687" y1="3.238" x2="0.587" y2="0.3" xlink:href="#a"/><linearGradient id="d" x1="2.546" y1="-3.177" x2="-0.097" y2="1.573" xlink:href="#a"/><linearGradient id="f" x1="2.546" y1="-3.177" x2="-0.097" y2="1.573" xlink:href="#a"/></defs><g transform="translate(3418 -2402.584)"><path d="M1526.342,1035.558l-3.293-6.569c-3.561-7.114-2.124-14.526,1.345-20.121.784-8.375,8.563-8.79,74.974-12.4,52.773-2.839,60.445-8.48,61.445-9.584a8.015,8.015,0,0,0,.512-1.342c.343-.928.679-1.842,1.093-2.733,2.947-6.545,2.935-34.673,2.922-53.287v-4.333c0-20.633-12.72-35.506-12.839-35.659l-17.033-19.135,63.68-1.545v-.657l12.234.336,12.234-.369.046.665,64.5,1.57-17.034,19.135c-.083.106-12.84,15.026-12.84,35.659v4.18c-.013,18.674-.027,46.886,2.919,53.44.405.891.753,1.805,1.1,2.733a6.222,6.222,0,0,0,.555,1.413c.952,1.034,8.611,6.675,61.4,9.514,66.4,3.613,74.19,4.028,74.974,12.4,3.456,5.594,4.893,13.006,1.33,20.121l-3.275,6.569Z" transform="translate(-4827.188 1534.427)" fill="#fd4c2d"/><path d="M1876.107,1001.335s9.9-.249-63.355-4.219-69.905-13.23-73.242-20.653c-4.23-9.386-3.967-36.753-3.967-62.495s15.842-43.546,15.842-43.546l-49.65-1.2v-.036l-.8.014-.784-.014v.036l-49.649,1.2s15.832,17.819,15.832,43.546.276,53.109-3.949,62.495c-3.34,7.423,0,16.7-73.258,20.653-73.241,3.969-63.349,4.219-63.349,4.219s-5.938,5.191-2.965,11.128h356.263C1882.053,1006.527,1876.107,1001.335,1876.107,1001.335Z" transform="translate(-4816.32 1545.642)" fill="#861546"/><g transform="translate(-4073 1498)"><path d="M672.574,1024.1l7.109,126.715h563.094l8.625-122.148Z" transform="translate(0 51)" fill="#8a588e"/><g transform="translate(581.186 686.073)"><path d="M363.32,451.719l1.9,67.462h6.651l7.6-67.462Z" transform="translate(263.651 70.038)" fill="#624260"/><path d="M94.986,450.719l9.5,69.362h6.651V450.719Z" transform="translate(15.062 69.138)" fill="#624260"/><path d="M89.986,450.719l9.5,69.362h6.651V450.719Z" transform="translate(14.56 69.138)" fill="#4b1750"/><path d="M99.488,520.081H101.9c-1.389-10.347-6.773-53.162-5.737-57.722.855-3.761,6.737-4.076,9.977-3.957v-7.683H89.986Z" transform="translate(14.56 69.138)" fill="url(#a)" style="mix-blend-mode:multiply;isolation:isolate"/><path d="M367.32,451.719l1.9,67.462h6.651l7.6-67.462Z" transform="translate(264.252 70.038)" fill="#4b1750"/><path d="M373.5,463.359c.783-3.449,5.788-4,9.112-3.974l.865-7.666H367.32l1.9,67.462h2.411C370.243,508.833,372.46,467.919,373.5,463.359Z" transform="translate(264.252 70.038)" fill="url(#b)" style="mix-blend-mode:multiply;isolation:isolate"/><g transform="translate(73.814 373.927)"><path d="M92.43,397.2H663.041L651.8,509.242H103.068L92.43,388m-18.616-5.486,13.8,142.4H667.393l12.362-138.983H73.814Z" transform="translate(-73.814 -373.927)" fill="#ac7bb1"/><path d="M183.814,383l10.134,120.355H402.985l5.7-117.82" transform="translate(25.222 -365.758)" fill="#ac7bb1"/><path d="M-6.19.256l15-.2L16.419,578.4l-15,.2Z" transform="translate(15.432 79.808) rotate(-89.246)" fill="#ac7bb1"/><path d="M193.865,392.216l4.973,48.194H381.212l3.194-48Z" transform="translate(33.48 -369.41)" fill="#8a588e"/><path d="M195.661,422.316l5.292,49.057H373.474l3.982-49.057Z" transform="translate(36.856 -336.373)" fill="#8a588e"/><g transform="translate(311.295 32.971)"><path d="M258.512,406.417a10.455,10.455,0,1,1-10.442-10.942A10.7,10.7,0,0,1,258.512,406.417Z" transform="translate(-237.625 -391.498)" fill="url(#c)" style="mix-blend-mode:multiply;isolation:isolate"/><path d="M259.82,404.324a10.456,10.456,0,1,1-10.446-10.942A10.7,10.7,0,0,1,259.82,404.324Z" transform="translate(-236.448 -393.382)" fill="#ac7bb1"/><path d="M249.374,393.382a10.953,10.953,0,1,0,10.446,10.942A10.7,10.7,0,0,0,249.374,393.382Zm.677,19.893a9.749,9.749,0,1,1,9.3-9.741A9.529,9.529,0,0,1,250.051,413.275Z" transform="translate(-236.448 -393.382)" fill="url(#d)" style="mix-blend-mode:multiply;isolation:isolate"/></g><g transform="translate(310.052 97.582)"><path d="M257.858,440.417a10.455,10.455,0,1,1-10.442-10.942A10.7,10.7,0,0,1,257.858,440.417Z" transform="translate(-236.971 -425.498)" fill="url(#c)" style="mix-blend-mode:multiply;isolation:isolate"/><path d="M259.166,438.324a10.456,10.456,0,1,1-10.446-10.942A10.7,10.7,0,0,1,259.166,438.324Z" transform="translate(-235.794 -427.382)" fill="#ac7bb1"/><path d="M248.72,427.382a10.953,10.953,0,1,0,10.446,10.942A10.7,10.7,0,0,0,248.72,427.382Zm.677,19.893a9.749,9.749,0,1,1,9.3-9.741A9.529,9.529,0,0,1,249.4,447.275Z" transform="translate(-235.794 -427.382)" fill="url(#f)" style="mix-blend-mode:multiply;isolation:isolate"/></g></g></g></g></g></svg>