<svg xmlns="http://www.w3.org/2000/svg" width="347.193" height="378.03" viewBox="0 0 347.193 378.03"><defs><style>.a{fill:#68ad1e;}.b{fill:#599017;}.c{fill:#68ad00;}.d{fill:#7c390d;}.e{fill:#335100;}</style></defs><g transform="translate(-1626.315 -1106.97)"><path class="a" d="M5068.223,1020.947s-2.125-5.1-13.182-2.551c0,0,8.93-12.756,10.631-24.662s-8.5-1.7-8.5-1.7l-19.134,15.307,7.228-17.433s-13.182,11.905-13.606,16.158,0-19.985,0-19.985,10.2-27.213,7.653-34.867-30.19,29.339-33.167,43.8,3.827-17.434,3.827-17.434-.851-1.276-3.4-5.953a25.452,25.452,0,0,1-2.977-7.654s-13.607,9.78-10.205,24.237l3.4,14.457s-16.158-22.536-28.49-22.111,2.977,11.481,2.977,11.481l10.206,12.331-.426,4.678-18.284-15.307s5.527-1.7,8.079-38.269-33.592,46.347-33.592,46.347-2.977-45.922-11.056-74.837-11.055,28.489-8.929,39.544,5.1,33.592,5.1,33.592-25.938-40.82-54-44.647l30.615,48.048-24.662-12.331s-19.56-5.1-34.867,9.354-4.252,23.387-4.252,23.387,11.48,11.906-26.363-1.7,7.653,16.158,20.41,17.859,244.5,0,244.5,0Z" transform="translate(-3128.952 430.242)"/><g transform="translate(1737.315 1136.944)"><path class="b" d="M3.029,97.237s-24.319-76.6,64.85-83.9c0,0,10.538-23.508,29.183-8.106,0,0,5.674-7.3,19.86-1.621s21.887-1.216,32.425,17.023c0,0,2.837-5.674,10.537-4.053,0,0,27.967-19.049,38.1,11.754,0,0,38.1,8.511,6.89,32.425,0,0,25.939,3.648,8.512,18.644,0,0,8.511-8.511,18.644,4.864,0,0,10.133,10.943-1.216,13.375,0,0,8.917,23.913-10.943,19.049,0,0,2.432,38.1-38.1,24.319,0,0-25.13,53.5-65.255,23.913,0,0-45.395,5.674-53.1-25.94C63.42,138.984,6.677,152.765,3.029,97.237Z" transform="translate(236.193 173.843) rotate(180)"/><path class="c" d="M-3580.8,259.43s-5.178,46.235-45.864,54.372c0,0-12.946,20.343-34.03,6.288,0,0-18.863,6.288-21.452-4.069,0,0-29.221,24.782-41.427-9.247,0,0-36.987-17.384-17.015-44.015l8.878-7.4s-4.069-29.59,11.835-29.96c0,0,9.618-24.412,34.4-9.617,0,0,30.33-33.289,65.469,4.439C-3620,220.223-3577.468,206.168-3580.8,259.43Z" transform="translate(3775.332 -190.289)"/><path class="d" d="M-3570.9,512.689s-11.792,29.057-41.27,36.637c0,0-26.267,36.172-2.263,90.917l-47.423,3.436s-11.8-44.24-12.219-50.136-2.527-26.951,8.422-58.536l6.739-24.425s-18.811-15.441-19.091-50.253c0,0,3.93-1.123,3.93-1.965s3.93,3.65,3.93,3.65-.281,24.425,12.353,28.074c0,0,4.772,2.527,5.9-20.214l1.824-4.878,8.317,2.843s.948.316-.035,2.6c-3.479,8.076-5.334,30.882-5.334,35.374s.842,56.71.842,56.71,16.845-42.954,27.513-52.219c0,0-3.369-35.655.843-56.71l3.334-.7s-1.087,38.6,1.158,47.586c0,0,7.019-6.738,12.915-22.74l12.633-8.422,6.457-.561s-7.3,32.847-22.74,58.395c0,0,13.194-6.176,18.529-16l11.509-.561Z" transform="translate(3736.801 -352.657)"/></g><path class="a" d="M-2948.15,924.389s-12-1-12,3-11.5,1-11.5,3.5-13.5-3.5-22,1c0,0-6-6.5-17-1.5,0,0,1-6.5-7-3.5,0,0-15.5-4-17,1.5,0,0-13-11-16.5-4.5,0,0-10,1-6.5,4.5,0,0-12.5-1.5-8.5,3.5,0,0-17.5-2-19,2,0,0-20-3-26.5.5,0,0-4-8-11-3,0,0-12-5.5-13.5-1,0,0-6-5.5-9-1,0,0-1-4.5-4.5-3,0,0-3.5-12.5,11.5-11,0,0,11.5-1.5,15.5,2,0,0,5.5-8.5,11-4.5,0,0,1.5-11.5,18-4,0,0-9.5-32.5,24-35.5,0,0,31.5,3,25,26,0,0,14.5-1,14,8,0,0,15-2,17.5,5,0,0,.5-17,12.5-10,0,0,2-40.5,44-10.5,0,0,1.5-12,6.5-11.5Z" transform="translate(4804.028 550.611)"/><path class="a" d="M5068.223,1020.947s-2.125-5.1-13.182-2.551c0,0,8.93-12.756,10.631-24.662s-8.5-1.7-8.5-1.7l-19.134,15.307,7.228-17.433s-13.182,11.905-13.606,16.158,0-19.985,0-19.985,10.2-27.213,7.653-34.867-30.19,29.339-33.167,43.8,3.827-17.434,3.827-17.434-.851-1.276-3.4-5.953a25.452,25.452,0,0,1-2.977-7.654s-13.607,9.78-10.205,24.237l3.4,14.457s-16.158-22.536-28.49-22.111,2.977,11.481,2.977,11.481l10.206,12.331-.426,4.678-18.284-15.307s5.527-1.7,8.079-38.269-33.592,46.347-33.592,46.347-2.977-45.922-11.056-74.837-11.055,28.489-8.929,39.544,5.1,33.592,5.1,33.592-25.938-40.82-54-44.647l30.615,48.048-24.662-12.331s-19.56-5.1-34.867,9.354-4.252,23.387-4.252,23.387,11.48,11.906-26.363-1.7,7.653,16.158,20.41,17.859,244.5,0,244.5,0Z" transform="translate(-3128.952 430.335)"/><path class="e" d="M4553.711,990.4s1.385-3.324,8.588-1.662c0,0-5.818-8.311-6.926-16.068s5.541-1.108,5.541-1.108l12.466,9.973-4.709-11.358s8.589,7.757,8.865,10.527,0-13.021,0-13.021-6.649-17.731-4.986-22.717,19.67,19.116,21.608,28.535-2.493-11.359-2.493-11.359.555-.831,2.217-3.878a16.579,16.579,0,0,0,1.938-4.987s8.866,6.372,6.649,15.791l-2.217,9.42s10.528-14.683,18.563-14.406-1.939,7.48-1.939,7.48l-6.649,8.034.277,3.048,11.912-9.973s-3.6-1.108-5.263-24.934,21.886,30.2,21.886,30.2,1.939-29.92,7.2-48.759,7.2,18.562,5.818,25.765-3.325,21.886-3.325,21.886,16.9-26.6,35.183-29.089l-19.946,31.305L4680.041,971s12.743-3.325,22.717,6.095,2.771,15.237,2.771,15.237-7.48,7.757,17.177-1.108-4.987,10.528-13.3,11.636-159.3,0-159.3,0Z" transform="translate(-2923.794 481.223)"/><path class="b" d="M3.029,97.237s-24.319-76.6,64.85-83.9c0,0,10.538-23.508,29.183-8.106,0,0,5.674-7.3,19.86-1.621s21.887-1.216,32.425,17.023c0,0,2.837-5.674,10.537-4.053,0,0,27.967-19.049,38.1,11.754,0,0,38.1,8.511,6.89,32.425,0,0,25.939,3.648,8.512,18.644,0,0,8.511-8.511,18.644,4.864,0,0,10.133,10.943-1.216,13.375,0,0,8.917,23.913-10.943,19.049,0,0,2.432,38.1-38.1,24.319,0,0-25.13,53.5-65.255,23.913,0,0-45.395,5.674-53.1-25.94C63.42,138.984,6.677,152.765,3.029,97.237Z" transform="translate(1944.509 1280.881) rotate(180)"/><path class="c" d="M-3580.8,259.43s-5.178,46.235-45.864,54.372c0,0-12.946,20.343-34.03,6.288,0,0-18.863,6.288-21.452-4.069,0,0-29.221,24.782-41.427-9.247,0,0-36.987-17.384-17.015-44.015l8.878-7.4s-4.069-29.59,11.835-29.96c0,0,9.618-24.412,34.4-9.617,0,0,30.33-33.289,65.469,4.439C-3620,220.223-3577.468,206.168-3580.8,259.43Z" transform="translate(5544.647 904.748)"/></g></svg>