<svg xmlns="http://www.w3.org/2000/svg" xmlns:xlink="http://www.w3.org/1999/xlink" width="1920" height="1406" viewBox="0 0 1920 1406"><defs><clipPath id="a"><rect width="1920" height="1406" transform="translate(0 305)" fill="#fff"/></clipPath><radialGradient id="b" cx="0.5" cy="0.579" r="1.103" gradientTransform="translate(0.167) scale(0.667 1)" gradientUnits="objectBoundingBox"><stop offset="0" stop-color="#9926c4" stop-opacity="0.973"/><stop offset="1" stop-color="#4e016a"/></radialGradient><linearGradient id="c" x1="0.028" y1="0.504" x2="0.932" y2="0.497" gradientUnits="objectBoundingBox"><stop offset="0" stop-color="#fff" stop-opacity="0"/><stop offset="0.55" stop-color="#fff" stop-opacity="0"/><stop offset="1" stop-color="#fcecdb"/></linearGradient><linearGradient id="d" x1="0.972" y1="0.504" x2="0.068" y2="0.497" xlink:href="#c"/><linearGradient id="e" x1="-0.616" y1="-11.498" x2="0.53" y2="0.748" gradientUnits="objectBoundingBox"><stop offset="0" stop-color="#fff" stop-opacity="0"/><stop offset="1" stop-color="#ffdb95"/></linearGradient><linearGradient id="f" x1="-3.767" y1="2.053" x2="1.229" y2="0.229" gradientUnits="objectBoundingBox"><stop offset="0" stop-color="#fff" stop-opacity="0"/><stop offset="1" stop-color="#93c6ce"/></linearGradient></defs><g transform="translate(0 -305)" clip-path="url(#a)"><rect width="1920" height="1706" transform="translate(-1 5)" fill="url(#b)"/><g transform="translate(108.5 1306.4)"><line x1="38" y2="395.358" fill="none" stroke="#480c44" stroke-width="1"/><line x2="38" y2="395.358" transform="translate(1737)" fill="none" stroke="#480c44" stroke-width="1"/><line x2="26" y2="395.358" transform="translate(1449)" fill="none" stroke="#480c44" stroke-width="1"/><line x1="13" y2="395.358" transform="translate(371)" fill="none" stroke="#480c44" stroke-width="1"/><line x2="3" y2="395.358" transform="translate(1096)" fill="none" stroke="#480c44" stroke-width="1"/><line x1="3" y2="395.358" transform="translate(717)" fill="none" stroke="#480c44" stroke-width="1"/></g><path d="M0,1126.4H293.12L272.214,0H0Z" transform="translate(0 5)" fill="url(#c)" style="mix-blend-mode:multiply;isolation:isolate"/><path d="M293.12,1126.4H0L20.906,0H293.12Z" transform="translate(1627 5)" fill="url(#d)" style="mix-blend-mode:multiply;isolation:isolate"/><path d="M0,1289.4H293.12L272.214,0H0Z" transform="translate(0 5)" fill="#e91dfc" style="mix-blend-mode:multiply;isolation:isolate"/><path d="M293.12,1289.4H0L20.906,0H293.12Z" transform="translate(1627 5)" fill="#e91dfc" style="mix-blend-mode:multiply;isolation:isolate"/><rect width="1919.574" height="21" transform="translate(0.426 1231.385)" fill="#eecaf2" style="mix-blend-mode:multiply;isolation:isolate"/><rect width="1919.574" height="4.865" transform="translate(0.426 1207.785)" fill="#eecaf2" style="mix-blend-mode:multiply;isolation:isolate"/><rect width="1920" height="12" transform="translate(0 1294.4)" fill="#9050af" opacity="0.386"/><g transform="translate(1476.381 467.884)"><path d="M213.619,152.766l2.96,17.022L375.7,168.307l1.481-14.8Z" transform="translate(0 11.879)" fill="url(#e)" style="mix-blend-mode:multiply;isolation:isolate"/><path d="M217.442,149.42l2.961,17.022,159.119-1.481,1.48-14.8Z" transform="translate(0.617 11.34)" fill="#ba4eba"/><g transform="translate(223.703 79.116)" opacity="0.486" style="mix-blend-mode:multiply;isolation:isolate"><path d="M224.8,160.482h22.759V81.106A58.011,58.011,0,0,0,222.3,80Z" transform="translate(-222.302 -79.116)" fill="#ea8e38"/><path d="M318.369,160.2l17.17-14.94-52.1-59.881a58.027,58.027,0,0,0-19.783,15.741Z" transform="translate(-215.632 -78.106)" fill="#ea8e38"/><path d="M245.284,160.319h20.537l1.387-77.155s-11.1-3.607-22.2,1.111Z" transform="translate(-218.64 -78.676)" fill="#ea8e38"/><path d="M325.822,160.8h20.538l1.388-77.155s-11.1-3.607-22.2,1.111Z" transform="translate(-205.65 -78.599)" fill="#ea8e38"/><path d="M318.371,158.014l-16.7.1-38.022-44.544.01-14.639Z" transform="translate(-215.633 -75.92)" fill="#ea8e38"/></g><path d="M227.668,160.482h22.757V81.106A58,58,0,0,0,225.17,80Z" transform="translate(1.863)" fill="#fd5234"/><path d="M321.239,160.2l17.169-14.94-52.1-59.881a58.016,58.016,0,0,0-19.783,15.741Z" transform="translate(8.533 1.01)" fill="#fd5234"/><path d="M248.15,160.319h20.539l1.387-77.155s-11.1-3.607-22.2,1.111Z" transform="translate(5.525 0.44)" fill="#fec790"/><path d="M328.69,160.8h20.537l1.387-77.155s-11.1-3.607-22.2,1.111Z" transform="translate(18.515 0.517)" fill="#fec790"/><path d="M230.985,100.184l1.111,34.784,11.1.925,1.48-36.82Z" transform="translate(2.801 3.219)" fill="#a3181e"/><path d="M253.37,100.944l1.25,33.027h6.659l1.25-33.3Z" transform="translate(6.412 3.476)" fill="#e075ea"/><path d="M334.147,104.05l1.25,33.027h6.659l1.25-33.3Z" transform="translate(19.441 3.977)" fill="#ffe5cb"/><path d="M288.143,114.555l17.069,20.815,10.962-6.384-22.065-21.509Z" transform="translate(12.02 4.575)" fill="#a3181e"/><path d="M321.24,158.014l-16.7.1-38.021-44.544.01-14.639Z" transform="translate(8.532 3.197)" fill="#d39d36" style="mix-blend-mode:multiply;isolation:isolate"/></g><g transform="translate(0 50)"><g transform="translate(-1197 -844)" opacity="0.46"><path d="M601,49l31.158-23.334,33.008,25.167" transform="translate(695.815 1296.334)" fill="none" stroke="#ced7dd" stroke-miterlimit="10" stroke-width="1" style="mix-blend-mode:multiply;isolation:isolate"/><path d="M595.061,56.041l74.172,2.829-2.193,90.177-70.193-1.412-1.786-91.594m-7.143-7.277L589.979,154.5l83.889,1.688L676.4,52.138l-88.481-3.374Z" transform="translate(695.815 1296.334)" fill="url(#f)" style="mix-blend-mode:multiply;isolation:isolate"/><path d="M675.868,151.186,591.979,149.5,589.918,43.764,678.4,47.138Z" transform="translate(695.815 1296.334)" fill="#f7b22e" opacity="0.3"/><path d="M597.061,54.041l74.172,2.829-2.193,90.177-70.193-1.412-1.786-91.594m-7.143-7.277L591.979,152.5l83.889,1.688L678.4,50.138l-88.481-3.374Z" transform="translate(695.815 1296.334)" fill="#8c147f"/><path d="M628.381,150.231l15.62.314-12.533-105.2-19.021-.725Z" transform="translate(695.815 1296.334)" fill="#f7b22e" opacity="0.3"/><path d="M603,48l31.158-23.334,33.008,25.167" transform="translate(695.815 1296.334)" fill="none" stroke="#e0923e" stroke-miterlimit="10" stroke-width="1"/></g><path d="M597.061,51.041l74.172,2.829-2.193,90.177-70.193-1.412-1.786-91.594m-7.143-7.277L591.979,149.5l83.889,1.688L678.4,47.138l-88.481-3.374Z" transform="translate(-501.185 452.334)" fill="#f7b22e" opacity="0.796"/></g></g></svg>