<svg xmlns="http://www.w3.org/2000/svg" xmlns:xlink="http://www.w3.org/1999/xlink" width="239.302" height="105.339" viewBox="0 0 239.302 105.339">
  <defs>
    <filter id="Path_581" x="23.788" y="0" width="215.514" height="105.339" filterUnits="userSpaceOnUse">
      <feOffset dx="-10" dy="3" input="SourceAlpha"/>
      <feGaussianBlur stdDeviation="3" result="blur"/>
      <feFlood flood-opacity="0.161"/>
      <feComposite operator="in" in2="blur"/>
      <feComposite in="SourceGraphic"/>
    </filter>
  </defs>
  <g id="Group_400" data-name="Group 400" transform="translate(-136 -739.926)">
    <g id="Group_168" data-name="Group 168" transform="translate(178.788 745.926)">
      <g transform="matrix(1, 0, 0, 1, -42.79, -6)" filter="url(#Path_581)">
        <path id="Path_581-2" data-name="Path 581" d="M40.155,6.8,196.359-10c11.131,0,20.155,25.82,20.155,36.951V40.388c0,11.131-9.024,36.951-20.155,36.951l-156.2-16.8A20.155,20.155,0,0,1,20,40.388V26.951A20.155,20.155,0,0,1,40.155,6.8Z" transform="translate(22.79 16)" fill="#fff"/>
      </g>
      <path id="Path_580" data-name="Path 580" d="M40.155,6.8,189.64-10C200.772-10,209.8,15.82,209.8,26.951V33.67c0,11.131-9.024,36.951-20.155,36.951L40.155,53.825A20.155,20.155,0,0,1,20,33.67V26.951A20.155,20.155,0,0,1,40.155,6.8Z" transform="translate(-16.641 13.359)" fill="#f7b22c"/>
    </g>
    <path id="Path_17266" data-name="Path 17266" d="M-64.239-11.914q-.023-.276-.092-.656a2.019,2.019,0,0,0-.31-.748,1.925,1.925,0,0,0-.7-.621,2.7,2.7,0,0,0-1.288-.253,2.378,2.378,0,0,0-1.794.644,2.793,2.793,0,0,0-.621,2v6.417a2.76,2.76,0,0,0,.632,2,2.449,2.449,0,0,0,1.828.644,2.585,2.585,0,0,0,1.242-.253,1.826,1.826,0,0,0,.69-.621,2.286,2.286,0,0,0,.311-.793,6.454,6.454,0,0,0,.1-.793.839.839,0,0,1,.46-.736,2.246,2.246,0,0,1,1.012-.207,1.811,1.811,0,0,1,1.15.3,1.468,1.468,0,0,1,.368,1.173,4.355,4.355,0,0,1-.4,1.886A4,4,0,0,1-62.79-1.093a5.4,5.4,0,0,1-1.748.909,7.249,7.249,0,0,1-2.208.322,7.14,7.14,0,0,1-2.047-.287,4.563,4.563,0,0,1-1.69-.909A4.211,4.211,0,0,1-71.622-2.68a6.414,6.414,0,0,1-.414-2.45v-6.417A6.26,6.26,0,0,1-71.611-14a4.317,4.317,0,0,1,1.15-1.622,4.563,4.563,0,0,1,1.69-.909,7.14,7.14,0,0,1,2.047-.287,7.5,7.5,0,0,1,2.208.31,5.357,5.357,0,0,1,1.737.874,3.928,3.928,0,0,1,1.127,1.38,4.027,4.027,0,0,1,.4,1.806,1.464,1.464,0,0,1-.368,1.184,1.82,1.82,0,0,1-1.127.287,2.364,2.364,0,0,1-1.058-.207A.793.793,0,0,1-64.239-11.914ZM-56.465-.943a.817.817,0,0,1-.448.644A1.842,1.842,0,0,1-57.96,0,1.752,1.752,0,0,1-59.03-.3a.825.825,0,0,1-.4-.644V-16.376a.762.762,0,0,1,.4-.667A1.989,1.989,0,0,1-57.96-17.3a2.094,2.094,0,0,1,1.047.253.754.754,0,0,1,.448.667v7.061a3.3,3.3,0,0,1,1.058-1.207,3.025,3.025,0,0,1,1.84-.541,3.286,3.286,0,0,1,1.507.368A4.012,4.012,0,0,1-50.8-9.683,5.162,5.162,0,0,1-49.933-8.2a5,5,0,0,1,.322,1.806V-.943a.759.759,0,0,1-.472.7A2.212,2.212,0,0,1-51.106,0a2.165,2.165,0,0,1-1-.242.759.759,0,0,1-.472-.7V-6.394a1.875,1.875,0,0,0-.161-.759,2.389,2.389,0,0,0-.437-.667,2.1,2.1,0,0,0-.632-.471,1.746,1.746,0,0,0-.771-.173,1.855,1.855,0,0,0-1.3.552,1.984,1.984,0,0,0-.587,1.518Zm13.685-10.12a5.12,5.12,0,0,1,1.806.322,4.973,4.973,0,0,1,1.518.885A4.1,4.1,0,0,1-38.422-8.5a4.026,4.026,0,0,1,.38,1.759,2.9,2.9,0,0,1-.184,1.15,1.331,1.331,0,0,1-.494.609,1.651,1.651,0,0,1-.69.241,6.4,6.4,0,0,1-.77.046H-44.85v.345a1.967,1.967,0,0,0,.736,1.61,3.006,3.006,0,0,0,1.955.6,3.142,3.142,0,0,0,.989-.138,5.635,5.635,0,0,0,.736-.3q.322-.161.587-.3a1.114,1.114,0,0,1,.517-.138.811.811,0,0,1,.46.138,1.385,1.385,0,0,1,.356.345,1.708,1.708,0,0,1,.23.437A1.222,1.222,0,0,1-38.2-1.7a1,1,0,0,1-.288.633,2.883,2.883,0,0,1-.817.621,5.359,5.359,0,0,1-1.276.472,6.984,6.984,0,0,1-1.667.184,7.2,7.2,0,0,1-2.243-.334,5.184,5.184,0,0,1-1.76-.955A4.4,4.4,0,0,1-47.4-2.576a4.456,4.456,0,0,1-.414-1.932V-6.463a4.119,4.119,0,0,1,.391-1.76,4.717,4.717,0,0,1,1.069-1.472,5.089,5.089,0,0,1,1.6-1A5.276,5.276,0,0,1-42.78-11.063Zm1.288,4.623a.874.874,0,0,0,.517-.115q.149-.115.15-.506a1.637,1.637,0,0,0-.6-1.311,2.136,2.136,0,0,0-1.426-.506,2.179,2.179,0,0,0-1.391.483,1.584,1.584,0,0,0-.61,1.311v.644ZM-31.648.207A6.379,6.379,0,0,1-33.9-.149a4.159,4.159,0,0,1-1.553-.989,3.9,3.9,0,0,1-.9-1.5,5.894,5.894,0,0,1-.287-1.875v-1.84A5.819,5.819,0,0,1-36.352-8.2a3.9,3.9,0,0,1,.9-1.495,4.294,4.294,0,0,1,1.541-1,6.106,6.106,0,0,1,2.243-.368,6.9,6.9,0,0,1,1.483.149,4.672,4.672,0,0,1,1.162.4,2.531,2.531,0,0,1,.759.575,1.017,1.017,0,0,1,.276.667,1.531,1.531,0,0,1-.08.46,1.617,1.617,0,0,1-.241.471,1.675,1.675,0,0,1-.368.368.8.8,0,0,1-.483.149.809.809,0,0,1-.379-.1q-.2-.1-.448-.219a4.768,4.768,0,0,0-.6-.219,3,3,0,0,0-.851-.1,2.271,2.271,0,0,0-1.7.552,2.17,2.17,0,0,0-.529,1.564v1.84a2.17,2.17,0,0,0,.529,1.564,2.306,2.306,0,0,0,1.725.552,3,3,0,0,0,.851-.1,3.129,3.129,0,0,0,.6-.241q.253-.138.449-.242a.85.85,0,0,1,.4-.1,1.07,1.07,0,0,1,.54.138,1.354,1.354,0,0,1,.4.345,1.468,1.468,0,0,1,.241.46,1.531,1.531,0,0,1,.081.46A1.038,1.038,0,0,1-28.141-1a2.81,2.81,0,0,1-.794.61,4.728,4.728,0,0,1-1.208.437A6.725,6.725,0,0,1-31.648.207ZM-19.9-6.6l3.381,4.83a.829.829,0,0,1,.161.483.993.993,0,0,1-.161.517,1.852,1.852,0,0,1-.414.472,2.689,2.689,0,0,1-.541.345,1.3,1.3,0,0,1-.563.138.858.858,0,0,1-.736-.391l-3.105-4.577L-23.3-3.473v2.53a.817.817,0,0,1-.448.644,1.883,1.883,0,0,1-1.069.3,1.711,1.711,0,0,1-1.046-.3.825.825,0,0,1-.4-.644V-16.376a.762.762,0,0,1,.4-.667,1.941,1.941,0,0,1,1.046-.253,2.143,2.143,0,0,1,1.069.253.754.754,0,0,1,.448.667v9.637l4.324-4.071a.916.916,0,0,1,.6-.23,1.152,1.152,0,0,1,.494.127,1.7,1.7,0,0,1,.472.334,2.007,2.007,0,0,1,.345.46,1.049,1.049,0,0,1,.138.506.769.769,0,0,1-.253.552ZM-4.945.138A7.513,7.513,0,0,1-7.073-.149a4.553,4.553,0,0,1-1.7-.909A4.211,4.211,0,0,1-9.913-2.68a6.414,6.414,0,0,1-.414-2.45v-6.417A6.414,6.414,0,0,1-9.913-14a4.211,4.211,0,0,1,1.139-1.622,4.553,4.553,0,0,1,1.7-.909,7.513,7.513,0,0,1,2.127-.287,7.548,7.548,0,0,1,2.116.287,4.652,4.652,0,0,1,1.725.909A4.154,4.154,0,0,1,.046-14a6.414,6.414,0,0,1,.414,2.45v6.417A6.414,6.414,0,0,1,.046-2.68,4.154,4.154,0,0,1-1.1-1.058a4.652,4.652,0,0,1-1.725.909A7.548,7.548,0,0,1-4.945.138ZM-2.53-11.546a2.723,2.723,0,0,0-.644-2.012,2.418,2.418,0,0,0-1.771-.633,2.37,2.37,0,0,0-1.771.633,2.787,2.787,0,0,0-.621,2.012v6.417a2.787,2.787,0,0,0,.621,2.012,2.37,2.37,0,0,0,1.771.633,2.418,2.418,0,0,0,1.771-.633A2.723,2.723,0,0,0-2.53-5.129ZM7.659.207a4.991,4.991,0,0,1-1.944-.38A5.182,5.182,0,0,1,4.128-1.2a4.813,4.813,0,0,1-1.069-1.5,4.2,4.2,0,0,1-.391-1.771v-5.52a.818.818,0,0,1,.437-.644,1.828,1.828,0,0,1,1.058-.3,1.788,1.788,0,0,1,1.035.3.818.818,0,0,1,.437.644v5.52A1.875,1.875,0,0,0,5.8-3.7a2.389,2.389,0,0,0,.437.667,2.056,2.056,0,0,0,.644.471,1.82,1.82,0,0,0,.782.173,1.82,1.82,0,0,0,.782-.173,2.148,2.148,0,0,0,.644-.46,2.024,2.024,0,0,0,.426-.667,2.086,2.086,0,0,0,.149-.77v-5.543a.776.776,0,0,1,.448-.644,1.956,1.956,0,0,1,1.047-.276,1.859,1.859,0,0,1,1.069.276.783.783,0,0,1,.4.644v5.543a4.171,4.171,0,0,1-.391,1.782A4.855,4.855,0,0,1,11.166-1.2,5.182,5.182,0,0,1,9.579-.173,4.932,4.932,0,0,1,7.659.207Zm10.12-3.933a1.308,1.308,0,0,0,.276.943,1.427,1.427,0,0,0,1.012.276h.9a1.145,1.145,0,0,1,.955.391,1.34,1.34,0,0,1,.311.851,1.37,1.37,0,0,1-.311.874A1.145,1.145,0,0,1,19.964,0h-.9a4.91,4.91,0,0,1-3.174-.886,3.464,3.464,0,0,1-1.081-2.84V-14.881a.753.753,0,0,1,.472-.667,2.085,2.085,0,0,1,1-.253,2.112,2.112,0,0,1,1.035.253.753.753,0,0,1,.46.667v3.956h2.714a.616.616,0,0,1,.563.345,1.469,1.469,0,0,1,.2.736,1.45,1.45,0,0,1-.2.748.619.619,0,0,1-.563.333H17.779Zm17.5-2.323a1.016,1.016,0,0,1-.46.471,1.315,1.315,0,0,1-.552.127,1.24,1.24,0,0,1-.541-.127,1.034,1.034,0,0,1-.449-.471l-2.645-4.968V-.943a.759.759,0,0,1-.472.7A2.212,2.212,0,0,1,29.141,0a2.192,2.192,0,0,1-1.035-.242.76.76,0,0,1-.46-.7V-15.318a1.341,1.341,0,0,1,.46-1.162,1.72,1.72,0,0,1,1.035-.333,3.83,3.83,0,0,1,.713.057,1.565,1.565,0,0,1,.564.23,2.31,2.31,0,0,1,.517.483,5.406,5.406,0,0,1,.529.816l2.829,5.152,2.829-5.152a5.406,5.406,0,0,1,.529-.816,2.31,2.31,0,0,1,.517-.483,1.564,1.564,0,0,1,.575-.23,4.021,4.021,0,0,1,.724-.057,1.72,1.72,0,0,1,1.035.333,1.341,1.341,0,0,1,.46,1.162V-.943a.759.759,0,0,1-.472.7A2.212,2.212,0,0,1,39.468,0a2.192,2.192,0,0,1-1.035-.242.76.76,0,0,1-.46-.7v-9.89Zm12.673-5.014a5.007,5.007,0,0,1,1.9.368,5.156,5.156,0,0,1,1.6,1.012A4.928,4.928,0,0,1,52.543-8.2a4.122,4.122,0,0,1,.4,1.806v1.886a4.1,4.1,0,0,1-.4,1.771,5.026,5.026,0,0,1-1.092,1.506,5.4,5.4,0,0,1-1.6,1.047,4.751,4.751,0,0,1-1.9.391,4.807,4.807,0,0,1-1.921-.391,5.358,5.358,0,0,1-1.587-1.035,4.977,4.977,0,0,1-1.081-1.5,4.145,4.145,0,0,1-.4-1.794V-6.394a4.2,4.2,0,0,1,.391-1.771A4.813,4.813,0,0,1,44.424-9.66a5.182,5.182,0,0,1,1.587-1.023A4.991,4.991,0,0,1,47.955-11.063Zm2.024,4.669a1.875,1.875,0,0,0-.161-.759,2.389,2.389,0,0,0-.437-.667,2.056,2.056,0,0,0-.644-.471,1.82,1.82,0,0,0-.782-.173,1.82,1.82,0,0,0-.782.173,2.056,2.056,0,0,0-.644.471,2.389,2.389,0,0,0-.437.667,1.875,1.875,0,0,0-.161.759v1.886a2.011,2.011,0,0,0,.161.794,2.187,2.187,0,0,0,.437.667,2.328,2.328,0,0,0,.644.472,1.725,1.725,0,0,0,.782.184,1.725,1.725,0,0,0,.782-.184,2.328,2.328,0,0,0,.644-.472,2.187,2.187,0,0,0,.437-.667,2.011,2.011,0,0,0,.161-.794Zm10.465-2.07a2.118,2.118,0,0,0-.978.241,2.709,2.709,0,0,0-.84.679,3.5,3.5,0,0,0-.6,1.069A4.116,4.116,0,0,0,57.8-5.06V-.943A.817.817,0,0,1,57.35-.3a1.883,1.883,0,0,1-1.069.3,1.711,1.711,0,0,1-1.046-.3.825.825,0,0,1-.4-.644v-9.062a.762.762,0,0,1,.4-.667,1.941,1.941,0,0,1,1.046-.253,1.7,1.7,0,0,1,.943.253.765.765,0,0,1,.391.667v.943a3.206,3.206,0,0,1,.449-.724,4.01,4.01,0,0,1,.655-.644,3.222,3.222,0,0,1,.805-.46,2.483,2.483,0,0,1,.92-.173h.713a.981.981,0,0,1,.748.38,1.33,1.33,0,0,1,.333.908,1.373,1.373,0,0,1-.333.92.972.972,0,0,1-.748.391Zm7.452-2.6a5.12,5.12,0,0,1,1.805.322,4.973,4.973,0,0,1,1.518.885A4.1,4.1,0,0,1,72.255-8.5a4.025,4.025,0,0,1,.38,1.759,2.9,2.9,0,0,1-.184,1.15,1.331,1.331,0,0,1-.494.609,1.651,1.651,0,0,1-.69.241,6.4,6.4,0,0,1-.771.046H65.826v.345a1.967,1.967,0,0,0,.736,1.61,3.006,3.006,0,0,0,1.955.6,3.142,3.142,0,0,0,.989-.138,5.636,5.636,0,0,0,.736-.3q.322-.161.586-.3a1.114,1.114,0,0,1,.518-.138.811.811,0,0,1,.46.138,1.385,1.385,0,0,1,.356.345,1.708,1.708,0,0,1,.23.437,1.222,1.222,0,0,1,.08.391,1,1,0,0,1-.287.633,2.883,2.883,0,0,1-.816.621,5.359,5.359,0,0,1-1.277.472,6.984,6.984,0,0,1-1.667.184,7.2,7.2,0,0,1-2.243-.334,5.184,5.184,0,0,1-1.759-.955,4.4,4.4,0,0,1-1.15-1.495,4.456,4.456,0,0,1-.414-1.932V-6.463a4.119,4.119,0,0,1,.391-1.76,4.717,4.717,0,0,1,1.07-1.472,5.089,5.089,0,0,1,1.6-1A5.276,5.276,0,0,1,67.9-11.063ZM69.184-6.44a.874.874,0,0,0,.518-.115q.149-.115.149-.506a1.637,1.637,0,0,0-.6-1.311,2.136,2.136,0,0,0-1.426-.506,2.179,2.179,0,0,0-1.392.483,1.584,1.584,0,0,0-.609,1.311v.644Z" transform="translate(287.468 799.363)" fill="#d68e21"/>
    <path id="Path_17265" data-name="Path 17265" d="M-64.239-11.914q-.023-.276-.092-.656a2.019,2.019,0,0,0-.31-.748,1.925,1.925,0,0,0-.7-.621,2.7,2.7,0,0,0-1.288-.253,2.378,2.378,0,0,0-1.794.644,2.793,2.793,0,0,0-.621,2v6.417a2.76,2.76,0,0,0,.632,2,2.449,2.449,0,0,0,1.828.644,2.585,2.585,0,0,0,1.242-.253,1.826,1.826,0,0,0,.69-.621,2.286,2.286,0,0,0,.311-.793,6.454,6.454,0,0,0,.1-.793.839.839,0,0,1,.46-.736,2.246,2.246,0,0,1,1.012-.207,1.811,1.811,0,0,1,1.15.3,1.468,1.468,0,0,1,.368,1.173,4.355,4.355,0,0,1-.4,1.886A4,4,0,0,1-62.79-1.093a5.4,5.4,0,0,1-1.748.909,7.249,7.249,0,0,1-2.208.322,7.14,7.14,0,0,1-2.047-.287,4.563,4.563,0,0,1-1.69-.909A4.211,4.211,0,0,1-71.622-2.68a6.414,6.414,0,0,1-.414-2.45v-6.417A6.26,6.26,0,0,1-71.611-14a4.317,4.317,0,0,1,1.15-1.622,4.563,4.563,0,0,1,1.69-.909,7.14,7.14,0,0,1,2.047-.287,7.5,7.5,0,0,1,2.208.31,5.357,5.357,0,0,1,1.737.874,3.928,3.928,0,0,1,1.127,1.38,4.027,4.027,0,0,1,.4,1.806,1.464,1.464,0,0,1-.368,1.184,1.82,1.82,0,0,1-1.127.287,2.364,2.364,0,0,1-1.058-.207A.793.793,0,0,1-64.239-11.914ZM-56.465-.943a.817.817,0,0,1-.448.644A1.842,1.842,0,0,1-57.96,0,1.752,1.752,0,0,1-59.03-.3a.825.825,0,0,1-.4-.644V-16.376a.762.762,0,0,1,.4-.667A1.989,1.989,0,0,1-57.96-17.3a2.094,2.094,0,0,1,1.047.253.754.754,0,0,1,.448.667v7.061a3.3,3.3,0,0,1,1.058-1.207,3.025,3.025,0,0,1,1.84-.541,3.286,3.286,0,0,1,1.507.368A4.012,4.012,0,0,1-50.8-9.683,5.162,5.162,0,0,1-49.933-8.2a5,5,0,0,1,.322,1.806V-.943a.759.759,0,0,1-.472.7A2.212,2.212,0,0,1-51.106,0a2.165,2.165,0,0,1-1-.242.759.759,0,0,1-.472-.7V-6.394a1.875,1.875,0,0,0-.161-.759,2.389,2.389,0,0,0-.437-.667,2.1,2.1,0,0,0-.632-.471,1.746,1.746,0,0,0-.771-.173,1.855,1.855,0,0,0-1.3.552,1.984,1.984,0,0,0-.587,1.518Zm13.685-10.12a5.12,5.12,0,0,1,1.806.322,4.973,4.973,0,0,1,1.518.885A4.1,4.1,0,0,1-38.422-8.5a4.026,4.026,0,0,1,.38,1.759,2.9,2.9,0,0,1-.184,1.15,1.331,1.331,0,0,1-.494.609,1.651,1.651,0,0,1-.69.241,6.4,6.4,0,0,1-.77.046H-44.85v.345a1.967,1.967,0,0,0,.736,1.61,3.006,3.006,0,0,0,1.955.6,3.142,3.142,0,0,0,.989-.138,5.635,5.635,0,0,0,.736-.3q.322-.161.587-.3a1.114,1.114,0,0,1,.517-.138.811.811,0,0,1,.46.138,1.385,1.385,0,0,1,.356.345,1.708,1.708,0,0,1,.23.437A1.222,1.222,0,0,1-38.2-1.7a1,1,0,0,1-.288.633,2.883,2.883,0,0,1-.817.621,5.359,5.359,0,0,1-1.276.472,6.984,6.984,0,0,1-1.667.184,7.2,7.2,0,0,1-2.243-.334,5.184,5.184,0,0,1-1.76-.955A4.4,4.4,0,0,1-47.4-2.576a4.456,4.456,0,0,1-.414-1.932V-6.463a4.119,4.119,0,0,1,.391-1.76,4.717,4.717,0,0,1,1.069-1.472,5.089,5.089,0,0,1,1.6-1A5.276,5.276,0,0,1-42.78-11.063Zm1.288,4.623a.874.874,0,0,0,.517-.115q.149-.115.15-.506a1.637,1.637,0,0,0-.6-1.311,2.136,2.136,0,0,0-1.426-.506,2.179,2.179,0,0,0-1.391.483,1.584,1.584,0,0,0-.61,1.311v.644ZM-31.648.207A6.379,6.379,0,0,1-33.9-.149a4.159,4.159,0,0,1-1.553-.989,3.9,3.9,0,0,1-.9-1.5,5.894,5.894,0,0,1-.287-1.875v-1.84A5.819,5.819,0,0,1-36.352-8.2a3.9,3.9,0,0,1,.9-1.495,4.294,4.294,0,0,1,1.541-1,6.106,6.106,0,0,1,2.243-.368,6.9,6.9,0,0,1,1.483.149,4.672,4.672,0,0,1,1.162.4,2.531,2.531,0,0,1,.759.575,1.017,1.017,0,0,1,.276.667,1.531,1.531,0,0,1-.08.46,1.617,1.617,0,0,1-.241.471,1.675,1.675,0,0,1-.368.368.8.8,0,0,1-.483.149.809.809,0,0,1-.379-.1q-.2-.1-.448-.219a4.768,4.768,0,0,0-.6-.219,3,3,0,0,0-.851-.1,2.271,2.271,0,0,0-1.7.552,2.17,2.17,0,0,0-.529,1.564v1.84a2.17,2.17,0,0,0,.529,1.564,2.306,2.306,0,0,0,1.725.552,3,3,0,0,0,.851-.1,3.129,3.129,0,0,0,.6-.241q.253-.138.449-.242a.85.85,0,0,1,.4-.1,1.07,1.07,0,0,1,.54.138,1.354,1.354,0,0,1,.4.345,1.468,1.468,0,0,1,.241.46,1.531,1.531,0,0,1,.081.46A1.038,1.038,0,0,1-28.141-1a2.81,2.81,0,0,1-.794.61,4.728,4.728,0,0,1-1.208.437A6.725,6.725,0,0,1-31.648.207ZM-19.9-6.6l3.381,4.83a.829.829,0,0,1,.161.483.993.993,0,0,1-.161.517,1.852,1.852,0,0,1-.414.472,2.689,2.689,0,0,1-.541.345,1.3,1.3,0,0,1-.563.138.858.858,0,0,1-.736-.391l-3.105-4.577L-23.3-3.473v2.53a.817.817,0,0,1-.448.644,1.883,1.883,0,0,1-1.069.3,1.711,1.711,0,0,1-1.046-.3.825.825,0,0,1-.4-.644V-16.376a.762.762,0,0,1,.4-.667,1.941,1.941,0,0,1,1.046-.253,2.143,2.143,0,0,1,1.069.253.754.754,0,0,1,.448.667v9.637l4.324-4.071a.916.916,0,0,1,.6-.23,1.152,1.152,0,0,1,.494.127,1.7,1.7,0,0,1,.472.334,2.007,2.007,0,0,1,.345.46,1.049,1.049,0,0,1,.138.506.769.769,0,0,1-.253.552ZM-4.945.138A7.513,7.513,0,0,1-7.073-.149a4.553,4.553,0,0,1-1.7-.909A4.211,4.211,0,0,1-9.913-2.68a6.414,6.414,0,0,1-.414-2.45v-6.417A6.414,6.414,0,0,1-9.913-14a4.211,4.211,0,0,1,1.139-1.622,4.553,4.553,0,0,1,1.7-.909,7.513,7.513,0,0,1,2.127-.287,7.548,7.548,0,0,1,2.116.287,4.652,4.652,0,0,1,1.725.909A4.154,4.154,0,0,1,.046-14a6.414,6.414,0,0,1,.414,2.45v6.417A6.414,6.414,0,0,1,.046-2.68,4.154,4.154,0,0,1-1.1-1.058a4.652,4.652,0,0,1-1.725.909A7.548,7.548,0,0,1-4.945.138ZM-2.53-11.546a2.723,2.723,0,0,0-.644-2.012,2.418,2.418,0,0,0-1.771-.633,2.37,2.37,0,0,0-1.771.633,2.787,2.787,0,0,0-.621,2.012v6.417a2.787,2.787,0,0,0,.621,2.012,2.37,2.37,0,0,0,1.771.633,2.418,2.418,0,0,0,1.771-.633A2.723,2.723,0,0,0-2.53-5.129ZM7.659.207a4.991,4.991,0,0,1-1.944-.38A5.182,5.182,0,0,1,4.128-1.2a4.813,4.813,0,0,1-1.069-1.5,4.2,4.2,0,0,1-.391-1.771v-5.52a.818.818,0,0,1,.437-.644,1.828,1.828,0,0,1,1.058-.3,1.788,1.788,0,0,1,1.035.3.818.818,0,0,1,.437.644v5.52A1.875,1.875,0,0,0,5.8-3.7a2.389,2.389,0,0,0,.437.667,2.056,2.056,0,0,0,.644.471,1.82,1.82,0,0,0,.782.173,1.82,1.82,0,0,0,.782-.173,2.148,2.148,0,0,0,.644-.46,2.024,2.024,0,0,0,.426-.667,2.086,2.086,0,0,0,.149-.77v-5.543a.776.776,0,0,1,.448-.644,1.956,1.956,0,0,1,1.047-.276,1.859,1.859,0,0,1,1.069.276.783.783,0,0,1,.4.644v5.543a4.171,4.171,0,0,1-.391,1.782A4.855,4.855,0,0,1,11.166-1.2,5.182,5.182,0,0,1,9.579-.173,4.932,4.932,0,0,1,7.659.207Zm10.12-3.933a1.308,1.308,0,0,0,.276.943,1.427,1.427,0,0,0,1.012.276h.9a1.145,1.145,0,0,1,.955.391,1.34,1.34,0,0,1,.311.851,1.37,1.37,0,0,1-.311.874A1.145,1.145,0,0,1,19.964,0h-.9a4.91,4.91,0,0,1-3.174-.886,3.464,3.464,0,0,1-1.081-2.84V-14.881a.753.753,0,0,1,.472-.667,2.085,2.085,0,0,1,1-.253,2.112,2.112,0,0,1,1.035.253.753.753,0,0,1,.46.667v3.956h2.714a.616.616,0,0,1,.563.345,1.469,1.469,0,0,1,.2.736,1.45,1.45,0,0,1-.2.748.619.619,0,0,1-.563.333H17.779Zm17.5-2.323a1.016,1.016,0,0,1-.46.471,1.315,1.315,0,0,1-.552.127,1.24,1.24,0,0,1-.541-.127,1.034,1.034,0,0,1-.449-.471l-2.645-4.968V-.943a.759.759,0,0,1-.472.7A2.212,2.212,0,0,1,29.141,0a2.192,2.192,0,0,1-1.035-.242.76.76,0,0,1-.46-.7V-15.318a1.341,1.341,0,0,1,.46-1.162,1.72,1.72,0,0,1,1.035-.333,3.83,3.83,0,0,1,.713.057,1.565,1.565,0,0,1,.564.23,2.31,2.31,0,0,1,.517.483,5.406,5.406,0,0,1,.529.816l2.829,5.152,2.829-5.152a5.406,5.406,0,0,1,.529-.816,2.31,2.31,0,0,1,.517-.483,1.564,1.564,0,0,1,.575-.23,4.021,4.021,0,0,1,.724-.057,1.72,1.72,0,0,1,1.035.333,1.341,1.341,0,0,1,.46,1.162V-.943a.759.759,0,0,1-.472.7A2.212,2.212,0,0,1,39.468,0a2.192,2.192,0,0,1-1.035-.242.76.76,0,0,1-.46-.7v-9.89Zm12.673-5.014a5.007,5.007,0,0,1,1.9.368,5.156,5.156,0,0,1,1.6,1.012A4.928,4.928,0,0,1,52.543-8.2a4.122,4.122,0,0,1,.4,1.806v1.886a4.1,4.1,0,0,1-.4,1.771,5.026,5.026,0,0,1-1.092,1.506,5.4,5.4,0,0,1-1.6,1.047,4.751,4.751,0,0,1-1.9.391,4.807,4.807,0,0,1-1.921-.391,5.358,5.358,0,0,1-1.587-1.035,4.977,4.977,0,0,1-1.081-1.5,4.145,4.145,0,0,1-.4-1.794V-6.394a4.2,4.2,0,0,1,.391-1.771A4.813,4.813,0,0,1,44.424-9.66a5.182,5.182,0,0,1,1.587-1.023A4.991,4.991,0,0,1,47.955-11.063Zm2.024,4.669a1.875,1.875,0,0,0-.161-.759,2.389,2.389,0,0,0-.437-.667,2.056,2.056,0,0,0-.644-.471,1.82,1.82,0,0,0-.782-.173,1.82,1.82,0,0,0-.782.173,2.056,2.056,0,0,0-.644.471,2.389,2.389,0,0,0-.437.667,1.875,1.875,0,0,0-.161.759v1.886a2.011,2.011,0,0,0,.161.794,2.187,2.187,0,0,0,.437.667,2.328,2.328,0,0,0,.644.472,1.725,1.725,0,0,0,.782.184,1.725,1.725,0,0,0,.782-.184,2.328,2.328,0,0,0,.644-.472,2.187,2.187,0,0,0,.437-.667,2.011,2.011,0,0,0,.161-.794Zm10.465-2.07a2.118,2.118,0,0,0-.978.241,2.709,2.709,0,0,0-.84.679,3.5,3.5,0,0,0-.6,1.069A4.116,4.116,0,0,0,57.8-5.06V-.943A.817.817,0,0,1,57.35-.3a1.883,1.883,0,0,1-1.069.3,1.711,1.711,0,0,1-1.046-.3.825.825,0,0,1-.4-.644v-9.062a.762.762,0,0,1,.4-.667,1.941,1.941,0,0,1,1.046-.253,1.7,1.7,0,0,1,.943.253.765.765,0,0,1,.391.667v.943a3.206,3.206,0,0,1,.449-.724,4.01,4.01,0,0,1,.655-.644,3.222,3.222,0,0,1,.805-.46,2.483,2.483,0,0,1,.92-.173h.713a.981.981,0,0,1,.748.38,1.33,1.33,0,0,1,.333.908,1.373,1.373,0,0,1-.333.92.972.972,0,0,1-.748.391Zm7.452-2.6a5.12,5.12,0,0,1,1.805.322,4.973,4.973,0,0,1,1.518.885A4.1,4.1,0,0,1,72.255-8.5a4.025,4.025,0,0,1,.38,1.759,2.9,2.9,0,0,1-.184,1.15,1.331,1.331,0,0,1-.494.609,1.651,1.651,0,0,1-.69.241,6.4,6.4,0,0,1-.771.046H65.826v.345a1.967,1.967,0,0,0,.736,1.61,3.006,3.006,0,0,0,1.955.6,3.142,3.142,0,0,0,.989-.138,5.636,5.636,0,0,0,.736-.3q.322-.161.586-.3a1.114,1.114,0,0,1,.518-.138.811.811,0,0,1,.46.138,1.385,1.385,0,0,1,.356.345,1.708,1.708,0,0,1,.23.437,1.222,1.222,0,0,1,.08.391,1,1,0,0,1-.287.633,2.883,2.883,0,0,1-.816.621,5.359,5.359,0,0,1-1.277.472,6.984,6.984,0,0,1-1.667.184,7.2,7.2,0,0,1-2.243-.334,5.184,5.184,0,0,1-1.759-.955,4.4,4.4,0,0,1-1.15-1.495,4.456,4.456,0,0,1-.414-1.932V-6.463a4.119,4.119,0,0,1,.391-1.76,4.717,4.717,0,0,1,1.07-1.472,5.089,5.089,0,0,1,1.6-1A5.276,5.276,0,0,1,67.9-11.063ZM69.184-6.44a.874.874,0,0,0,.518-.115q.149-.115.149-.506a1.637,1.637,0,0,0-.6-1.311,2.136,2.136,0,0,0-1.426-.506,2.179,2.179,0,0,0-1.392.483,1.584,1.584,0,0,0-.609,1.311v.644Z" transform="translate(287.468 797.578)" fill="#fff"/>
    <g id="Group_277" data-name="Group 277" transform="translate(136 744.139)">
      <g id="Group_95" data-name="Group 95" transform="translate(0 24.926)" opacity="0.5">
        <path id="Path_77" data-name="Path 77" d="M1430.892,395.375c-2.307,5.517-21.726,19.331-26.64,4.05-5.334-16.593-38.829-19.915-32.435-59.948.943-5.9,21.261,15.235,36.071,21.428S1433.2,389.859,1430.892,395.375Z" transform="translate(-1371.01 -338.447)" fill="#48443e" opacity="0"/>
        <path id="Path_78" data-name="Path 78" d="M1432.706,396.8c-2.278,5.448-21.418,18.988-26.343,3.961-5.337-16.313-38.249-19.639-31.964-58.926.941-5.829,20.962,14.9,35.589,21.016S1434.984,391.354,1432.706,396.8Z" transform="translate(-1373.056 -340.315)" fill="#48443e" opacity="0.02"/>
        <path id="Path_79" data-name="Path 79" d="M1434.521,398.23c-2.25,5.38-21.11,18.645-26.046,3.873-5.341-16.032-37.669-19.362-31.493-57.905.94-5.753,20.663,14.565,35.107,20.6S1436.771,392.85,1434.521,398.23Z" transform="translate(-1375.104 -342.182)" fill="#48443e" opacity="0.039"/>
        <path id="Path_80" data-name="Path 80" d="M1436.266,399.655c-2.222,5.313-20.8,18.3-25.749,3.785-5.344-15.752-37.175-19.1-31.021-56.884.925-5.68,20.364,14.23,34.626,20.194S1438.487,394.343,1436.266,399.655Z" transform="translate(-1377.082 -344.047)" fill="#48443e" opacity="0.059"/>
        <path id="Path_81" data-name="Path 81" d="M1438.058,401.081c-2.193,5.244-20.493,17.96-25.452,3.7-5.347-15.472-36.623-18.828-30.551-55.863.919-5.6,20.065,13.9,34.144,19.783S1440.25,395.837,1438.058,401.081Z" transform="translate(-1379.106 -345.913)" fill="#48443e" opacity="0.078"/>
        <path id="Path_82" data-name="Path 82" d="M1439.849,402.507c-2.164,5.176-20.185,17.617-25.155,3.608-5.35-15.192-36.07-18.556-30.079-54.841.914-5.53,19.766,13.561,33.662,19.371S1442.013,397.331,1439.849,402.507Z" transform="translate(-1381.131 -347.779)" fill="#48443e" opacity="0.098"/>
        <path id="Path_83" data-name="Path 83" d="M1441.641,403.932c-2.136,5.108-19.877,17.274-24.858,3.52-5.353-14.911-35.518-18.284-29.608-53.82.907-5.455,19.466,13.226,33.179,18.96S1443.777,398.824,1441.641,403.932Z" transform="translate(-1383.156 -349.644)" fill="#48443e" opacity="0.118"/>
        <path id="Path_84" data-name="Path 84" d="M1443.434,405.357c-2.107,5.04-19.568,16.931-24.561,3.432-5.357-14.631-34.963-18.012-29.136-52.8.9-5.38,19.167,12.891,32.7,18.549S1445.542,400.317,1443.434,405.357Z" transform="translate(-1385.183 -351.509)" fill="#48443e" opacity="0.137"/>
        <path id="Path_85" data-name="Path 85" d="M1445.227,406.783c-2.079,4.972-19.26,16.588-24.263,3.343-5.36-14.351-34.409-17.74-28.665-51.778.895-5.305,18.867,12.556,32.216,18.137S1447.307,401.81,1445.227,406.783Z" transform="translate(-1387.209 -353.374)" fill="#48443e" opacity="0.157"/>
        <path id="Path_86" data-name="Path 86" d="M1447.018,408.207c-2.051,4.9-18.979,16.256-23.967,3.255-5.393-14.058-33.854-17.468-28.193-50.757.889-5.23,18.568,12.221,31.733,17.726S1449.069,403.3,1447.018,408.207Z" transform="translate(-1389.233 -355.238)" fill="#48443e" opacity="0.176"/>
        <path id="Path_87" data-name="Path 87" d="M1448.812,409.631c-2.023,4.836-18.675,15.914-23.67,3.166-5.4-13.777-33.3-17.2-27.722-49.735.884-5.156,18.27,11.886,31.252,17.315S1450.834,404.795,1448.812,409.631Z" transform="translate(-1391.259 -357.102)" fill="#48443e" opacity="0.196"/>
        <path id="Path_88" data-name="Path 88" d="M1450.607,411.054c-1.994,4.768-18.368,15.573-23.373,3.078-5.405-13.495-32.742-16.924-27.251-48.714.878-5.081,17.97,11.551,30.771,16.9S1452.6,406.286,1450.607,411.054Z" transform="translate(-1393.287 -358.966)" fill="#48443e" opacity="0.216"/>
        <path id="Path_89" data-name="Path 89" d="M1452.4,412.477c-1.966,4.7-18.064,15.231-23.077,2.99-5.411-13.213-32.184-16.651-26.78-47.693.872-5.006,17.671,11.217,30.289,16.493S1454.367,407.777,1452.4,412.477Z" transform="translate(-1395.314 -360.828)" fill="#48443e" opacity="0.235"/>
        <path id="Path_90" data-name="Path 90" d="M1454.2,413.9c-1.937,4.632-17.757,14.89-22.779,2.9-5.417-12.931-31.628-16.379-26.308-46.671.865-4.931,17.371,10.882,29.806,16.081S1456.133,409.268,1454.2,413.9Z" transform="translate(-1397.343 -362.691)" fill="#48443e" opacity="0.255"/>
        <path id="Path_91" data-name="Path 91" d="M1455.993,415.322c-1.909,4.564-17.452,14.548-22.484,2.813-5.422-12.65-31.069-16.107-25.836-45.65.86-4.856,17.073,10.547,29.325,15.67S1457.9,410.758,1455.993,415.322Z" transform="translate(-1399.371 -364.553)" fill="#48443e" opacity="0.275"/>
        <path id="Path_92" data-name="Path 92" d="M1457.789,416.744c-1.88,4.5-17.146,14.207-22.186,2.725-5.429-12.368-30.51-15.835-25.365-44.629.854-4.781,16.773,10.212,28.843,15.259S1459.668,412.247,1457.789,416.744Z" transform="translate(-1401.401 -366.415)" fill="#48443e" opacity="0.294"/>
        <path id="Path_93" data-name="Path 93" d="M1459.585,418.165c-1.851,4.428-16.839,13.866-21.888,2.637-5.434-12.086-29.951-15.562-24.894-43.608.848-4.707,16.474,9.877,28.361,14.848S1461.437,413.737,1459.585,418.165Z" transform="translate(-1403.43 -368.276)" fill="#48443e" opacity="0.314"/>
        <path id="Path_94" data-name="Path 94" d="M1461.382,419.584c-1.823,4.36-16.533,13.524-21.591,2.548-5.44-11.8-29.39-15.289-24.423-42.587.843-4.632,16.175,9.542,27.879,14.436S1463.205,415.225,1461.382,419.584Z" transform="translate(-1405.459 -370.135)" fill="#48443e" opacity="0.333"/>
        <path id="Path_95" data-name="Path 95" d="M1463.18,421c-1.8,4.292-16.228,13.183-21.295,2.46-5.446-11.522-28.829-15.017-23.952-41.565.838-4.557,15.876,9.208,27.4,14.025S1464.974,416.712,1463.18,421Z" transform="translate(-1407.49 -371.995)" fill="#48443e" opacity="0.353"/>
        <path id="Path_96" data-name="Path 96" d="M1464.979,422.423c-1.766,4.224-15.921,12.842-21,2.372-5.451-11.24-28.267-14.744-23.48-40.544.831-4.483,15.576,8.873,26.915,13.614S1466.744,418.2,1464.979,422.423Z" transform="translate(-1409.522 -373.854)" fill="#48443e" opacity="0.373"/>
        <path id="Path_97" data-name="Path 97" d="M1466.778,423.841c-1.738,4.155-15.615,12.5-20.7,2.284-5.455-10.958-27.7-14.471-23.008-39.523.826-4.408,15.277,8.538,26.433,13.2S1468.515,419.685,1466.778,423.841Z" transform="translate(-1411.555 -375.712)" fill="#48443e" opacity="0.392"/>
        <path id="Path_98" data-name="Path 98" d="M1468.578,425.258c-1.709,4.088-15.308,12.159-20.4,2.2-5.461-10.676-27.139-14.2-22.538-38.5.82-4.333,14.979,8.2,25.951,12.791S1470.287,421.17,1468.578,425.258Z" transform="translate(-1413.588 -377.569)" fill="#48443e" opacity="0.412"/>
        <path id="Path_99" data-name="Path 99" d="M1470.379,426.674c-1.681,4.019-15,11.818-20.107,2.107-5.465-10.394-26.574-13.925-22.066-37.481.814-4.258,14.679,7.868,25.469,12.38S1472.06,422.655,1470.379,426.674Z" transform="translate(-1415.622 -379.425)" fill="#48443e" opacity="0.431"/>
        <path id="Path_100" data-name="Path 100" d="M1472.181,428.09c-1.652,3.951-14.694,11.477-19.81,2.019-5.469-10.112-26.007-13.652-21.595-36.459.81-4.184,14.38,7.533,24.988,11.969S1473.833,424.138,1472.181,428.09Z" transform="translate(-1417.656 -381.28)" fill="#48443e" opacity="0.451"/>
        <path id="Path_101" data-name="Path 101" d="M1473.984,429.5c-1.624,3.883-14.387,11.135-19.513,1.93-5.473-9.83-25.439-13.378-21.124-35.438.8-4.109,14.081,7.2,24.507,11.557S1475.608,425.62,1473.984,429.5Z" transform="translate(-1419.693 -383.134)" fill="#48443e" opacity="0.471"/>
        <path id="Path_102" data-name="Path 102" d="M1475.788,430.915c-1.595,3.816-14.08,10.794-19.216,1.842-5.478-9.548-24.87-13.1-20.652-34.417.8-4.035,13.782,6.863,24.024,11.146S1477.383,427.1,1475.788,430.915Z" transform="translate(-1421.729 -384.986)" fill="#48443e" opacity="0.49"/>
        <path id="Path_103" data-name="Path 103" d="M1477.593,432.327c-1.567,3.747-13.773,10.453-18.919,1.754-5.482-9.266-24.3-12.831-20.181-33.4.794-3.96,13.482,6.529,23.542,10.735S1479.159,428.579,1477.593,432.327Z" transform="translate(-1423.767 -386.837)" fill="#48443e" opacity="0.51"/>
        <path id="Path_104" data-name="Path 104" d="M1479.4,433.737c-1.538,3.679-13.465,10.112-18.623,1.665-5.486-8.984-23.728-12.557-19.709-32.374.788-3.886,13.184,6.194,23.061,10.323S1480.937,430.057,1479.4,433.737Z" transform="translate(-1425.806 -388.687)" fill="#48443e" opacity="0.529"/>
        <path id="Path_105" data-name="Path 105" d="M1481.2,435.145c-1.51,3.611-13.157,9.77-18.325,1.577-5.49-8.7-23.156-12.283-19.239-31.353.783-3.811,12.884,5.859,22.579,9.912S1482.715,431.533,1481.2,435.145Z" transform="translate(-1427.846 -390.535)" fill="#48443e" opacity="0.549"/>
        <path id="Path_106" data-name="Path 106" d="M1483.014,436.551c-1.481,3.543-12.849,9.429-18.028,1.489-5.492-8.42-22.581-12.009-18.767-30.332.778-3.737,12.585,5.524,22.1,9.5S1484.5,433.007,1483.014,436.551Z" transform="translate(-1429.888 -392.381)" fill="#48443e" opacity="0.569"/>
        <path id="Path_107" data-name="Path 107" d="M1484.823,437.955c-1.453,3.475-12.541,9.087-17.731,1.4-5.5-8.138-22.005-11.734-18.3-29.31.772-3.662,12.285,5.189,21.615,9.09S1486.276,434.479,1484.823,437.955Z" transform="translate(-1431.93 -394.225)" fill="#48443e" opacity="0.588"/>
        <path id="Path_108" data-name="Path 108" d="M1486.635,439.356c-1.425,3.407-12.232,8.746-17.435,1.312-5.5-7.857-21.427-11.46-17.824-28.289.768-3.588,11.986,4.854,21.133,8.679S1488.06,435.949,1486.635,439.356Z" transform="translate(-1433.975 -396.067)" fill="#48443e" opacity="0.608"/>
        <path id="Path_109" data-name="Path 109" d="M1488.449,440.755c-1.4,3.339-11.924,8.4-17.138,1.224-5.5-7.575-20.847-11.184-17.353-27.268.764-3.513,11.687,4.519,20.651,8.268S1489.844,437.416,1488.449,440.755Z" transform="translate(-1436.021 -397.905)" fill="#48443e" opacity="0.627"/>
        <path id="Path_110" data-name="Path 110" d="M1490.262,442.151c-1.368,3.271-11.614,8.063-16.841,1.136-5.5-7.294-20.265-10.909-16.881-26.247.758-3.439,11.388,4.184,20.169,7.856S1491.63,438.88,1490.262,442.151Z" transform="translate(-1438.068 -399.741)" fill="#48443e" opacity="0.647"/>
        <path id="Path_111" data-name="Path 111" d="M1492.079,443.544c-1.34,3.2-11.305,7.721-16.544,1.047-5.505-7.012-19.682-10.633-16.41-25.226.755-3.364,11.089,3.85,19.687,7.445S1493.418,440.34,1492.079,443.544Z" transform="translate(-1440.117 -401.574)" fill="#48443e" opacity="0.667"/>
        <path id="Path_112" data-name="Path 112" d="M1493.9,444.932c-1.311,3.135-11,7.379-16.248.959-5.506-6.731-19.1-10.357-15.938-24.2.75-3.29,10.79,3.515,19.2,7.034S1495.208,441.8,1493.9,444.932Z" transform="translate(-1442.169 -403.403)" fill="#48443e" opacity="0.686"/>
        <path id="Path_113" data-name="Path 113" d="M1495.717,446.317c-1.282,3.067-10.685,7.037-15.95.871-5.507-6.45-18.508-10.081-15.467-23.183.746-3.216,10.49,3.18,18.724,6.622S1497,443.25,1495.717,446.317Z" transform="translate(-1444.221 -405.227)" fill="#48443e" opacity="0.706"/>
        <path id="Path_114" data-name="Path 114" d="M1497.539,447.7c-1.254,3-10.375,6.694-15.653.783-5.508-6.17-17.917-9.8-15-22.162.742-3.141,10.191,2.845,18.242,6.211S1498.793,444.7,1497.539,447.7Z" transform="translate(-1446.277 -407.046)" fill="#48443e" opacity="0.725"/>
        <path id="Path_115" data-name="Path 115" d="M1499.365,449.069c-1.226,2.931-10.064,6.352-15.356.694-5.509-5.889-17.323-9.527-14.525-21.141.739-3.067,9.893,2.51,17.76,5.8S1500.591,446.138,1499.365,449.069Z" transform="translate(-1448.335 -408.86)" fill="#48443e" opacity="0.745"/>
        <path id="Path_116" data-name="Path 116" d="M1501.193,450.436c-1.2,2.863-9.753,6.008-15.06.606-5.509-5.609-16.727-9.249-14.053-20.119.737-2.992,9.593,2.175,17.279,5.389S1502.39,447.573,1501.193,450.436Z" transform="translate(-1450.397 -410.666)" fill="#48443e" opacity="0.765"/>
        <path id="Path_117" data-name="Path 117" d="M1503.024,451.795c-1.169,2.795-9.442,5.665-14.762.517-5.509-5.329-16.127-8.97-13.582-19.1.733-2.917,9.293,1.84,16.8,4.978S1504.192,449,1503.024,451.795Z" transform="translate(-1452.46 -412.465)" fill="#48443e" opacity="0.784"/>
        <path id="Path_118" data-name="Path 118" d="M1504.858,453.144c-1.14,2.727-9.13,5.321-14.466.429-5.508-5.05-15.525-8.691-13.11-18.077.731-2.843,8.995,1.505,16.314,4.566S1506,450.417,1504.858,453.144Z" transform="translate(-1454.527 -414.254)" fill="#48443e" opacity="0.804"/>
        <path id="Path_119" data-name="Path 119" d="M1506.695,454.482c-1.112,2.658-8.818,4.976-14.168.341-5.508-4.772-14.919-8.411-12.64-17.056.731-2.768,8.7,1.171,15.833,4.155S1507.806,451.823,1506.695,454.482Z" transform="translate(-1456.596 -416.031)" fill="#48443e" opacity="0.824"/>
        <path id="Path_120" data-name="Path 120" d="M1508.535,455.806c-1.083,2.591-8.505,4.632-13.872.253-5.506-4.494-14.308-8.131-12.167-16.034.729-2.694,8.4.836,15.351,3.744S1509.619,453.215,1508.535,455.806Z" transform="translate(-1458.671 -417.795)" fill="#48443e" opacity="0.843"/>
        <path id="Path_121" data-name="Path 121" d="M1510.38,457.113c-1.054,2.522-8.193,4.286-13.574.164-5.505-4.216-13.695-7.849-11.7-15.013.73-2.618,8.1.5,14.869,3.332S1511.434,454.59,1510.38,457.113Z" transform="translate(-1460.748 -419.543)" fill="#48443e" opacity="0.863"/>
        <path id="Path_122" data-name="Path 122" d="M1512.23,458.4c-1.026,2.454-7.88,3.939-13.277.076-5.5-3.939-13.076-7.566-11.226-13.992.732-2.543,7.8.166,14.387,2.921S1513.256,455.945,1512.23,458.4Z" transform="translate(-1462.831 -421.27)" fill="#48443e" opacity="0.882"/>
        <path id="Path_123" data-name="Path 123" d="M1514.083,459.662c-1,2.387-7.567,3.593-12.98-.012-5.5-3.663-12.453-7.281-10.754-12.97.737-2.467,7.5-.169,13.906,2.51S1515.081,457.275,1514.083,459.662Z" transform="translate(-1464.916 -422.972)" fill="#48443e" opacity="0.902"/>
        <path id="Path_124" data-name="Path 124" d="M1515.941,460.892c-.97,2.318-7.254,3.244-12.684-.1-5.5-3.388-11.823-6.995-10.282-11.949.743-2.389,7.2-.5,13.423,2.1S1516.91,458.573,1515.941,460.892Z" transform="translate(-1467.008 -424.642)" fill="#48443e" opacity="0.922"/>
        <path id="Path_125" data-name="Path 125" d="M1517.8,462.083c-.942,2.25-6.942,2.9-12.388-.189-5.5-3.114-11.189-6.707-9.811-10.928.754-2.311,6.9-.839,12.942,1.687S1518.744,459.832,1517.8,462.083Z" transform="translate(-1469.103 -426.272)" fill="#48443e" opacity="0.941"/>
        <path id="Path_126" data-name="Path 126" d="M1519.672,463.224c-.913,2.182-6.628,2.546-12.09-.277-5.5-2.84-10.55-6.415-9.339-9.907.773-2.229,6.6-1.174,12.459,1.276S1520.584,461.041,1519.672,463.224Z" transform="translate(-1471.205 -427.854)" fill="#48443e" opacity="0.961"/>
        <path id="Path_127" data-name="Path 127" d="M1521.546,464.306c-.884,2.114-6.312,2.186-11.794-.365-5.49-2.577-9.9-6.12-8.868-8.886.8-2.143,6.3-1.508,11.978.865S1522.429,462.192,1521.546,464.306Z" transform="translate(-1473.312 -429.375)" fill="#48443e" opacity="0.98"/>
        <path id="Path_128" data-name="Path 128" d="M1523.423,465.318c-.856,2.046-6,1.843-11.5-.454s-9.252-5.818-8.4-7.864,6-1.843,11.5.453S1524.278,463.271,1523.423,465.318Z" transform="translate(-1475.422 -430.828)" fill="#48443e"/>
      </g>
      <g id="Group_97" data-name="Group 97" transform="translate(2.671 0)">
        <g id="Group_96" data-name="Group 96" transform="translate(0)">
          <path id="Path_129" data-name="Path 129" d="M1447.135,242.352l0-.007a32.667,32.667,0,0,0-38.6-20.873l-.052.013c-.693.162-1.39.359-2.073.585l-.419.139c-.069.023-.136.046-.2.07a32.67,32.67,0,0,0,7.172,63.417,3.575,3.575,0,0,0,4.48,2.174l19.058-6.314a3.575,3.575,0,0,0,2.267-4.513c-.008-.025-.017-.05-.026-.075a32.7,32.7,0,0,0,9.084-32.423l-.012-.044c-.142-.514-.3-1.044-.479-1.575C1447.268,242.733,1447.2,242.542,1447.135,242.352Z" transform="translate(-1383.643 -220.524)" fill="#fff"/>
          <path id="Path_130" data-name="Path 130" d="M1564.8,542.842l-19.057,6.313a3.571,3.571,0,0,0,1.336,6.955l3.462,6.343a4.762,4.762,0,0,0,5.539,2.185l9.706-3.215a4.763,4.763,0,0,0,3.139-5.06l-1.012-7.165a3.571,3.571,0,0,0-3.112-6.356Z" transform="translate(-1509.55 -474.567)" fill="#fff"/>
        </g>
        <path id="Path_131" data-name="Path 131" d="M1493.382,234.272a.25.25,0,0,1,.038-.014l.125-.042q.946-.313,1.9-.536-.934.233-1.865.527Z" transform="translate(-1470.185 -230.899)" fill="#557ec2"/>
        <path id="Path_132" data-name="Path 132" d="M1439.09,435.979a30.55,30.55,0,0,1-38.382-19.465,2.681,2.681,0,0,0,5.224-.785c.028.084.058.166.091.246a1.986,1.986,0,0,0,.063.231,2.479,2.479,0,0,0,.182.423c5.64,14.531,19.617,22.991,32.333,19.484.09-.023.18-.046.269-.074S1439.017,436,1439.09,435.979Z" transform="translate(-1397.1 -374.467)" fill="#e0f6fe"/>
        <path id="Path_133" data-name="Path 133" d="M1414.393,235.651l.059-.019a.182.182,0,0,0-.033.009l-.192.064c-.056.019-.111.037-.166.057a30.55,30.55,0,0,0-19.168,38.534,2.681,2.681,0,0,0,5.224-.785c.028.084.058.166.091.246a2.043,2.043,0,0,0,.063.231,2.528,2.528,0,0,0,.182.423,2.68,2.68,0,0,0,5.034-1.051c0-.035.006-.071.008-.1.01.045.024.087.039.132a3.26,3.26,0,0,0,.4.816c.023.055.045.109.071.164a3.347,3.347,0,0,0,5.863-3.027.148.148,0,0,1,.012.029v0q.285.768.584,1.515v0a4.009,4.009,0,0,0,7.353-2.625c.053.13.108.256.168.379A5.64,5.64,0,0,0,1430.712,268v0a5.217,5.217,0,0,0-.158-1.123,4.012,4.012,0,0,0,7.393-2l0,0c-.1-.391-.208-.784-.319-1.179-.04-.147-.082-.3-.124-.442-.032-.114-.065-.23-.1-.344-.018-.059-.035-.12-.052-.181l-.011-.034c-.016-.057-.034-.116-.053-.174v0c-.03-.1-.062-.207-.093-.312,0,0,0-.006,0-.01a.593.593,0,0,1-.018-.061c-.081-.265-.166-.533-.25-.8-.091-.286-.184-.576-.28-.865C1431.377,244.57,1421.455,233.535,1414.393,235.651Zm19.116,58.032c-.056.016-.115.034-.171.052h0c-.122.036-.241.071-.362.1-.061.018-.123.036-.187.053.09-.023.18-.046.269-.074.074-.018.147-.038.221-.06.057-.016.111-.034.167-.053l.193-.064a.164.164,0,0,0,.031-.013Zm5.4-24.471q-.127-.709-.282-1.423Q1438.779,268.5,1438.91,269.212Zm.355,2.1c-.021-.134-.041-.269-.062-.4-.016-.106-.035-.211-.052-.317C1439.191,270.832,1439.228,271.071,1439.265,271.31Zm-.228-1.394c-.011-.059-.019-.117-.029-.175-.032-.177-.064-.353-.1-.529C1438.954,269.447,1439,269.682,1439.037,269.916Zm-5.009,11.884c.017.09.033.179.047.268-.011-.066-.022-.133-.033-.2-.019-.11-.04-.221-.059-.332C1434,281.623,1434.013,281.712,1434.028,281.8Zm.183,1.109c.029.182.057.36.082.538.011.068.02.134.031.2-.047-.33-.1-.667-.155-1.011C1434.184,282.727,1434.2,282.818,1434.212,282.909Zm.323,2.334c-.007-.062-.014-.123-.021-.185-.015-.1-.027-.209-.039-.314C1434.495,284.913,1434.516,285.079,1434.535,285.243Z" transform="translate(-1391.285 -232.249)" fill="#ffb267"/>
        <path id="Path_134" data-name="Path 134" d="M1611.62,335.7a30.556,30.556,0,0,1-17.6,36.249c.183-.081.365-.163.546-.248l.022-.009c.173-.082.346-.166.517-.254l.04-.02c.164-.083.325-.168.488-.255s.324-.177.484-.267l.116-.067c.146-.084.29-.169.43-.256.161-.1.32-.2.477-.3.048-.029.094-.06.142-.091.115-.074.229-.152.344-.23.311-.212.615-.431.913-.659.065-.048.126-.1.187-.144.136-.105.272-.213.406-.324.12-.1.237-.192.353-.293.037-.03.073-.06.11-.092.121-.1.24-.209.359-.315l.022-.02c.144-.13.289-.263.43-.4,0,0,0,0,0,0,.118-.11.235-.222.348-.336s.241-.238.361-.362l.159-.166q.547-.569,1.054-1.18c.058-.068.115-.138.172-.208s.13-.159.195-.24.127-.16.191-.243.126-.162.189-.248.126-.164.187-.249c.123-.166.243-.334.362-.505q.465-.662.89-1.359c.093-.149.183-.3.271-.453.115-.2.227-.4.339-.6.093-.169.185-.34.275-.512.116-.223.229-.445.34-.674.071-.148.144-.3.214-.45.189-.4.367-.814.538-1.232.06-.147.12-.3.179-.447.02-.049.039-.1.059-.153.059-.151.115-.3.171-.458.05-.132.1-.263.141-.4.034-.092.063-.184.095-.277s.069-.2.1-.3q.062-.178.115-.359c.013-.042.026-.084.039-.126.052-.16.1-.32.145-.482.02-.069.039-.138.057-.208.04-.136.076-.27.112-.4.051-.188.1-.376.146-.567.031-.126.062-.252.09-.38.044-.19.088-.381.127-.572.028-.125.055-.25.078-.375.017-.086.035-.17.049-.255.026-.124.05-.248.07-.373s.042-.237.062-.357c.014-.08.026-.158.037-.237.022-.123.039-.245.059-.367s.034-.234.049-.35c.013-.1.027-.2.041-.3s.024-.2.034-.292c.019-.16.037-.32.053-.479.022-.2.041-.408.058-.611,0-.062.011-.122.015-.183.012-.171.026-.345.036-.517.014-.219.026-.438.035-.66s.019-.442.023-.664.008-.446.008-.668,0-.447,0-.671-.009-.436-.017-.654c-.016-.438-.038-.876-.073-1.314-.017-.219-.036-.44-.057-.66,0-.045-.007-.089-.011-.134-.042-.436-.091-.872-.151-1.311q-.044-.33-.1-.661a.114.114,0,0,0-.006-.031c-.032-.227-.07-.453-.111-.68q-.118-.686-.269-1.374-.07-.344-.155-.69c-.052-.23-.11-.458-.17-.687s-.116-.46-.184-.69a.017.017,0,0,1,0-.009l0-.006a2.7,2.7,0,0,0-.106-.488,2.4,2.4,0,0,0,4.256-1.107Z" transform="translate(-1549.55 -311.356)" fill="#e0f6fe"/>
        <path id="Path_135" data-name="Path 135" d="M1539.687,250.36q.251.755.459,1.513v0a2.4,2.4,0,0,1-4.256,1.107,2.706,2.706,0,0,1,.107.488c-.052-.188-.1-.373-.162-.561v0c-.026-.094-.052-.187-.084-.282l-.009-.028s0,0,0,0c-.02-.067-.041-.136-.063-.2-.064-.213-.132-.424-.2-.637-.034-.1-.067-.2-.1-.3v0q-.479-1.415-1.063-2.754c-.095-.225-.195-.446-.3-.666s-.2-.441-.309-.657-.21-.432-.32-.644-.216-.43-.332-.638-.224-.42-.341-.626-.234-.415-.354-.618-.231-.389-.348-.581c-.013-.02-.025-.043-.039-.063-.107-.176-.218-.351-.327-.524-.021-.029-.04-.06-.059-.092-.116-.175-.23-.353-.349-.528-.131-.193-.261-.386-.4-.575s-.252-.36-.383-.537c-.02-.027-.039-.052-.056-.077-.124-.171-.25-.338-.379-.5-.137-.184-.279-.364-.422-.541s-.285-.357-.432-.532-.291-.349-.441-.52-.3-.343-.45-.51q-.45-.5-.918-.976c-.007-.009-.017-.017-.024-.025-.145-.15-.294-.3-.442-.444a.524.524,0,0,1-.039-.036c-.151-.148-.3-.294-.457-.437s-.292-.273-.444-.407c-.052-.048-.1-.1-.157-.142q-.185-.166-.376-.33c-.01-.01-.022-.019-.034-.029-.157-.138-.317-.271-.479-.4s-.337-.278-.51-.412-.325-.255-.491-.38c-.211-.159-.423-.316-.639-.47-.144-.106-.289-.209-.438-.309-.18-.123-.357-.243-.537-.361-.088-.06-.179-.119-.269-.176s-.2-.128-.3-.19l-.245-.15c-.2-.122-.4-.239-.594-.355l-.23-.131c-.185-.106-.37-.209-.557-.308l-.281-.148c-.094-.049-.188-.1-.281-.145s-.187-.1-.283-.142c-.471-.233-.946-.45-1.428-.654-.1-.042-.191-.081-.289-.12s-.188-.076-.281-.116q-.464-.18-.93-.347c-.178-.063-.357-.124-.539-.182-.127-.042-.254-.083-.382-.123-.07-.022-.139-.043-.208-.063a24.566,24.566,0,0,0-3.236-.741c-.1-.018-.2-.031-.305-.046a22.864,22.864,0,0,0-3.669-.234c-.051,0-.1,0-.152,0-.155,0-.309.009-.463.015a21.992,21.992,0,0,0-3.977.545,30.552,30.552,0,0,1,36.112,19.519v0C1539.565,250,1539.627,250.177,1539.687,250.36Z" transform="translate(-1478.077 -227.529)" fill="#ffb267"/>
        <path id="Path_136" data-name="Path 136" d="M1459.344,435.157c-12.715,3.507-26.692-4.953-32.332-19.484a2.68,2.68,0,0,0,5.034-1.051c0-.035.005-.071.008-.1a1.325,1.325,0,0,0,.039.132,3.246,3.246,0,0,0,.4.816c.022.055.045.109.07.164C1438.286,429.282,1449.638,437.691,1459.344,435.157Z" transform="translate(-1417.845 -373.511)" fill="#a2dee1"/>
        <path id="Path_137" data-name="Path 137" d="M1588.022,469.369c-.018-.163-.04-.329-.06-.5.012.105.025.21.04.314C1588.009,469.247,1588.015,469.307,1588.022,469.369Z" transform="translate(-1544.773 -416.375)" fill="#ff4c2e"/>
        <path id="Path_138" data-name="Path 138" d="M1586.564,459.17c-.015-.091-.027-.182-.042-.274.076.458.142.9.2,1.339-.024-.175-.049-.349-.076-.527S1586.593,459.352,1586.564,459.17Z" transform="translate(-1543.637 -408.509)" fill="#ff4c2e"/>
        <path id="Path_139" data-name="Path 139" d="M1585.51,452.95c-.03-.177-.062-.353-.092-.535.035.2.071.4.105.6.011.067.023.135.033.2C1585.543,453.128,1585.527,453.04,1585.51,452.95Z" transform="translate(-1542.767 -403.398)" fill="#ff4c2e"/>
        <path id="Path_140" data-name="Path 140" d="M1609.994,401.381q-.077-.525-.169-1.055c.02.112.036.224.055.336C1609.92,400.9,1609.957,401.142,1609.994,401.381Z" transform="translate(-1562.015 -362.32)" fill="#ff4c2e"/>
        <path id="Path_141" data-name="Path 141" d="M1608.949,395.392c.034.176.066.352.1.529.01.059.018.116.029.175C1609.036,395.862,1608.993,395.627,1608.949,395.392Z" transform="translate(-1561.324 -358.429)" fill="#ff4c2e"/>
        <path id="Path_142" data-name="Path 142" d="M1607.614,388.66q.154.714.282,1.423Q1607.765,389.375,1607.614,388.66Z" transform="translate(-1560.271 -353.12)" fill="#ff4c2e"/>
        <path id="Path_143" data-name="Path 143" d="M1454.032,260.464c.1.289.19.579.28.865.084.268.169.536.25.8a.592.592,0,0,0,.018.061s0,.009,0,.01c.031.106.063.209.092.313v0c.02.058.037.117.054.174l.011.034c.016.062.034.123.051.181.033.114.068.229.1.344.042.147.084.3.124.442q.167.593.32,1.179v0a4.012,4.012,0,0,1-7.393,2,5.2,5.2,0,0,1,.158,1.123v0a5.641,5.641,0,0,1-10.724,2.644c-.06-.122-.116-.249-.168-.378a4.009,4.009,0,0,1-7.353,2.625v0q-.3-.746-.584-1.515v0a.167.167,0,0,0-.012-.029,3.347,3.347,0,0,1-5.864,3.027c-.025-.054-.047-.109-.07-.164a3.232,3.232,0,0,1-.4-.816,1.19,1.19,0,0,1-.039-.132c0,.034,0,.07-.008.1a2.68,2.68,0,0,1-5.034,1.051c-.084-.215-.169-.434-.246-.654-.033-.08-.062-.162-.09-.246-.1-.28-.2-.564-.295-.849s-.185-.571-.271-.857c-4.667-15.326,1.492-30.981,14.037-35.858.061-.025.122-.047.181-.069.117-.045.233-.088.353-.132h0c.057-.019.113-.04.169-.061l.1-.033C1438.845,233.535,1448.767,244.57,1454.032,260.464Z" transform="translate(-1408.675 -232.249)" fill="#ff4c2e"/>
        <path id="Path_144" data-name="Path 144" d="M1600.535,343.319c.064.231.126.46.184.69s.116.458.17.687.106.459.155.69c.1.457.188.917.269,1.374.04.227.076.453.112.68a.148.148,0,0,1,.006.031c.033.22.066.441.1.66.057.437.108.875.151,1.311,0,.045.007.089.011.134.02.221.039.442.056.661.032.44.057.877.073,1.314.008.218.013.437.016.654s.006.448,0,.671,0,.446-.008.668-.013.443-.023.664-.021.441-.035.66c-.01.173-.024.346-.036.517,0,.062-.011.122-.015.183-.017.2-.036.408-.058.611-.016.159-.035.319-.053.479-.01.1-.022.195-.035.292s-.028.2-.041.3c-.015.116-.032.233-.049.35s-.037.244-.059.367c-.011.08-.023.157-.037.237-.02.12-.042.239-.062.357s-.045.248-.071.373c-.014.085-.033.169-.05.255-.022.126-.05.251-.077.375-.04.191-.083.382-.127.572-.029.128-.059.253-.09.38-.046.191-.095.379-.146.567-.035.134-.072.268-.111.4-.019.071-.038.14-.057.208-.047.162-.094.323-.146.482-.013.042-.026.084-.038.126-.036.121-.075.241-.115.359-.031.1-.064.2-.1.3s-.061.185-.095.277c-.045.133-.093.264-.14.4-.056.154-.113.307-.172.457-.02.054-.039.1-.058.153-.059.151-.12.3-.179.447-.172.417-.349.828-.539,1.231-.07.151-.143.3-.214.45-.111.228-.225.451-.34.674-.09.172-.183.343-.276.512q-.167.3-.339.6c-.088.152-.177.3-.271.453q-.423.7-.891,1.359-.178.257-.362.505c-.061.085-.125.168-.187.249s-.125.168-.19.248-.126.162-.191.243-.129.161-.194.24-.114.14-.172.208q-.509.61-1.054,1.18l-.159.166c-.119.124-.24.244-.361.362s-.23.226-.347.336c0,0,0,0,0,0q-.213.2-.429.4c-.009.007-.016.014-.023.021-.118.106-.237.21-.359.315-.036.032-.073.062-.11.092-.117.1-.233.2-.353.293-.135.112-.27.219-.407.324-.06.049-.122.1-.186.144q-.448.342-.913.659c-.115.078-.229.154-.344.23-.048.032-.093.062-.141.091-.157.1-.316.2-.477.3q-.211.13-.43.256c-.037.021-.076.045-.116.067-.159.091-.321.18-.484.267s-.324.172-.488.255l-.04.02c-.172.088-.344.172-.518.254-.006,0-.013.007-.022.009q-.272.127-.545.248l-.049.021q-.888.372-1.811.691c.3-.107.6-.224.9-.353.133-.057.264-.116.4-.179.023-.01.043-.022.065-.031q.2-.1.4-.2c.122-.063.241-.127.359-.193.031-.019.066-.037.1-.056q.175-.1.347-.2c.015-.009.028-.018.041-.025.116-.072.231-.143.344-.217l.083-.054c.118-.079.234-.16.352-.241s.241-.173.359-.261c.24-.182.475-.368.706-.565.045-.037.09-.077.135-.116.083-.072.165-.146.246-.219.033-.031.066-.06.1-.093.1-.091.2-.184.295-.28s.2-.2.294-.293c.03-.03.059-.062.09-.092.093-.1.186-.2.277-.3s.167-.184.251-.281c.052-.058.1-.117.152-.178a.221.221,0,0,0,.021-.024c.078-.093.156-.188.234-.282.107-.134.212-.266.317-.4.087-.115.173-.233.258-.35.108-.149.216-.3.323-.459.19-.279.373-.567.552-.86.089-.147.176-.295.262-.446.094-.167.188-.334.28-.5.059-.111.118-.224.176-.336.024-.048.05-.1.076-.148.06-.12.118-.242.18-.365.006-.013.012-.029.021-.045.072-.153.145-.309.214-.463.085-.186.166-.373.248-.563.272-.651.523-1.325.748-2.02.059-.178.115-.357.167-.537s.107-.363.16-.547c.047-.167.091-.331.132-.5.012-.04.022-.081.031-.122.04-.149.076-.3.111-.446q.127-.533.237-1.08.042-.207.079-.421.245-1.3.383-2.67c.018-.166.034-.334.048-.5.006-.051.009-.1.011-.153.014-.154.025-.307.036-.462,0-.053.008-.1.01-.157.012-.158.022-.317.029-.477s.017-.326.022-.491c.005-.146.012-.3.014-.443,0-.079.006-.158.006-.238,0-.188.008-.379.007-.57,0-.23,0-.461,0-.694,0-.2-.006-.4-.011-.607,0-.046,0-.091,0-.137-.007-.176-.012-.354-.023-.532-.056-1.279-.176-2.582-.364-3.9-.021-.167-.046-.332-.072-.5-.009-.053-.015-.106-.025-.158-.021-.151-.047-.3-.072-.455-.027-.167-.056-.336-.087-.5-.007-.042-.015-.086-.024-.128-.026-.152-.055-.3-.085-.457s-.056-.3-.088-.447c-.009-.046-.02-.094-.028-.14-.036-.175-.073-.348-.111-.524-.026-.118-.052-.236-.079-.354-.012-.058-.028-.115-.042-.173-.038-.175-.08-.348-.122-.523,0-.019-.011-.039-.015-.057v0a3.56,3.56,0,0,0-.153-1.443,2.849,2.849,0,0,0,5.052-2.113Z" transform="translate(-1542.613 -317.363)" fill="#a2dee1"/>
        <path id="Path_145" data-name="Path 145" d="M1528.326,252.963c.07.213.138.424.2.637.022.066.043.135.063.2,0,0,0,0,0,0l.009.028c.031.094.058.188.084.282v0c.058.188.11.373.161.561l0,.006a.015.015,0,0,0,0,.009,2.849,2.849,0,0,1-5.052,2.113,3.578,3.578,0,0,1,.153,1.444c-.05-.206-.1-.413-.156-.619-.109-.416-.222-.831-.344-1.247l-.01-.028c-.044-.163-.094-.325-.145-.488-.01-.037-.019-.072-.031-.108l-.02-.06c-.043-.146-.086-.29-.134-.434-.055-.173-.111-.346-.167-.519-5.264-15.888-18.026-25.978-28.621-22.7q.931-.3,1.866-.527l.052-.012a21.942,21.942,0,0,1,3.977-.545c.154-.006.307-.013.462-.015.05,0,.1,0,.152,0a22.882,22.882,0,0,1,3.669.234c.1.015.2.028.3.046a24.59,24.59,0,0,1,3.236.741c.069.019.138.041.207.062.127.04.254.081.382.123.179.058.361.119.539.182q.467.166.93.346c.094.04.188.078.281.116s.193.079.289.12c.482.2.956.42,1.428.654.1.046.189.093.283.142s.188.1.281.145l.281.148c.185.1.373.2.556.308l.23.131c.2.117.4.233.595.355l.245.15c.1.062.2.128.3.19s.181.116.269.176c.18.119.357.238.536.361.147.1.293.2.438.309q.323.231.639.47c.165.126.329.252.492.38s.343.274.511.412.32.268.48.4c.011.01.023.019.033.029.128.109.253.219.377.33.053.047.1.094.156.142q.227.2.444.407c.154.142.305.289.457.436l.038.036c.149.147.3.294.443.443.007.009.017.017.024.025q.468.476.918.976c.151.168.3.337.449.51s.3.343.441.52.29.352.433.532.284.36.421.542c.129.167.253.335.379.5.018.025.037.05.057.077.128.178.256.356.383.537s.265.382.4.575c.119.175.233.353.348.528.02.032.039.063.06.092.108.173.219.348.326.524.013.02.026.043.039.063.117.193.235.385.348.581s.239.411.354.618.229.416.341.626.225.422.332.638.215.427.32.644.207.437.309.657.2.441.3.666q.582,1.341,1.064,2.754v0C1528.259,252.762,1528.292,252.86,1528.326,252.963Z" transform="translate(-1470.927 -228.736)" fill="#ff4c2e"/>
        <path id="Path_146" data-name="Path 146" d="M1586.292,507.287q-.9.391-1.844.7l-.126.042a.276.276,0,0,1-.039.011l.2-.066Q1585.4,507.659,1586.292,507.287Z" transform="translate(-1541.871 -446.671)" fill="#6387c2"/>
        <path id="Path_147" data-name="Path 147" d="M1594.566,360.151c0,.019.011.039.015.057.042.175.084.348.122.523.015.058.029.115.042.173.028.118.054.236.079.354.039.176.076.349.111.524.009.046.02.094.029.14.032.149.061.3.088.447s.059.305.084.457c.009.041.017.086.024.128.031.168.06.336.087.5.026.152.052.3.073.455.01.052.017.106.026.158.025.165.05.331.071.5.188,1.319.307,2.622.364,3.9.01.177.015.356.023.532,0,.046,0,.091,0,.137.005.2.01.407.011.607,0,.232,0,.464,0,.694,0,.191,0,.382-.007.57,0,.08,0,.159-.006.238,0,.148-.009.3-.013.443-.006.164-.014.328-.022.491s-.017.319-.029.477c0,.052-.006.1-.01.157-.012.155-.023.308-.036.462,0,.052-.006.1-.012.153-.013.167-.029.335-.047.5q-.139,1.366-.383,2.67c-.024.142-.052.282-.079.42q-.109.547-.236,1.08c-.035.15-.073.3-.111.446-.009.041-.02.082-.031.122-.043.166-.086.331-.132.5-.052.185-.1.366-.159.547s-.11.36-.168.537c-.224.7-.475,1.369-.747,2.02-.082.19-.162.377-.247.563-.069.154-.142.31-.214.463-.008.016-.014.031-.021.045-.062.123-.12.244-.18.365-.025.051-.052.1-.076.147-.058.113-.117.226-.176.337-.093.171-.187.338-.281.5-.086.151-.173.3-.262.446-.179.293-.362.581-.552.86-.107.156-.214.309-.323.459-.086.118-.172.235-.258.35-.1.135-.21.268-.317.4-.078.095-.156.19-.233.282l-.021.024c-.049.061-.1.12-.153.178-.084.1-.167.189-.25.281s-.184.2-.277.3c-.03.03-.06.062-.089.092-.1.1-.2.2-.295.293s-.194.189-.294.28c-.034.033-.067.062-.1.093-.081.073-.163.147-.246.22-.045.039-.09.079-.135.116-.231.2-.465.383-.706.565-.118.088-.238.177-.358.262s-.234.162-.352.241l-.083.054c-.113.073-.228.145-.344.217-.013.007-.026.015-.041.025q-.172.1-.348.2c-.031.019-.065.037-.1.056-.118.066-.238.13-.359.192s-.263.134-.4.2l-.065.031c-.131.063-.263.122-.4.179-.294.129-.594.245-.9.353l-.287.1c.1-.035.2-.074.3-.116l.025-.011c.086-.037.169-.076.253-.117l.011,0c.091-.046.18-.091.269-.141s.18-.1.269-.156l.111-.07c.051-.033.1-.068.155-.1.087-.06.172-.121.258-.185s.168-.129.25-.2l.177-.152c.089-.078.176-.161.264-.246.042-.041.085-.084.126-.129s.061-.06.089-.091.085-.091.127-.139.083-.092.125-.141.082-.1.121-.145.082-.1.121-.151.07-.09.107-.135c.052-.069.1-.139.155-.212s.1-.144.15-.217c.069-.1.138-.208.205-.317s.119-.2.178-.3a.3.3,0,0,0,.018-.033c.063-.106.123-.214.181-.325l.01-.019c.062-.116.121-.234.181-.354.032-.064.063-.128.093-.191.046-.1.091-.2.134-.294s.088-.2.131-.3.091-.221.136-.337.083-.217.123-.328c.035-.094.07-.19.1-.288.052-.146.1-.3.148-.448.025-.079.051-.161.075-.245.078-.255.149-.517.219-.785.057-.217.11-.44.16-.666,0-.019.009-.041.014-.06.03-.137.058-.273.087-.414q.085-.419.158-.854c.013-.082.027-.165.04-.247.049-.3.092-.611.13-.927.019-.144.035-.29.052-.436,0-.018,0-.035,0-.053.018-.166.033-.334.051-.5.018-.188.033-.377.046-.568s.03-.382.039-.576c.009-.141.015-.283.021-.426s.013-.285.017-.431q.04-1.082.017-2.221c0-.186-.009-.376-.015-.565s-.013-.379-.022-.57c0-.037,0-.073,0-.11-.009-.2-.019-.4-.033-.6,0,0,0,0,0-.007-.024-.4-.055-.81-.089-1.222-.021-.229-.042-.463-.066-.693-.015-.162-.031-.326-.05-.489-.012-.117-.023-.233-.038-.35-.041-.374-.09-.748-.141-1.127-.026-.19-.053-.381-.081-.572-.01-.079-.022-.155-.033-.234-.036-.24-.072-.479-.115-.719-.019-.112-.036-.224-.055-.336s-.038-.226-.059-.339c-.01-.059-.019-.117-.029-.175-.032-.176-.063-.353-.1-.529-.085-.473-.18-.947-.282-1.423s-.208-.958-.321-1.439c-.055-.242-.113-.483-.173-.726l-.188-.75v0a3.956,3.956,0,0,0-.2-1.4,3.611,3.611,0,0,0,6.564-1.7Z" transform="translate(-1541.542 -330.637)" fill="#e0f6fe"/>
        <path id="Path_148" data-name="Path 148" d="M1609.994,401.381q-.077-.525-.169-1.055c.02.112.036.224.055.336C1609.92,400.9,1609.957,401.142,1609.994,401.381Z" transform="translate(-1562.015 -362.32)" fill="#ffb267"/>
        <path id="Path_149" data-name="Path 149" d="M1609.076,396.1c-.039-.234-.082-.469-.126-.7.034.176.066.352.1.529C1609.057,395.98,1609.065,396.037,1609.076,396.1Z" transform="translate(-1561.324 -358.429)" fill="#ffb267"/>
        <path id="Path_150" data-name="Path 150" d="M1607.9,390.083q-.131-.708-.282-1.423Q1607.768,389.374,1607.9,390.083Z" transform="translate(-1560.271 -353.12)" fill="#ffb267"/>
        <path id="Path_151" data-name="Path 151" d="M1521.872,256.573c.057.172.113.346.167.519.048.145.091.288.135.434l.02.06c.012.036.022.071.031.108.052.163.1.326.146.488l.01.028c.122.416.235.831.344,1.247.052.205.106.413.156.619v0a3.61,3.61,0,0,1-6.563,1.7,3.951,3.951,0,0,1,.2,1.4c-.1-.391-.208-.784-.32-1.179-.039-.147-.083-.3-.124-.442-.031-.114-.065-.23-.1-.344-.017-.059-.035-.12-.051-.181l-.011-.034c-.016-.057-.034-.116-.053-.174v0c-.03-.1-.062-.207-.093-.312,0,0,0-.006,0-.01a.582.582,0,0,1-.018-.061c-.081-.265-.166-.533-.25-.8-.09-.286-.184-.576-.28-.865-5.266-15.894-15.188-26.929-22.249-24.813l.287-.095C1503.846,230.594,1516.608,240.685,1521.872,256.573Z" transform="translate(-1469.857 -230.563)" fill="#ffb267"/>
        <path id="Path_152" data-name="Path 152" d="M1448.537,235.651l.269-.089-.143.045-.293.1c-.024.008-.05.016-.073.027-.1.038-.2.074-.3.114s-.174.067-.26.1c-10.036,4.059-14,19.487-8.835,35.081.048.145.1.289.148.432q.213.634.447,1.25c.021.053.039.105.06.158v0c.028.075.058.152.087.227.141.372.289.737.441,1.1.022.055.045.109.069.164a3.348,3.348,0,0,0,5.865-3.027.149.149,0,0,1,.012.029v0c.19.512.384,1.017.584,1.515v0a4.009,4.009,0,0,0,7.354-2.625c.052.13.107.256.168.379A5.64,5.64,0,0,0,1464.855,268v0a5.248,5.248,0,0,0-.159-1.123,4.012,4.012,0,0,0,7.393-2l0,0q-.153-.586-.319-1.179c-.04-.147-.083-.3-.124-.442-.031-.114-.065-.23-.1-.344-.018-.059-.035-.12-.051-.181l-.011-.034c-.017-.057-.034-.116-.053-.174v0c-.03-.1-.062-.207-.092-.312,0,0,0-.006,0-.01-.007-.02-.013-.04-.018-.061-.081-.265-.165-.533-.25-.8-.091-.286-.184-.576-.28-.865C1465.521,244.57,1455.6,233.535,1448.537,235.651Zm19.115,58.032c-.056.016-.115.034-.171.052h0c-.122.036-.242.071-.362.1-.061.018-.124.036-.187.053.09-.023.18-.046.27-.074.1-.028.208-.06.313-.09.025-.006.051-.015.075-.022l.293-.1.141-.049Zm5.4-24.471q-.128-.709-.282-1.423Q1472.922,268.5,1473.054,269.212Zm.354,2.1c-.02-.134-.04-.269-.062-.4-.015-.106-.034-.211-.052-.317C1473.334,270.832,1473.371,271.071,1473.408,271.31Zm-.228-1.394c-.01-.059-.019-.117-.029-.175-.032-.177-.064-.353-.1-.529C1473.1,269.447,1473.14,269.682,1473.18,269.916Zm-5.008,11.884c.016.09.032.179.046.268-.011-.066-.022-.133-.033-.2-.018-.11-.04-.221-.059-.332C1468.143,281.623,1468.156,281.712,1468.173,281.8Zm.182,1.109c.03.182.057.36.083.538.011.068.02.134.031.2-.047-.33-.1-.667-.154-1.011C1468.328,282.727,1468.34,282.818,1468.354,282.909Zm.324,2.334c-.007-.062-.014-.123-.021-.185-.014-.1-.027-.209-.039-.314C1468.638,284.913,1468.66,285.079,1468.678,285.243Z" transform="translate(-1425.429 -232.249)" fill="#ffb267"/>
        <path id="Path_153" data-name="Path 153" d="M1480.246,427.956c-.061.018-.124.036-.187.053-9.706,2.534-21.059-5.875-26.78-19.528a3.348,3.348,0,0,0,5.865-3.027.176.176,0,0,1,.012.029v0q.285.768.584,1.514v0C1465.147,420.521,1473.812,429.531,1480.246,427.956Z" transform="translate(-1438.56 -366.363)" fill="#e0f6fe"/>
        <path id="Path_154" data-name="Path 154" d="M1576.8,374.866c.063.251.127.5.189.75s.118.484.173.726c.113.482.221.962.322,1.439s.195.951.282,1.423c.045.235.087.47.126.7.021.113.041.225.059.339s.036.224.055.336c.041.241.077.48.114.719.01.079.022.155.033.234.028.191.055.383.081.573.052.379.1.753.141,1.127.014.118.027.234.038.35.018.163.035.327.051.489.023.231.044.464.065.693.034.412.064.82.088,1.222,0,0,0,0,0,.007.014.2.025.4.033.6,0,.037,0,.072.005.11.01.19.017.38.022.57s.011.377.016.565q.023,1.138-.017,2.221c0,.146-.011.289-.018.431s-.012.285-.021.426c-.009.194-.023.386-.039.576s-.027.379-.045.568c-.017.17-.033.338-.052.5,0,.018,0,.034,0,.053-.017.146-.032.292-.052.436-.038.316-.08.624-.129.927-.013.082-.027.165-.041.247-.049.29-.1.575-.158.854-.028.141-.057.277-.087.414,0,.02-.009.041-.013.06-.052.227-.1.449-.161.666-.069.268-.14.53-.219.785-.023.083-.05.166-.075.245-.047.152-.1.3-.147.448-.032.1-.067.194-.1.288-.039.111-.081.22-.123.328s-.09.226-.135.337-.087.2-.131.3-.089.2-.134.294c-.031.063-.061.127-.093.191-.06.12-.119.238-.181.354l-.01.019c-.059.111-.119.218-.181.325a.236.236,0,0,1-.018.033c-.059.1-.119.2-.178.3s-.136.215-.2.317c-.051.073-.1.147-.151.217s-.1.143-.155.212l-.106.136c-.039.051-.079.1-.121.151s-.081.1-.121.145-.083.1-.125.141-.085.093-.127.138-.058.061-.088.091-.085.088-.127.129c-.087.085-.174.167-.264.245l-.177.152c-.081.07-.164.135-.25.2s-.17.125-.257.185c-.051.035-.1.07-.155.1l-.11.07c-.089.054-.179.106-.269.156s-.178.094-.269.141l-.01,0c-.084.041-.167.08-.253.117l-.025.011c-.1.041-.2.08-.3.116l-.092.031c.021-.009.044-.022.065-.033a.7.7,0,0,0,.1-.055.491.491,0,0,0,.065-.044.806.806,0,0,0,.078-.061s0,0,0,0a.388.388,0,0,0,.037-.035.338.338,0,0,0,.036-.034l.036-.039a.452.452,0,0,0,.035-.041,1.259,1.259,0,0,0,.089-.114c.026-.035.052-.073.076-.112.006-.008.01-.018.016-.027.024-.04.048-.083.071-.128a2.964,2.964,0,0,0,.148-.325q.03-.08.058-.166s0,0,0,0c.021-.063.041-.125.059-.191s.039-.133.056-.2.029-.121.042-.183.022-.107.031-.161.022-.11.031-.166.019-.116.027-.174.018-.119.025-.18.012-.1.017-.148c.014-.1.024-.2.033-.311.008-.089.015-.183.021-.277s.01-.172.014-.261.009-.176.012-.269c0-.065,0-.13.005-.2,0-.119,0-.239,0-.364,0-.183,0-.368,0-.56,0-.071,0-.141-.005-.212s0-.134-.007-.2,0-.134-.008-.2c-.005-.13-.012-.263-.021-.4,0-.016,0-.03,0-.044-.009-.135-.017-.273-.027-.412,0-.072-.011-.146-.015-.22q-.025-.336-.057-.683-.021-.223-.043-.453a.029.029,0,0,1,0-.015q-.036-.359-.081-.728c-.007-.062-.014-.122-.021-.185-.014-.1-.027-.209-.04-.314-.01-.084-.023-.169-.032-.254-.023-.171-.047-.341-.072-.516-.015-.108-.029-.217-.046-.328-.047-.33-.1-.667-.155-1.011-.014-.091-.03-.184-.044-.277a.087.087,0,0,1,0-.025c-.015-.088-.029-.177-.045-.266-.011-.066-.022-.133-.033-.2-.019-.11-.04-.221-.059-.332-.017-.09-.031-.179-.047-.27-.038-.2-.074-.405-.112-.613s-.073-.39-.112-.586q-.171-.892-.369-1.821c-.034-.161-.067-.323-.1-.485-.052-.23-.1-.465-.156-.7s-.105-.473-.163-.712c-.049-.215-.1-.433-.151-.649l-.157-.656c-.053-.221-.108-.441-.162-.664-.116-.465-.234-.934-.358-1.409q-.258-.99-.537-2.011l-.2-.732c-.13-.46-.262-.926-.4-1.393-.079-.279-.162-.558-.244-.839v0a5.245,5.245,0,0,0-.158-1.123,4.011,4.011,0,0,0,7.392-2Z" transform="translate(-1530.142 -342.241)" fill="#a2dee1"/>
        <path id="Path_155" data-name="Path 155" d="M1583.289,511.1a.183.183,0,0,1-.028.011l-.048.016c.014,0,.025-.01.04-.015Z" transform="translate(-1541.028 -449.681)" fill="#ff4c2e"/>
        <path id="Path_156" data-name="Path 156" d="M1588.022,469.369c-.018-.163-.04-.329-.06-.5.012.105.025.21.04.314C1588.009,469.247,1588.015,469.307,1588.022,469.369Z" transform="translate(-1544.773 -416.375)" fill="#ff4c2e"/>
        <path id="Path_157" data-name="Path 157" d="M1586.564,459.17c-.015-.091-.027-.182-.042-.274.076.458.142.9.2,1.339-.024-.175-.049-.349-.076-.527S1586.593,459.352,1586.564,459.17Z" transform="translate(-1543.637 -408.509)" fill="#ff4c2e"/>
        <path id="Path_158" data-name="Path 158" d="M1585.51,452.95c-.03-.177-.062-.353-.092-.535.035.2.071.4.105.6.011.067.023.135.033.2C1585.543,453.128,1585.527,453.04,1585.51,452.95Z" transform="translate(-1542.767 -403.398)" fill="#ff4c2e"/>
        <path id="Path_159" data-name="Path 159" d="M1608.949,395.392c.034.176.066.352.1.529.01.059.018.116.029.175C1609.036,395.862,1608.993,395.627,1608.949,395.392Z" transform="translate(-1561.324 -358.429)" fill="#ff4c2e"/>
        <path id="Path_160" data-name="Path 160" d="M1514.695,260.464c.1.289.189.579.28.865.084.268.169.536.25.8.005.021.011.041.019.061,0,0,0,.009,0,.01.03.106.062.209.092.313v0c.019.058.037.117.052.174l.012.034c.016.062.034.123.051.181.033.114.067.229.1.344.042.147.084.3.124.442q.166.593.32,1.179v0a4.012,4.012,0,0,1-7.393,2,5.265,5.265,0,0,1,.158,1.123c-.068-.227-.135-.456-.205-.687s-.139-.462-.211-.692l-.07-.23c-.119-.386-.241-.776-.363-1.165v0c-.015-.044-.026-.087-.041-.131-.1-.324-.207-.653-.313-.979-.125-.382-.25-.768-.378-1.153-.134-.4-.269-.806-.4-1.2-.118-.342-.235-.684-.352-1.021-.013-.031-.023-.061-.033-.094-.131-.382-.266-.761-.4-1.135-.07-.2-.141-.4-.213-.6s-.142-.4-.214-.593c-.143-.391-.288-.78-.431-1.167-.086-.234-.174-.466-.261-.7-.057-.151-.113-.3-.172-.451-.092-.245-.187-.49-.281-.733l-.337-.857c-.174-.445-.352-.886-.528-1.319-.152-.371-.3-.737-.455-1.1-.075-.18-.15-.36-.227-.537q-.125-.3-.251-.594c-.068-.156-.135-.311-.2-.465-.1-.228-.2-.456-.3-.679-.127-.29-.255-.575-.382-.858-.087-.194-.176-.387-.263-.579-.1-.228-.208-.454-.314-.678-.087-.189-.176-.376-.263-.561-.27-.572-.541-1.13-.811-1.667q-.115-.236-.234-.464c-.171-.342-.344-.674-.516-1-.085-.163-.169-.323-.255-.481-.1-.193-.206-.384-.309-.572-.066-.118-.129-.235-.195-.352l-.179-.317c-.063-.111-.124-.22-.186-.326-.188-.325-.373-.64-.558-.942-.036-.062-.073-.123-.112-.181-.2-.328-.4-.639-.593-.937-.038-.061-.077-.119-.117-.178-.348-.526-.687-1.006-1.018-1.433-.036-.048-.072-.1-.11-.142s-.073-.092-.108-.138c-.065-.081-.129-.16-.192-.237-.215-.258-.425-.5-.63-.706l-.1-.1c-.017-.017-.033-.031-.048-.049l-.068-.064c-.1-.1-.2-.187-.292-.271-.031-.027-.063-.055-.1-.082-.063-.055-.126-.105-.188-.151-.031-.025-.06-.047-.092-.07-.057-.044-.114-.082-.171-.119a.014.014,0,0,1-.006,0l-.162-.1-.017-.01c-.049-.028-.1-.054-.146-.078a.265.265,0,0,0-.03-.015c-.042-.021-.087-.042-.131-.059a1.419,1.419,0,0,0-.155-.058.948.948,0,0,0-.131-.039c-.027-.007-.052-.012-.079-.016a1.53,1.53,0,0,0-.228-.024h-.04a1.094,1.094,0,0,0-.112.008.545.545,0,0,0-.057.008c-.027,0-.053.009-.08.015l-.005,0-.042.011.048-.016a.171.171,0,0,1,.029-.007l.062-.021C1499.507,233.535,1509.429,244.57,1514.695,260.464Z" transform="translate(-1469.337 -232.249)" fill="#ff4c2e"/>
        <path id="Path_161" data-name="Path 161" d="M1504.716,423.831c-.122.036-.242.071-.362.1-6.434,1.575-15.1-7.434-20.5-20.955a4.009,4.009,0,0,0,7.353-2.625c.052.13.108.256.168.379C1496.322,414.451,1502.008,424.414,1504.716,423.831Z" transform="translate(-1462.668 -362.342)" fill="#a2dee1"/>
        <path id="Path_162" data-name="Path 162" d="M1581.222,511.213c.056-.019.115-.036.172-.052l-.039.015-.028.009c-.057.019-.111.037-.168.053-.073.022-.147.042-.221.06a.627.627,0,0,1-.083.021c.121-.034.24-.068.362-.1Z" transform="translate(-1539.169 -449.726)" fill="#ff4c2e"/>
        <path id="Path_163" data-name="Path 163" d="M1587.962,468.87c.012.105.025.21.04.314.007.062.013.123.021.185C1588,469.206,1587.982,469.039,1587.962,468.87Z" transform="translate(-1544.773 -416.375)" fill="#ff4c2e"/>
        <path id="Path_164" data-name="Path 164" d="M1586.522,458.9c.076.458.142.9.2,1.339-.024-.175-.049-.349-.076-.527s-.054-.356-.082-.538C1586.549,459.079,1586.537,458.987,1586.522,458.9Z" transform="translate(-1543.637 -408.509)" fill="#ff4c2e"/>
        <path id="Path_165" data-name="Path 165" d="M1585.418,452.415c.035.2.071.4.105.6.011.067.023.135.033.2-.014-.089-.03-.177-.046-.268C1585.481,452.773,1585.448,452.6,1585.418,452.415Z" transform="translate(-1542.767 -403.398)" fill="#ff4c2e"/>
        <path id="Path_166" data-name="Path 166" d="M1483.188,263.922c.128.385.253.771.378,1.153.105.326.21.654.313.979.014.044.026.087.041.131v0c.123.389.245.778.364,1.164q.035.115.069.231.108.345.212.692c.069.231.137.46.205.687v0a5.64,5.64,0,0,1-10.723,2.644c-.061-.122-.116-.249-.168-.379a4.009,4.009,0,0,1-7.354,2.625v0c-.2-.5-.394-1-.584-1.514v0a.113.113,0,0,0-.012-.029c-.036-.1-.07-.195-.106-.295q-.384-1.028-.734-2.095c-5.191-15.667-3.936-30.25,2.74-33.071a.674.674,0,0,1,.079-.033c.071-.03.141-.058.213-.084.055-.02.11-.038.166-.057l.028-.009.042-.011.006,0c.026-.007.052-.011.08-.015a.567.567,0,0,1,.057-.008,1.077,1.077,0,0,1,.111-.008h.04a1.542,1.542,0,0,1,.229.024c.026,0,.052.01.078.016a1.272,1.272,0,0,1,.131.039,1.388,1.388,0,0,1,.155.058c.043.017.088.038.131.059a.322.322,0,0,1,.03.015c.048.024.1.05.146.078l.017.01.162.1s0,0,.006,0c.057.037.112.076.172.119.029.021.061.044.091.07.063.046.125.1.188.151.033.027.065.054.1.082.1.084.193.174.292.271l.068.064a.637.637,0,0,0,.047.049l.1.1c.206.21.415.448.63.706.063.077.128.156.192.237.036.046.073.091.108.138s.073.094.109.142c.33.427.67.907,1.018,1.433.039.058.079.117.116.178.2.3.393.609.593.937.038.059.075.12.112.181.185.3.369.617.557.942.062.106.123.215.186.326l.179.317c.065.116.128.234.194.352.1.188.208.379.309.572.087.159.17.318.255.481.172.324.345.656.516,1q.119.228.234.464c.269.536.541,1.094.811,1.667.087.185.176.371.263.561q.157.335.314.678c.087.191.176.385.263.579.127.283.255.568.382.858.1.224.2.451.3.679.066.154.134.31.2.465.085.2.168.394.252.594.076.177.152.357.227.537.152.364.3.731.455,1.1.176.434.354.874.528,1.319l.337.857c.094.243.188.488.281.733.058.15.114.3.171.451.088.231.176.463.262.7q.216.58.432,1.167c.072.2.143.393.214.593s.142.4.213.6c.133.375.267.753.4,1.135.011.032.02.062.033.094l.351,1.021C1482.918,263.116,1483.053,263.519,1483.188,263.922Z" transform="translate(-1445.345 -233.217)" fill="#ff4c2e"/>
        <path id="Path_167" data-name="Path 167" d="M1530.155,389.638c.082.28.165.56.244.839.137.467.269.933.4,1.393l.2.732q.281,1.019.537,2.011c.124.475.242.944.358,1.409.054.223.109.443.162.664l.157.656c.052.217.1.434.15.649.056.237.111.475.163.712s.1.469.155.7c.036.162.07.324.1.485q.2.93.369,1.821c.039.2.077.393.113.586s.074.412.112.613c.031.181.063.358.093.535.016.09.032.179.046.268s.03.177.046.266a.107.107,0,0,0,0,.025c.015.093.031.186.045.277s.028.183.042.273c.029.182.057.36.083.538s.052.352.076.527.048.345.071.515c.01.086.023.17.033.254.02.169.042.335.061.5.028.247.055.489.08.728a.03.03,0,0,0,0,.015q.022.23.043.453c.021.232.041.459.057.683,0,.074.011.148.015.22.01.139.018.277.028.412,0,.014,0,.029,0,.044.009.133.015.267.021.4q0,.105.007.2c0,.068,0,.134.007.2s0,.141.006.212c0,.192,0,.377,0,.56,0,.125,0,.245,0,.364,0,.068,0,.133-.006.2,0,.092-.007.181-.011.269s-.009.174-.014.261-.014.187-.021.277c-.009.108-.02.211-.033.311-.006.051-.011.1-.017.149s-.016.121-.025.179-.017.117-.027.174-.019.111-.03.166-.02.109-.031.161-.029.123-.042.183-.035.136-.055.2-.038.129-.06.191c0,0,0,0,0,0-.019.058-.038.113-.059.167a2.823,2.823,0,0,1-.148.325,1.43,1.43,0,0,1-.071.128c-.006.009-.009.019-.015.027-.025.039-.05.077-.076.112s-.059.079-.09.114c-.011.014-.024.028-.035.041l-.036.039a.353.353,0,0,1-.036.034.43.43,0,0,1-.038.035s0,0,0,0a.884.884,0,0,1-.078.061.481.481,0,0,1-.065.044.7.7,0,0,1-.1.055c-.021.011-.043.023-.065.032l-.007,0c-.056.016-.115.033-.171.052l0,0c-2.708.583-8.394-9.38-13.346-23.1a5.641,5.641,0,0,0,10.724-2.644Z" transform="translate(-1490.728 -353.891)" fill="#e0f6fe"/>
        <path id="Path_168" data-name="Path 168" d="M1582.586,511.213c.056-.019.114-.036.171-.052l-.039.015-.028.009c-.024.008-.05.017-.075.023Z" transform="translate(-1540.534 -449.726)" fill="#ffb267"/>
        <path id="Path_169" data-name="Path 169" d="M1587.962,468.87c.012.105.025.21.04.314.007.062.013.123.021.185C1588,469.206,1587.982,469.039,1587.962,468.87Z" transform="translate(-1544.773 -416.375)" fill="#ffb267"/>
        <path id="Path_170" data-name="Path 170" d="M1585.856,454.945c.006.023.009.046.013.067l.033.2C1585.888,455.124,1585.872,455.036,1585.856,454.945Z" transform="translate(-1543.113 -405.393)" fill="#ffb267"/>
        <path id="Path_171" data-name="Path 171" d="M1501.991,263.922c.128.385.253.771.378,1.153.1.326.209.654.313.979.014.044.026.087.041.131v0c.122.389.244.778.364,1.164.022.077.047.154.069.231q.107.345.212.692c.069.231.137.46.2.687v0a5.641,5.641,0,0,1-10.724,2.644l-.185-.52-.211-.6c-.1-.273-.193-.546-.288-.822q-.383-1.106-.759-2.238c-5.242-15.824-7.192-29.451-4.421-30.714h0l.026-.013c.024-.01.05-.019.074-.027l.028-.009.041-.011.006,0c.027-.007.053-.011.08-.015a.548.548,0,0,1,.057-.008,1.054,1.054,0,0,1,.111-.008h.04a1.542,1.542,0,0,1,.229.024c.026,0,.052.01.079.016a1.32,1.32,0,0,1,.131.039,1.425,1.425,0,0,1,.155.058c.043.017.089.038.131.059a.263.263,0,0,1,.029.015c.048.024.1.05.146.078l.017.01c.053.032.107.065.162.1,0,0,0,0,.006,0,.057.037.112.076.171.119.029.021.061.044.092.07.063.046.126.1.188.151.034.027.065.054.1.082.1.084.193.174.292.271l.068.064a.533.533,0,0,0,.048.049l.1.1c.206.21.416.448.631.706.063.077.127.156.192.237.035.046.073.091.108.138s.073.094.109.142c.33.427.67.907,1.018,1.433.039.058.078.117.116.178.2.3.393.609.593.937.038.059.076.12.112.181.185.3.369.617.557.942.062.106.123.215.186.326l.178.317c.066.116.129.234.195.352q.157.282.31.572c.085.159.169.318.255.481.172.324.345.656.515,1,.079.152.158.306.234.464.269.536.541,1.094.811,1.667.088.185.176.371.263.561q.158.335.314.678c.088.191.177.385.262.579.127.283.255.568.382.858.1.224.2.451.3.679l.2.465c.085.2.168.394.252.594.077.177.152.357.227.537.152.364.3.731.454,1.1q.266.65.528,1.319.167.426.337.857c.093.243.188.488.281.733.059.15.115.3.172.451.087.231.176.463.262.7.144.387.288.775.431,1.167.073.2.144.393.214.593s.142.4.213.6c.133.375.267.753.4,1.135.011.032.021.062.033.094.116.338.234.68.351,1.021C1501.722,263.116,1501.858,263.519,1501.991,263.922Z" transform="translate(-1464.149 -233.217)" fill="#ffb267"/>
        <path id="Path_172" data-name="Path 172" d="M1552.876,486.207a1.457,1.457,0,0,0-1.842-.925l-19.057,6.313a1.457,1.457,0,0,0-.925,1.842h0a1.457,1.457,0,0,0,1.842.925l19.058-6.314a1.456,1.456,0,0,0,.925-1.841Z" transform="translate(-1499.835 -429.259)" fill="#ffb267"/>
        <path id="Path_173" data-name="Path 173" d="M1574.366,568.114l-.051.024-.056.011,0,.012L1565.915,572l4.248,7.785a2.626,2.626,0,0,0,3.019,1.191l4.8-1.59.107-.035,4.8-1.591A2.626,2.626,0,0,0,1584.6,575l-1.24-8.781-8.989,1.9Z" transform="translate(-1527.387 -493.148)" fill="#ff4c2e"/>
        <path id="Path_174" data-name="Path 174" d="M1574.852,552.542a1.457,1.457,0,0,0-1.841-.925l-19.058,6.313a1.458,1.458,0,0,0-.925,1.842h0a1.457,1.457,0,0,0,1.841.925l19.058-6.314a1.457,1.457,0,0,0,.925-1.841Z" transform="translate(-1517.165 -481.571)" fill="#ffb267"/>
        <rect id="Rectangle_48" data-name="Rectangle 48" width="19.254" height="8.948" transform="translate(34.493 66.67) rotate(-18.329)" fill="#fff"/>
        <rect id="Rectangle_49" data-name="Rectangle 49" width="0.489" height="11.857" transform="matrix(0.949, -0.315, 0.315, 0.949, 35.812, 64.192)" fill="#a2dee1"/>
        <rect id="Rectangle_50" data-name="Rectangle 50" width="0.489" height="11.857" transform="translate(50.116 59.453) rotate(-18.317)" fill="#a2dee1"/>
      </g>
      <ellipse id="Ellipse_4" data-name="Ellipse 4" cx="27.929" cy="20.554" rx="27.929" ry="20.554" transform="translate(12.701 10.122)" fill="#fff" opacity="0.15"/>
      <ellipse id="Ellipse_5" data-name="Ellipse 5" cx="19.364" cy="14.251" rx="19.364" ry="14.251" transform="translate(23.295 13.828)" fill="#fff" opacity="0.15"/>
    </g>
  </g>
</svg>
