<svg xmlns="http://www.w3.org/2000/svg" xmlns:xlink="http://www.w3.org/1999/xlink" width="1920" height="1290" viewBox="0 0 1920 1290"><defs><clipPath id="a"><rect width="1920" height="1290" transform="translate(-3522 955)" fill="#fff"/></clipPath><radialGradient id="b" cx="0.364" cy="0.494" r="0.401" gradientTransform="matrix(1, -0.008, 0.008, 1, -0.004, 0.003)" gradientUnits="objectBoundingBox"><stop offset="0" stop-color="#4879ff"/><stop offset="1" stop-color="#4145b1"/></radialGradient><linearGradient id="c" x1="0.5" y1="1.056" x2="0.5" y2="0.054" gradientTransform="matrix(1, 0, 0, 1, 0, 0)" xlink:href="#b"/></defs><g transform="translate(3522 -955)" clip-path="url(#a)"><path d="M2104,1483H184V337.386c50.807,14.935,111.193,28.682,179.483,40.859,68.434,12.2,144.526,22.778,226.162,31.432,83.055,8.8,171.655,15.6,263.34,20.19C947.469,434.6,1045.381,437,1144,437s196.531-2.4,291.016-7.133c91.685-4.593,180.285-11.386,263.34-20.19,81.636-8.655,157.728-19.23,226.162-31.432C1992.8,366.068,2053.19,352.322,2104,337.386V1483Z" transform="translate(-3706 774)" fill="url(#b)"/><path d="M0,115.039,1920-34.945V702.82H0Z" transform="translate(-3522 1683.18)" opacity="0.389" fill="url(#c)"/></g></svg>