<svg xmlns="http://www.w3.org/2000/svg" xmlns:xlink="http://www.w3.org/1999/xlink" width="80" height="80" viewBox="0 0 80 80">
  <defs>
    <style>
      .cls-1, .cls-56, .cls-60 {
        fill: #fff;
      }

      .cls-1 {
        stroke: #707070;
      }

      .cls-2 {
        clip-path: url(#clip-path);
      }

      .cls-3 {
        opacity: 0.5;
      }

      .cls-4 {
        fill: rgba(72,68,62,0.59);
        opacity: 0;
      }

      .cls-5 {
        fill: rgba(72,68,62,0.6);
        opacity: 0.02;
      }

      .cls-6 {
        fill: rgba(72,68,62,0.61);
        opacity: 0.039;
      }

      .cls-7, .cls-8 {
        fill: rgba(72,68,62,0.62);
      }

      .cls-7 {
        opacity: 0.059;
      }

      .cls-8 {
        opacity: 0.078;
      }

      .cls-9 {
        fill: rgba(72,68,62,0.63);
        opacity: 0.098;
      }

      .cls-10 {
        fill: rgba(72,68,62,0.64);
        opacity: 0.118;
      }

      .cls-11, .cls-12 {
        fill: rgba(72,68,62,0.65);
      }

      .cls-11 {
        opacity: 0.137;
      }

      .cls-12 {
        opacity: 0.157;
      }

      .cls-13 {
        fill: rgba(72,68,62,0.66);
        opacity: 0.176;
      }

      .cls-14 {
        fill: rgba(72,68,62,0.67);
        opacity: 0.196;
      }

      .cls-15 {
        fill: rgba(72,68,62,0.68);
        opacity: 0.216;
      }

      .cls-16, .cls-17 {
        fill: rgba(72,68,62,0.69);
      }

      .cls-16 {
        opacity: 0.235;
      }

      .cls-17 {
        opacity: 0.255;
      }

      .cls-18 {
        fill: rgba(72,68,62,0.7);
        opacity: 0.275;
      }

      .cls-19 {
        fill: rgba(72,68,62,0.71);
        opacity: 0.294;
      }

      .cls-20 {
        fill: rgba(72,68,62,0.72);
        opacity: 0.314;
      }

      .cls-21, .cls-22 {
        fill: rgba(72,68,62,0.73);
      }

      .cls-21 {
        opacity: 0.333;
      }

      .cls-22 {
        opacity: 0.353;
      }

      .cls-23 {
        fill: rgba(72,68,62,0.74);
        opacity: 0.373;
      }

      .cls-24 {
        fill: rgba(72,68,62,0.75);
        opacity: 0.392;
      }

      .cls-25 {
        fill: rgba(72,68,62,0.76);
        opacity: 0.412;
      }

      .cls-26 {
        fill: rgba(72,68,62,0.77);
        opacity: 0.431;
      }

      .cls-27, .cls-28 {
        fill: rgba(72,68,62,0.78);
      }

      .cls-27 {
        opacity: 0.451;
      }

      .cls-28 {
        opacity: 0.471;
      }

      .cls-29 {
        fill: rgba(72,68,62,0.79);
        opacity: 0.49;
      }

      .cls-30 {
        fill: rgba(72,68,62,0.8);
        opacity: 0.51;
      }

      .cls-31 {
        fill: rgba(72,68,62,0.81);
        opacity: 0.529;
      }

      .cls-32, .cls-33 {
        fill: rgba(72,68,62,0.82);
      }

      .cls-32 {
        opacity: 0.549;
      }

      .cls-33 {
        opacity: 0.569;
      }

      .cls-34 {
        fill: rgba(72,68,62,0.83);
        opacity: 0.588;
      }

      .cls-35 {
        fill: rgba(72,68,62,0.84);
        opacity: 0.608;
      }

      .cls-36, .cls-37 {
        fill: rgba(72,68,62,0.85);
      }

      .cls-36 {
        opacity: 0.627;
      }

      .cls-37 {
        opacity: 0.647;
      }

      .cls-38 {
        fill: rgba(72,68,62,0.86);
        opacity: 0.667;
      }

      .cls-39 {
        fill: rgba(72,68,62,0.87);
        opacity: 0.686;
      }

      .cls-40 {
        fill: rgba(72,68,62,0.88);
        opacity: 0.706;
      }

      .cls-41, .cls-42 {
        fill: rgba(72,68,62,0.89);
      }

      .cls-41 {
        opacity: 0.725;
      }

      .cls-42 {
        opacity: 0.745;
      }

      .cls-43 {
        fill: rgba(72,68,62,0.9);
        opacity: 0.765;
      }

      .cls-44 {
        fill: rgba(72,68,62,0.91);
        opacity: 0.784;
      }

      .cls-45 {
        fill: rgba(72,68,62,0.92);
        opacity: 0.804;
      }

      .cls-46 {
        fill: rgba(72,68,62,0.93);
        opacity: 0.824;
      }

      .cls-47 {
        fill: rgba(72,68,62,0.94);
        opacity: 0.843;
      }

      .cls-48, .cls-49 {
        fill: rgba(72,68,62,0.95);
      }

      .cls-48 {
        opacity: 0.863;
      }

      .cls-49 {
        opacity: 0.882;
      }

      .cls-50 {
        fill: rgba(72,68,62,0.96);
        opacity: 0.902;
      }

      .cls-51 {
        fill: rgba(72,68,62,0.97);
        opacity: 0.922;
      }

      .cls-52, .cls-53 {
        fill: rgba(72,68,62,0.98);
      }

      .cls-52 {
        opacity: 0.941;
      }

      .cls-53 {
        opacity: 0.961;
      }

      .cls-54 {
        fill: rgba(72,68,62,0.99);
        opacity: 0.98;
      }

      .cls-55 {
        fill: #48443e;
      }

      .cls-57 {
        fill: #ff4c2e;
      }

      .cls-58 {
        fill: #ffb267;
      }

      .cls-59 {
        fill: #a2dee1;
      }

      .cls-60 {
        opacity: 0.15;
      }
    </style>
    <clipPath id="clip-path">
      <rect id="Rectangle_243" data-name="Rectangle 243" class="cls-1" width="80" height="80" transform="translate(2706 -1041)"/>
    </clipPath>
  </defs>
  <g id="Group_569" data-name="Group 569" transform="translate(-2807 1041)">
    <g id="Mask_Group_74" data-name="Mask Group 74" class="cls-2" transform="translate(101)">
      <g id="Group_565" data-name="Group 565" transform="translate(2708 -1032.781)">
        <g id="Group_106" data-name="Group 106" class="cls-3" transform="translate(0 4.821)">
          <path id="Path_239" data-name="Path 239" class="cls-4" d="M1348.038,728.128c-1.15,2.75-15.356-6.044-16.848-7.349-7.317-6.4-13.98-8.2-17.521-19.759-.888-2.9,48.456-28.878,57.784-24.977S1349.187,725.378,1348.038,728.128Z" transform="translate(-1313.656 -675.644)"/>
          <path id="Path_240" data-name="Path 240" class="cls-5" d="M1347.894,727.763c-1.137,2.717-15.131-5.905-16.656-7.22-7.27-6.271-13.822-8.108-17.286-19.458-.862-2.86,47.575-28.326,56.79-24.473S1349.029,725.046,1347.894,727.763Z" transform="translate(-1313.623 -675.576)"/>
          <path id="Path_241" data-name="Path 241" class="cls-6" d="M1347.749,727.4c-1.121,2.683-14.9-5.766-16.462-7.091-7.221-6.143-13.7-8-17.05-19.159-.847-2.819,46.7-27.772,55.794-23.967S1348.871,724.715,1347.749,727.4Z" transform="translate(-1313.589 -675.509)"/>
          <path id="Path_242" data-name="Path 242" class="cls-7" d="M1347.606,727.034c-1.107,2.649-14.68-5.629-16.27-6.963-7.169-6.017-13.564-7.9-16.815-18.859-.825-2.783,45.816-27.22,54.8-23.463S1348.713,724.384,1347.606,727.034Z" transform="translate(-1313.555 -675.441)"/>
          <path id="Path_243" data-name="Path 243" class="cls-8" d="M1347.462,726.668c-1.094,2.614-14.455-5.489-16.078-6.833-7.115-5.893-13.425-7.805-16.578-18.559-.8-2.745,44.935-26.668,53.8-22.959S1348.555,724.054,1347.462,726.668Z" transform="translate(-1313.521 -675.374)"/>
          <path id="Path_244" data-name="Path 244" class="cls-9" d="M1347.319,726.3c-1.079,2.58-14.23-5.351-15.886-6.7-7.06-5.77-13.287-7.707-16.342-18.259-.784-2.705,44.055-26.114,52.809-22.453S1348.4,723.722,1347.319,726.3Z" transform="translate(-1313.488 -675.306)"/>
          <path id="Path_245" data-name="Path 245" class="cls-10" d="M1347.175,725.938c-1.065,2.547-14-5.212-15.693-6.575-7-5.649-13.147-7.609-16.107-17.959-.763-2.668,43.175-25.561,51.814-21.949S1348.24,723.392,1347.175,725.938Z" transform="translate(-1313.454 -675.239)"/>
          <path id="Path_246" data-name="Path 246" class="cls-11" d="M1347.032,725.573c-1.05,2.513-13.777-5.073-15.5-6.446-6.944-5.531-13.007-7.51-15.87-17.66-.743-2.629,42.295-25.008,50.819-21.443S1348.083,723.061,1347.032,725.573Z" transform="translate(-1313.42 -675.171)"/>
          <path id="Path_247" data-name="Path 247" class="cls-12" d="M1346.889,725.209c-1.037,2.478-13.551-4.935-15.309-6.318-6.884-5.413-12.867-7.413-15.635-17.36-.722-2.593,41.416-24.454,49.825-20.939S1347.925,722.73,1346.889,725.209Z" transform="translate(-1313.387 -675.103)"/>
          <path id="Path_248" data-name="Path 248" class="cls-13" d="M1346.745,724.844c-1.024,2.445-13.325-4.8-15.117-6.189-6.821-5.3-12.728-7.314-15.4-17.06-.7-2.553,40.535-23.9,48.828-20.433S1347.767,722.4,1346.745,724.844Z" transform="translate(-1313.353 -675.036)"/>
          <path id="Path_249" data-name="Path 249" class="cls-14" d="M1346.6,724.479c-1.008,2.411-13.1-4.658-14.924-6.06-6.756-5.184-12.585-7.217-15.164-16.761-.678-2.516,39.657-23.348,47.835-19.929S1347.61,722.068,1346.6,724.479Z" transform="translate(-1313.319 -674.968)"/>
          <path id="Path_250" data-name="Path 250" class="cls-15" d="M1346.457,724.114c-.994,2.378-12.87-4.519-14.732-5.931-6.691-5.071-12.446-7.12-14.927-16.46-.659-2.478,38.775-22.8,46.839-19.425S1347.451,721.738,1346.457,724.114Z" transform="translate(-1313.285 -674.901)"/>
          <path id="Path_251" data-name="Path 251" class="cls-16" d="M1346.313,723.749c-.979,2.343-12.644-4.382-14.539-5.8-6.625-4.96-12.3-7.022-14.691-16.161-.639-2.44,37.895-22.242,45.844-18.919S1347.293,721.406,1346.313,723.749Z" transform="translate(-1313.252 -674.833)"/>
          <path id="Path_252" data-name="Path 252" class="cls-17" d="M1346.169,723.384c-.965,2.309-12.416-4.243-14.346-5.672-6.557-4.851-12.162-6.925-14.456-15.86-.616-2.4,37.016-21.689,44.849-18.415S1347.136,721.075,1346.169,723.384Z" transform="translate(-1313.218 -674.766)"/>
          <path id="Path_253" data-name="Path 253" class="cls-18" d="M1346.026,723.02c-.952,2.274-12.188-4.107-14.155-5.544-6.488-4.743-12.019-6.829-14.219-15.562-.6-2.366,36.136-21.136,43.854-17.909S1346.977,720.744,1346.026,723.02Z" transform="translate(-1313.184 -674.698)"/>
          <path id="Path_254" data-name="Path 254" class="cls-19" d="M1345.882,722.655c-.937,2.241-11.96-3.968-13.962-5.415-6.417-4.636-11.877-6.731-13.984-15.261-.575-2.329,35.257-20.583,42.859-17.4S1346.819,720.414,1345.882,722.655Z" transform="translate(-1313.15 -674.63)"/>
          <path id="Path_255" data-name="Path 255" class="cls-20" d="M1345.739,722.29c-.923,2.208-11.732-3.831-13.769-5.286-6.346-4.531-11.735-6.637-13.749-14.961-.553-2.292,34.376-20.031,41.865-16.9S1346.662,720.082,1345.739,722.29Z" transform="translate(-1313.116 -674.563)"/>
          <path id="Path_256" data-name="Path 256" class="cls-21" d="M1345.595,721.925c-.908,2.174-11.5-3.693-13.578-5.157-6.272-4.427-11.592-6.54-13.512-14.661-.534-2.254,33.5-19.477,40.869-16.4S1346.5,719.752,1345.595,721.925Z" transform="translate(-1313.083 -674.495)"/>
          <path id="Path_257" data-name="Path 257" class="cls-22" d="M1345.452,721.56c-.9,2.141-11.276-3.556-13.385-5.027-6.2-4.324-11.447-6.446-13.277-14.362-.512-2.216,32.616-18.925,39.875-15.889S1346.346,719.42,1345.452,721.56Z" transform="translate(-1313.05 -674.428)"/>
          <path id="Path_258" data-name="Path 258" class="cls-23" d="M1345.309,721.2c-.881,2.1-11.048-3.42-13.193-4.9-6.125-4.222-11.3-6.349-13.041-14.061-.49-2.179,31.736-18.371,38.879-15.384S1346.189,719.09,1345.309,721.2Z" transform="translate(-1313.015 -674.36)"/>
          <path id="Path_259" data-name="Path 259" class="cls-24" d="M1345.165,720.831c-.867,2.071-10.819-3.283-13-4.77-6.048-4.122-11.157-6.255-12.805-13.762-.47-2.142,30.857-17.818,37.885-14.879S1346.031,718.759,1345.165,720.831Z" transform="translate(-1312.981 -674.293)"/>
          <path id="Path_260" data-name="Path 260" class="cls-25" d="M1345.02,720.467c-.852,2.037-10.589-3.146-12.808-4.642-5.972-4.022-11.011-6.16-12.568-13.462-.448-2.1,29.976-17.265,36.888-14.374S1345.873,718.429,1345.02,720.467Z" transform="translate(-1312.948 -674.226)"/>
          <path id="Path_261" data-name="Path 261" class="cls-26" d="M1344.877,720.1c-.838,2-10.359-3.009-12.616-4.512-5.895-3.924-10.866-6.066-12.333-13.162-.427-2.068,29.1-16.713,35.894-13.87S1345.714,718.1,1344.877,720.1Z" transform="translate(-1312.914 -674.158)"/>
          <path id="Path_262" data-name="Path 262" class="cls-27" d="M1344.734,719.736c-.824,1.971-10.131-2.874-12.424-4.383-5.816-3.826-10.719-5.972-12.1-12.862-.406-2.032,28.217-16.16,34.9-13.365S1345.557,717.767,1344.734,719.736Z" transform="translate(-1312.88 -674.091)"/>
          <path id="Path_263" data-name="Path 263" class="cls-28" d="M1344.59,719.373c-.81,1.936-9.9-2.739-12.232-4.254-5.738-3.731-10.572-5.878-11.861-12.563-.386-2,27.337-15.606,33.9-12.859S1345.4,717.436,1344.59,719.373Z" transform="translate(-1312.846 -674.023)"/>
          <path id="Path_264" data-name="Path 264" class="cls-29" d="M1344.446,719.008c-.795,1.9-9.671-2.6-12.038-4.126-5.658-3.635-10.422-5.785-11.626-12.262-.363-1.958,26.457-15.054,32.909-12.355S1345.241,717.105,1344.446,719.008Z" transform="translate(-1312.813 -673.956)"/>
          <path id="Path_265" data-name="Path 265" class="cls-30" d="M1344.3,718.643c-.782,1.868-9.441-2.47-11.846-4-5.579-3.541-10.274-5.693-11.39-11.964-.343-1.921,25.576-14.5,31.914-11.85S1345.083,716.774,1344.3,718.643Z" transform="translate(-1312.779 -673.889)"/>
          <path id="Path_266" data-name="Path 266" class="cls-31" d="M1344.159,718.278c-.767,1.834-9.211-2.334-11.655-3.867-5.5-3.448-10.123-5.6-11.154-11.663-.321-1.886,24.7-13.948,30.919-11.345S1344.925,716.444,1344.159,718.278Z" transform="translate(-1312.746 -673.821)"/>
          <path id="Path_267" data-name="Path 267" class="cls-32" d="M1344.015,717.914c-.753,1.8-8.979-2.2-11.462-3.738-5.416-3.356-9.971-5.509-10.918-11.364-.3-1.85,23.817-13.393,29.924-10.84S1344.768,716.113,1344.015,717.914Z" transform="translate(-1312.712 -673.754)"/>
          <path id="Path_268" data-name="Path 268" class="cls-33" d="M1343.872,717.55c-.738,1.766-8.749-2.067-11.269-3.61-5.334-3.263-9.819-5.417-10.683-11.063-.277-1.814,22.938-12.841,28.93-10.335S1344.611,715.783,1343.872,717.55Z" transform="translate(-1312.678 -673.687)"/>
          <path id="Path_269" data-name="Path 269" class="cls-34" d="M1343.728,717.185c-.725,1.732-8.517-1.934-11.078-3.481-5.251-3.174-9.664-5.327-10.446-10.764-.256-1.779,22.057-12.288,27.933-9.831S1344.453,715.453,1343.728,717.185Z" transform="translate(-1312.645 -673.62)"/>
          <path id="Path_270" data-name="Path 270" class="cls-35" d="M1343.585,716.82c-.71,1.7-8.286-1.8-10.886-3.352-5.168-3.083-9.51-5.236-10.21-10.464-.234-1.742,21.176-11.734,26.938-9.325S1344.295,715.121,1343.585,716.82Z" transform="translate(-1312.611 -673.552)"/>
          <path id="Path_271" data-name="Path 271" class="cls-36" d="M1343.44,716.456c-.7,1.665-8.053-1.668-10.691-3.222-5.086-3-9.355-5.147-9.976-10.164-.211-1.708,20.3-11.182,25.944-8.821S1344.137,714.792,1343.44,716.456Z" transform="translate(-1312.577 -673.485)"/>
          <path id="Path_272" data-name="Path 272" class="cls-37" d="M1343.3,716.092c-.682,1.631-7.821-1.537-10.5-3.093-5-2.907-9.2-5.056-9.737-9.864-.189-1.672,19.416-10.629,24.948-8.316S1343.979,714.461,1343.3,716.092Z" transform="translate(-1312.543 -673.418)"/>
          <path id="Path_273" data-name="Path 273" class="cls-38" d="M1343.153,715.728c-.667,1.6-7.589-1.406-10.308-2.965-4.917-2.821-9.037-4.968-9.5-9.565-.165-1.637,18.538-10.076,23.954-7.811S1343.821,714.131,1343.153,715.728Z" transform="translate(-1312.509 -673.352)"/>
          <path id="Path_274" data-name="Path 274" class="cls-39" d="M1343.01,715.364c-.654,1.562-7.357-1.276-10.116-2.836-4.833-2.734-8.876-4.879-9.267-9.265-.144-1.6,17.657-9.522,22.959-7.306S1343.663,713.8,1343.01,715.364Z" transform="translate(-1312.476 -673.285)"/>
          <path id="Path_275" data-name="Path 275" class="cls-40" d="M1342.866,715c-.638,1.529-7.123-1.145-9.922-2.707-4.748-2.648-8.713-4.793-9.031-8.965-.121-1.568,16.776-8.97,21.964-6.8S1343.505,713.471,1342.866,715Z" transform="translate(-1312.442 -673.218)"/>
          <path id="Path_276" data-name="Path 276" class="cls-41" d="M1342.723,714.635c-.625,1.5-6.891-1.017-9.731-2.578-4.661-2.562-8.547-4.7-8.8-8.664-.1-1.534,15.9-8.417,20.969-6.3S1343.348,713.14,1342.723,714.635Z" transform="translate(-1312.408 -673.151)"/>
          <path id="Path_277" data-name="Path 277" class="cls-42" d="M1342.579,714.271c-.612,1.462-6.656-.888-9.539-2.448-4.577-2.478-8.38-4.618-8.56-8.366-.071-1.5,15.017-7.864,19.974-5.791S1343.19,712.811,1342.579,714.271Z" transform="translate(-1312.375 -673.085)"/>
          <path id="Path_278" data-name="Path 278" class="cls-43" d="M1342.436,713.909c-.6,1.427-6.423-.762-9.346-2.321-4.491-2.394-8.211-4.531-8.324-8.065-.047-1.466,14.138-7.311,18.979-5.287S1343.032,712.481,1342.436,713.909Z" transform="translate(-1312.341 -673.019)"/>
          <path id="Path_279" data-name="Path 279" class="cls-44" d="M1342.291,713.546c-.583,1.392-6.187-.634-9.154-2.191-4.4-2.313-8.038-4.446-8.087-7.767-.022-1.431,13.258-6.757,17.983-4.781S1342.874,712.152,1342.291,713.546Z" transform="translate(-1312.307 -672.953)"/>
          <path id="Path_280" data-name="Path 280" class="cls-45" d="M1342.148,713.182c-.568,1.359-5.953-.509-8.962-2.062-4.318-2.23-7.863-4.359-7.852-7.465.006-1.4,12.378-6.2,16.989-4.276S1342.716,711.822,1342.148,713.182Z" transform="translate(-1312.273 -672.887)"/>
          <path id="Path_281" data-name="Path 281" class="cls-46" d="M1342.005,712.819c-.555,1.325-5.718-.383-8.77-1.933-4.233-2.149-7.686-4.274-7.616-7.166.032-1.364,11.5-5.651,15.993-3.771S1342.558,711.494,1342.005,712.819Z" transform="translate(-1312.24 -672.822)"/>
          <path id="Path_282" data-name="Path 282" class="cls-47" d="M1341.861,712.457c-.54,1.292-5.482-.26-8.578-1.8-4.146-2.068-7.5-4.189-7.379-6.866.062-1.332,10.617-5.1,15-3.267S1342.4,711.165,1341.861,712.457Z" transform="translate(-1312.206 -672.757)"/>
          <path id="Path_283" data-name="Path 283" class="cls-48" d="M1341.718,712.1c-.526,1.257-5.245-.139-8.385-1.677-4.061-1.987-7.319-4.1-7.144-6.565.093-1.3,9.738-4.546,14-2.762S1342.244,710.838,1341.718,712.1Z" transform="translate(-1312.173 -672.693)"/>
          <path id="Path_284" data-name="Path 284" class="cls-49" d="M1341.575,711.736c-.512,1.223-5.009-.018-8.193-1.547-3.974-1.909-7.132-4.017-6.908-6.266.126-1.264,8.857-3.993,13.008-2.257S1342.086,710.511,1341.575,711.736Z" transform="translate(-1312.14 -672.629)"/>
          <path id="Path_285" data-name="Path 285" class="cls-50" d="M1341.432,711.376c-.5,1.19-4.772.1-8-1.418-3.889-1.83-6.94-3.93-6.673-5.966.16-1.23,7.977-3.44,12.014-1.752S1341.929,710.186,1341.432,711.376Z" transform="translate(-1312.107 -672.567)"/>
          <path id="Path_286" data-name="Path 286" class="cls-51" d="M1341.289,711.018c-.483,1.156-4.534.22-7.808-1.288-3.8-1.753-6.743-3.842-6.436-5.667.2-1.195,7.1-2.887,11.019-1.247S1341.772,709.862,1341.289,711.018Z" transform="translate(-1312.074 -672.507)"/>
          <path id="Path_287" data-name="Path 287" class="cls-52" d="M1341.146,710.663c-.469,1.122-4.3.337-7.615-1.16-3.716-1.674-6.543-3.751-6.2-5.366.243-1.157,6.217-2.333,10.023-.742A6.7,6.7,0,0,1,1341.146,710.663Z" transform="translate(-1312.041 -672.45)"/>
          <path id="Path_288" data-name="Path 288" class="cls-53" d="M1341,710.313c-.455,1.088-4.057.452-7.423-1.03-3.632-1.6-6.338-3.657-5.965-5.068.3-1.117,5.338-1.779,9.029-.237S1341.458,709.225,1341,710.313Z" transform="translate(-1312.008 -672.396)"/>
          <path id="Path_289" data-name="Path 289" class="cls-54" d="M1340.861,709.969c-.442,1.054-3.819.564-7.232-.9-3.545-1.522-6.13-3.555-5.728-4.767.355-1.074,4.457-1.227,8.033.267S1341.3,708.914,1340.861,709.969Z" transform="translate(-1311.975 -672.349)"/>
          <path id="Path_290" data-name="Path 290" class="cls-55" d="M1340.716,709.632c-.426,1.02-3.577.674-7.038-.773s-5.92-3.447-5.493-4.467,3.578-.675,7.038.772S1341.144,708.61,1340.716,709.632Z" transform="translate(-1311.942 -672.309)"/>
        </g>
        <g id="Group_107" data-name="Group 107" transform="translate(10.188 0)">
          <path id="Path_291" data-name="Path 291" class="cls-56" d="M1380.819,688.04" transform="translate(-1315.891 -669.355)"/>
          <path id="Path_292" data-name="Path 292" class="cls-56" d="M1384.772,687.811l-21.8-16.478-30.815,3.136-9.39,33.549,21.564,18.378,2.63,2.241,4.388-.708,26.993-4.356,7.921-28.3,1.433-5.257Z" transform="translate(-1322.765 -671.333)"/>
          <path id="Path_293" data-name="Path 293" class="cls-56" d="M1344.4,722.571" transform="translate(-1320.204 -665.266)"/>
          <path id="Path_294" data-name="Path 294" class="cls-56" d="M1382.52,691.138h.008L1361.3,675.1l-26.468,2.693-7.942,28.377,20.762,17.694.034-.123.016.137,26.931-4.346,7.943-28.377Z" transform="translate(-1322.276 -670.888)"/>
        </g>
        <g id="Group_111" data-name="Group 111" transform="translate(12.436 1.726)">
          <path id="Path_295" data-name="Path 295" class="cls-57" d="M1333.513,675.526l-8.737,31.218,22.84,19.466,9.077-32.43Z" transform="translate(-1324.776 -672.563)"/>
          <path id="Path_296" data-name="Path 296" class="cls-58" d="M1383.61,688.669l-8.737,31.217-29.626,4.781,9.076-32.43Z" transform="translate(-1322.352 -671.007)"/>
          <path id="Path_297" data-name="Path 297" class="cls-59" d="M1332.588,675.839l29.117-2.963,23.35,17.647-29.287,3.568Z" transform="translate(-1323.85 -672.877)"/>
          <g id="Group_108" data-name="Group 108" transform="translate(8.737 16.367)">
            <path id="Path_298" data-name="Path 298" class="cls-56" d="M1337.5,687.512a3.83,3.83,0,0,1,2.691.967,3.471,3.471,0,0,1,1.049,1.963,14.784,14.784,0,0,1-.4,5.038l-1.41,7.278a42.1,42.1,0,0,1-1.215,5.167q.582.485,1.305,1.143a2.289,2.289,0,0,1,.651,1.427,2.126,2.126,0,0,1-.179,1.419c-.052.071-.088.122-.107.155q-.56.4-1.959-.75-1.534-1.268-4.413-4.041a2.379,2.379,0,0,1-.889-2.193,1.439,1.439,0,0,1,.4-.746q.453-.448,1.61.566c.164.145.345.311.54.5q.186-.557.9-4.129.753-3.783,1.714-9.742a1.744,1.744,0,0,1-2.314-.018,2.864,2.864,0,0,1-.727-1.133,2.368,2.368,0,0,1-.189-1.309,1.2,1.2,0,0,1,.564-.821A4.663,4.663,0,0,1,1337.5,687.512Z" transform="translate(-1332.587 -687.511)"/>
          </g>
          <g id="Group_109" data-name="Group 109" transform="translate(33.368 24.211)">
            <path id="Path_299" data-name="Path 299" class="cls-56" d="M1373.467,701.258a8.117,8.117,0,0,1-1.224,2.392,3.826,3.826,0,0,1-2.326,1.711q1.5.711,1.05,4.024a13.754,13.754,0,0,1-.453,2.138,7.5,7.5,0,0,1-2.452,3.792,9.062,9.062,0,0,1-5.243,2,37.089,37.089,0,0,1-5.066,0q-3.383-.372-3.123-2.052a6.313,6.313,0,0,1,.2-.888q.6-1.963,2.19-2.021a2.06,2.06,0,0,1,.428.029q2.268.143,3.667.114a15.683,15.683,0,0,0,2.225-.127,2.93,2.93,0,0,0,2.088-1.024,8.679,8.679,0,0,0,.965-1.8q.6-1.963-2.392-2.17l-3.859.006q-2.315-.163-2.414-1.514a2.108,2.108,0,0,1,1.4-2.218,4.607,4.607,0,0,1,1.92-.477,4.442,4.442,0,0,1,.831.059,11.3,11.3,0,0,0,3.453-.1q2.024-.323,2.436-1.15a4.691,4.691,0,0,0,.234-.6,1.613,1.613,0,0,0-.476-1.878,4.086,4.086,0,0,0-1.456-.534,21.606,21.606,0,0,0-3.224.117,10.6,10.6,0,0,1-2.955,0,1.235,1.235,0,0,1-.985-1.815q.495-1.53,2.98-2.163a23.13,23.13,0,0,1,3.824-.479,35.075,35.075,0,0,1,4.34-.069,4.3,4.3,0,0,1,3.4,1.569,5.03,5.03,0,0,1,.359,3.6A13.926,13.926,0,0,1,1373.467,701.258Z" transform="translate(-1354.612 -694.524)"/>
          </g>
          <g id="Group_110" data-name="Group 110" transform="translate(27.676 2.481)">
            <path id="Path_300" data-name="Path 300" class="cls-56" d="M1354.66,675.161a10.372,10.372,0,0,1,3.552.21q.533.126,1.017.283a9.362,9.362,0,0,1,3.189,1.568,4.57,4.57,0,0,1,1.467,5.017,5.662,5.662,0,0,1-1.816,2.653,7.208,7.208,0,0,1-3.308,1.708q-.961.207-3.348.492a7.048,7.048,0,0,1,1.729.3,15.706,15.706,0,0,1,2.245.691,1.434,1.434,0,0,1,.717,1.478q-.077,1.054-2.473.549-1.88-.4-4.19-1-3.408-.906-3.678-1.327a1.534,1.534,0,0,1-.2-1.206,2.235,2.235,0,0,1,1.595-1.62,12.036,12.036,0,0,1,2.417-.31q4.337-.275,5.308-2.011a6.937,6.937,0,0,0,.752-2.278q.377-2.068-2.232-2.682a6.457,6.457,0,0,0-.771-.137q-2.029-.223-2.709,2.116a5.638,5.638,0,0,0-.17.719,1.087,1.087,0,0,1-.58.711,1.618,1.618,0,0,1-1.164.158,3.059,3.059,0,0,1-1.208-.492,2.02,2.02,0,0,1-.659-2.55Q1351.117,675.564,1354.66,675.161Z" transform="translate(-1349.521 -675.095)"/>
          </g>
        </g>
        <path id="Path_301" data-name="Path 301" class="cls-60" d="M1340.938,682.055l13.934-1.539s7.13-2.375,12.348,2.657a102.1,102.1,0,0,1,7.643,8.016l-4.66,19.759s-1.865,6.9-8.575,7.455-13.607.559-13.607.559l-11.743-11.184s-2.237-2.982-.187-11.184A100.349,100.349,0,0,1,1340.938,682.055Z" transform="translate(-1311.102 -670.312)"/>
        <path id="Path_302" data-name="Path 302" class="cls-60" d="M1343.952,685.905l10.437-1.153s5.34-1.778,9.249,1.991a76.682,76.682,0,0,1,5.724,6l-3.491,14.8s-1.4,5.165-6.422,5.584-10.192.418-10.192.418l-8.8-8.377s-1.675-2.233-.14-8.377A75.337,75.337,0,0,1,1343.952,685.905Z" transform="translate(-1310.575 -669.794)"/>
      </g>
    </g>
  </g>
</svg>
