<svg xmlns="http://www.w3.org/2000/svg" xmlns:xlink="http://www.w3.org/1999/xlink" width="80" height="80" viewBox="0 0 80 80">
  <defs>
    <style>
      .cls-1, .cls-57, .cls-64 {
        fill: #fff;
      }

      .cls-1 {
        stroke: #707070;
      }

      .cls-2, .cls-62 {
        fill: none;
      }

      .cls-3 {
        clip-path: url(#clip-path);
      }

      .cls-4 {
        opacity: 0.5;
      }

      .cls-10, .cls-11, .cls-12, .cls-13, .cls-14, .cls-15, .cls-16, .cls-17, .cls-18, .cls-19, .cls-20, .cls-21, .cls-22, .cls-23, .cls-24, .cls-25, .cls-26, .cls-27, .cls-28, .cls-29, .cls-30, .cls-31, .cls-32, .cls-33, .cls-34, .cls-35, .cls-36, .cls-37, .cls-38, .cls-39, .cls-40, .cls-41, .cls-42, .cls-43, .cls-44, .cls-45, .cls-46, .cls-47, .cls-48, .cls-49, .cls-5, .cls-50, .cls-51, .cls-52, .cls-53, .cls-54, .cls-55, .cls-56, .cls-6, .cls-7, .cls-8, .cls-9 {
        fill: #48443e;
      }

      .cls-5 {
        opacity: 0;
      }

      .cls-6 {
        opacity: 0.02;
      }

      .cls-7 {
        opacity: 0.039;
      }

      .cls-8 {
        opacity: 0.059;
      }

      .cls-9 {
        opacity: 0.078;
      }

      .cls-10 {
        opacity: 0.098;
      }

      .cls-11 {
        opacity: 0.118;
      }

      .cls-12 {
        opacity: 0.137;
      }

      .cls-13 {
        opacity: 0.157;
      }

      .cls-14 {
        opacity: 0.176;
      }

      .cls-15 {
        opacity: 0.196;
      }

      .cls-16 {
        opacity: 0.216;
      }

      .cls-17 {
        opacity: 0.235;
      }

      .cls-18 {
        opacity: 0.255;
      }

      .cls-19 {
        opacity: 0.275;
      }

      .cls-20 {
        opacity: 0.294;
      }

      .cls-21 {
        opacity: 0.314;
      }

      .cls-22 {
        opacity: 0.333;
      }

      .cls-23 {
        opacity: 0.353;
      }

      .cls-24 {
        opacity: 0.373;
      }

      .cls-25 {
        opacity: 0.392;
      }

      .cls-26 {
        opacity: 0.412;
      }

      .cls-27 {
        opacity: 0.431;
      }

      .cls-28 {
        opacity: 0.451;
      }

      .cls-29 {
        opacity: 0.471;
      }

      .cls-30 {
        opacity: 0.49;
      }

      .cls-31 {
        opacity: 0.51;
      }

      .cls-32 {
        opacity: 0.529;
      }

      .cls-33 {
        opacity: 0.549;
      }

      .cls-34 {
        opacity: 0.569;
      }

      .cls-35 {
        opacity: 0.588;
      }

      .cls-36 {
        opacity: 0.608;
      }

      .cls-37 {
        opacity: 0.627;
      }

      .cls-38 {
        opacity: 0.647;
      }

      .cls-39 {
        opacity: 0.667;
      }

      .cls-40 {
        opacity: 0.686;
      }

      .cls-41 {
        opacity: 0.706;
      }

      .cls-42 {
        opacity: 0.725;
      }

      .cls-43 {
        opacity: 0.745;
      }

      .cls-44 {
        opacity: 0.765;
      }

      .cls-45 {
        opacity: 0.784;
      }

      .cls-46 {
        opacity: 0.804;
      }

      .cls-47 {
        opacity: 0.824;
      }

      .cls-48 {
        opacity: 0.843;
      }

      .cls-49 {
        opacity: 0.863;
      }

      .cls-50 {
        opacity: 0.882;
      }

      .cls-51 {
        opacity: 0.902;
      }

      .cls-52 {
        opacity: 0.922;
      }

      .cls-53 {
        opacity: 0.941;
      }

      .cls-54 {
        opacity: 0.961;
      }

      .cls-55 {
        opacity: 0.98;
      }

      .cls-58 {
        fill: #a2dee1;
      }

      .cls-59 {
        fill: #e0f6fe;
      }

      .cls-60 {
        fill: #ff4c2e;
      }

      .cls-61 {
        fill: #ffb267;
      }

      .cls-62 {
        stroke: #e0f6fe;
        stroke-miterlimit: 10;
      }

      .cls-63 {
        clip-path: url(#clip-path-2);
      }

      .cls-64 {
        opacity: 0.15;
      }
    </style>
    <clipPath id="clip-path">
      <rect id="Rectangle_246" data-name="Rectangle 246" class="cls-1" width="80" height="80" transform="translate(2706 -1041)"/>
    </clipPath>
    <clipPath id="clip-path-2">
      <path id="Path_575" data-name="Path 575" class="cls-2" d="M1543.628,851.5c-5.687,1.639-39.552.9-42.523,0s-6.25-1.793-7.377-7.377-1.025-15.344,0-19.571,2.664-6.148,7.377-7.378,39.142-1.23,42.523,0,6.455,2.613,7.378,7.378.845,16.164,0,19.571S1549.315,849.859,1543.628,851.5Z" transform="translate(-1492.92 -816.25)"/>
    </clipPath>
  </defs>
  <g id="Mask_Group_76" data-name="Mask Group 76" class="cls-3" transform="translate(-2706 1041)">
    <g id="Group_567" data-name="Group 567" transform="translate(1235.748 -1838.635)">
      <g id="Group_138" data-name="Group 138" class="cls-4" transform="translate(1474.252 828.059)">
        <path id="Path_513" data-name="Path 513" class="cls-5" d="M1505.591,867c-.921,2.2-22.782-.3-29.621-15.088-8.875-19.193,19.526-16.974,19.526-16.974.377-2.36,37.729,27.59,31.729,31.618C1522.985,869.4,1506.513,864.791,1505.591,867Z" transform="translate(-1474.252 -834.801)"/>
        <path id="Path_514" data-name="Path 514" class="cls-6" d="M1505.818,866.967c-.946,2.143-22.408-.34-29.106-14.854-8.694-18.832,19.19-16.655,19.233-16.637.412-2.3,37.063,27.094,31.172,31.06C1522.955,869.341,1506.765,864.823,1505.818,866.967Z" transform="translate(-1474.513 -834.984)"/>
        <path id="Path_515" data-name="Path 515" class="cls-7" d="M1506.045,866.938c-.971,2.082-22.034-.379-28.591-14.62-8.514-18.471,18.854-16.337,18.939-16.3.449-2.23,36.4,26.6,30.616,30.5C1522.924,869.285,1507.017,864.856,1506.045,866.938Z" transform="translate(-1474.774 -835.167)"/>
        <path id="Path_516" data-name="Path 516" class="cls-8" d="M1506.272,866.909c-1,2.02-21.66-.419-28.076-14.385-8.333-18.112,18.518-16.019,18.648-15.965.484-2.167,35.728,26.1,30.059,29.943C1522.893,869.229,1507.268,864.889,1506.272,866.909Z" transform="translate(-1475.034 -835.35)"/>
        <path id="Path_517" data-name="Path 517" class="cls-9" d="M1506.5,866.88c-1.022,1.96-21.286-.459-27.561-14.151-8.152-17.751,18.182-15.7,18.355-15.629.519-2.1,35.061,25.609,29.5,29.385C1522.862,869.172,1507.52,864.921,1506.5,866.88Z" transform="translate(-1475.295 -835.532)"/>
        <path id="Path_518" data-name="Path 518" class="cls-10" d="M1506.725,866.849c-1.047,1.9-20.911-.5-27.046-13.917-7.972-17.391,17.847-15.382,18.062-15.292.555-2.038,34.393,25.113,28.948,28.826C1522.831,869.114,1507.772,864.951,1506.725,866.849Z" transform="translate(-1475.556 -835.712)"/>
        <path id="Path_519" data-name="Path 519" class="cls-11" d="M1506.952,866.815c-1.072,1.837-20.537-.538-26.531-13.683-7.791-17.031,17.511-15.063,17.769-14.956.59-1.974,33.726,24.618,28.391,28.268C1522.8,869.051,1508.024,864.978,1506.952,866.815Z" transform="translate(-1475.817 -835.889)"/>
        <path id="Path_520" data-name="Path 520" class="cls-12" d="M1507.179,866.78c-1.1,1.776-20.163-.578-26.016-13.449-7.61-16.67,17.175-14.745,17.476-14.619.626-1.91,33.051,24.111,27.835,27.71C1522.764,868.981,1508.275,865,1507.179,866.78Z" transform="translate(-1476.078 -836.066)"/>
        <path id="Path_521" data-name="Path 521" class="cls-13" d="M1507.406,866.745c-1.122,1.715-19.789-.617-25.5-13.214-7.429-16.311,16.839-14.427,17.183-14.283.663-1.845,32.383,23.615,27.279,27.152C1522.732,868.917,1508.527,865.03,1507.406,866.745Z" transform="translate(-1476.338 -836.242)"/>
        <path id="Path_522" data-name="Path 522" class="cls-14" d="M1507.633,866.71c-1.146,1.653-19.415-.658-24.986-12.98-7.249-15.95,16.5-14.108,16.89-13.947.7-1.781,31.715,23.117,26.722,26.593C1522.7,868.854,1508.779,865.057,1507.633,866.71Z" transform="translate(-1476.599 -836.419)"/>
        <path id="Path_523" data-name="Path 523" class="cls-15" d="M1507.859,866.675c-1.171,1.592-19.04-.7-24.471-12.746-7.068-15.59,16.168-13.79,16.6-13.61.734-1.717,31.046,22.62,26.166,26.034C1522.669,868.79,1509.031,865.083,1507.859,866.675Z" transform="translate(-1476.86 -836.595)"/>
        <path id="Path_524" data-name="Path 524" class="cls-16" d="M1508.086,866.64c-1.2,1.531-18.666-.736-23.956-12.512-6.887-15.229,15.832-13.471,16.305-13.273.769-1.653,30.377,22.123,25.609,25.476C1522.637,868.727,1509.282,865.109,1508.086,866.64Z" transform="translate(-1477.121 -836.772)"/>
        <path id="Path_525" data-name="Path 525" class="cls-17" d="M1508.313,866.605c-1.221,1.47-18.292-.777-23.441-12.278-6.707-14.869,15.5-13.153,16.012-12.937.8-1.589,29.709,21.626,25.053,24.918C1522.605,868.663,1509.535,865.135,1508.313,866.605Z" transform="translate(-1477.381 -836.948)"/>
        <path id="Path_526" data-name="Path 526" class="cls-18" d="M1508.54,866.57c-1.246,1.409-17.918-.816-22.926-12.043-6.525-14.509,15.16-12.835,15.72-12.6.84-1.524,29.041,21.13,24.5,24.36C1522.574,868.6,1509.786,865.161,1508.54,866.57Z" transform="translate(-1477.642 -837.125)"/>
        <path id="Path_527" data-name="Path 527" class="cls-19" d="M1508.766,866.534c-1.271,1.347-17.544-.855-22.411-11.809-6.345-14.149,14.824-12.517,15.426-12.264.876-1.46,28.373,20.633,23.94,23.8C1522.542,868.536,1510.038,865.187,1508.766,866.534Z" transform="translate(-1477.903 -837.301)"/>
        <path id="Path_528" data-name="Path 528" class="cls-20" d="M1508.993,866.5c-1.3,1.286-17.169-.9-21.9-11.575-6.164-13.788,14.488-12.2,15.134-11.928.912-1.4,27.7,20.136,23.384,23.243C1522.51,868.472,1510.289,865.214,1508.993,866.5Z" transform="translate(-1478.163 -837.477)"/>
        <path id="Path_529" data-name="Path 529" class="cls-21" d="M1509.224,866.463c-1.321,1.225-16.774-.945-21.381-11.34-5.956-13.44,14.153-11.88,14.841-11.592.947-1.331,27.036,19.639,22.827,22.685C1522.482,868.408,1510.545,865.238,1509.224,866.463Z" transform="translate(-1478.428 -837.652)"/>
        <path id="Path_530" data-name="Path 530" class="cls-22" d="M1509.451,866.427c-1.346,1.164-16.4-.984-20.866-11.106-5.774-13.081,13.817-11.561,14.548-11.255.983-1.267,26.368,19.143,22.271,22.127C1522.451,868.343,1510.8,865.264,1509.451,866.427Z" transform="translate(-1478.689 -837.828)"/>
        <path id="Path_531" data-name="Path 531" class="cls-23" d="M1509.677,866.392c-1.371,1.1-16.023-1.025-20.351-10.872-5.591-12.721,13.481-11.244,14.255-10.919,1.018-1.2,25.7,18.646,21.714,21.568C1522.419,868.279,1511.049,865.289,1509.677,866.392Z" transform="translate(-1478.949 -838.004)"/>
        <path id="Path_532" data-name="Path 532" class="cls-24" d="M1509.9,866.356c-1.4,1.041-15.647-1.065-19.837-10.638-5.408-12.362,13.146-10.924,13.964-10.583,1.054-1.138,25.03,18.149,21.158,21.01C1522.387,868.216,1511.3,865.315,1509.9,866.356Z" transform="translate(-1479.211 -838.18)"/>
        <path id="Path_533" data-name="Path 533" class="cls-25" d="M1510.131,866.321c-1.421.98-15.272-1.105-19.321-10.4-5.227-12,12.809-10.606,13.67-10.246,1.09-1.074,24.362,17.653,20.6,20.451C1522.356,868.151,1511.553,865.341,1510.131,866.321Z" transform="translate(-1479.471 -838.356)"/>
        <path id="Path_534" data-name="Path 534" class="cls-26" d="M1510.358,866.285c-1.446.919-14.9-1.146-18.805-10.17-5.045-11.642,12.473-10.287,13.377-9.91,1.125-1.01,23.694,17.156,20.046,19.893C1522.325,868.087,1511.8,865.366,1510.358,866.285Z" transform="translate(-1479.732 -838.531)"/>
        <path id="Path_535" data-name="Path 535" class="cls-27" d="M1510.585,866.249c-1.471.857-14.521-1.186-18.291-9.935-4.862-11.282,12.138-9.969,13.084-9.573,1.161-.946,23.026,16.66,19.489,19.334C1522.292,868.023,1512.056,865.392,1510.585,866.249Z" transform="translate(-1479.993 -838.707)"/>
        <path id="Path_536" data-name="Path 536" class="cls-28" d="M1510.812,866.213c-1.5.8-14.145-1.226-17.776-9.7-4.679-10.923,11.8-9.651,12.792-9.238,1.2-.881,22.358,16.164,18.933,18.777C1522.261,867.959,1512.307,865.417,1510.812,866.213Z" transform="translate(-1480.253 -838.883)"/>
        <path id="Path_537" data-name="Path 537" class="cls-29" d="M1511.039,866.177c-1.521.735-13.77-1.266-17.261-9.466-4.5-10.563,11.466-9.333,12.5-8.9,1.232-.817,21.689,15.667,18.376,18.218C1522.229,867.894,1512.559,865.442,1511.039,866.177Z" transform="translate(-1480.514 -839.058)"/>
        <path id="Path_538" data-name="Path 538" class="cls-30" d="M1511.265,866.141c-1.546.674-13.394-1.307-16.746-9.232-4.315-10.2,11.13-9.014,12.206-8.564,1.268-.754,21.02,15.171,17.82,17.659C1522.2,867.83,1512.811,865.468,1511.265,866.141Z" transform="translate(-1480.775 -839.233)"/>
        <path id="Path_539" data-name="Path 539" class="cls-31" d="M1511.492,866.1c-1.571.613-13.019-1.346-16.231-9-4.132-9.844,10.794-8.7,11.914-8.228,1.3-.688,20.352,14.674,17.264,17.1C1522.165,867.765,1513.063,865.492,1511.492,866.1Z" transform="translate(-1481.035 -839.408)"/>
        <path id="Path_540" data-name="Path 540" class="cls-32" d="M1511.718,866.068c-1.6.552-12.643-1.387-15.716-8.764-3.95-9.483,10.459-8.377,11.62-7.891,1.34-.624,19.684,14.178,16.708,16.542C1522.134,867.7,1513.314,865.517,1511.718,866.068Z" transform="translate(-1481.296 -839.584)"/>
        <path id="Path_541" data-name="Path 541" class="cls-33" d="M1511.945,866.032c-1.621.49-12.268-1.427-15.2-8.53-3.769-9.125,10.122-8.06,11.327-7.556,1.375-.56,19.016,13.682,16.152,15.985C1522.1,867.636,1513.566,865.541,1511.945,866.032Z" transform="translate(-1481.557 -839.758)"/>
        <path id="Path_542" data-name="Path 542" class="cls-34" d="M1512.171,866c-1.646.429-11.892-1.466-14.686-8.3-3.585-8.765,9.787-7.741,11.035-7.219,1.411-.5,18.348,13.186,15.6,15.426C1522.069,867.572,1513.817,865.566,1512.171,866Z" transform="translate(-1481.817 -839.933)"/>
        <path id="Path_543" data-name="Path 543" class="cls-35" d="M1512.4,865.958c-1.671.368-11.517-1.506-14.171-8.061-3.4-8.4,9.451-7.423,10.742-6.883,1.446-.431,17.68,12.69,15.039,14.868C1522.038,867.507,1514.068,865.59,1512.4,865.958Z" transform="translate(-1482.077 -840.108)"/>
        <path id="Path_544" data-name="Path 544" class="cls-36" d="M1512.624,865.922c-1.7.306-11.142-1.547-13.656-7.827-3.221-8.044,9.115-7.1,10.449-6.546,1.482-.367,17.012,12.194,14.482,14.309C1522.005,867.442,1514.319,865.615,1512.624,865.922Z" transform="translate(-1482.337 -840.283)"/>
        <path id="Path_545" data-name="Path 545" class="cls-37" d="M1512.85,865.884c-1.721.245-10.766-1.587-13.141-7.593-3.039-7.684,8.78-6.785,10.157-6.21,1.518-.3,16.344,11.7,13.926,13.752C1521.974,867.377,1514.571,865.639,1512.85,865.884Z" transform="translate(-1482.598 -840.457)"/>
        <path id="Path_546" data-name="Path 546" class="cls-38" d="M1513.077,865.847c-1.746.185-10.391-1.626-12.626-7.358-2.857-7.325,8.443-6.467,9.863-5.874,1.554-.239,15.676,11.2,13.37,13.193C1521.941,867.312,1514.822,865.663,1513.077,865.847Z" transform="translate(-1482.858 -840.631)"/>
        <path id="Path_547" data-name="Path 547" class="cls-39" d="M1513.3,865.81c-1.771.122-10.015-1.667-12.111-7.124-2.674-6.965,8.108-6.149,9.571-5.537,1.59-.174,15.008,10.708,12.814,12.634C1521.908,867.247,1515.073,865.687,1513.3,865.81Z" transform="translate(-1483.118 -840.805)"/>
        <path id="Path_548" data-name="Path 548" class="cls-40" d="M1513.528,865.772c-1.8.062-9.64-1.706-11.6-6.89-2.492-6.6,7.771-5.83,9.278-5.2,1.625-.11,14.34,10.212,12.257,12.076C1521.876,867.182,1515.324,865.71,1513.528,865.772Z" transform="translate(-1483.377 -840.979)"/>
        <path id="Path_549" data-name="Path 549" class="cls-41" d="M1513.754,865.734c-1.821,0-9.264-1.746-11.081-6.656-2.31-6.244,7.436-5.512,8.985-4.864,1.66-.047,13.672,9.716,11.7,11.518C1521.844,867.117,1515.575,865.734,1513.754,865.734Z" transform="translate(-1483.637 -841.153)"/>
        <path id="Path_550" data-name="Path 550" class="cls-42" d="M1513.979,865.7c-1.846-.061-8.889-1.786-10.566-6.422-2.128-5.884,7.1-5.194,8.693-4.528,1.7.018,13,9.222,11.144,10.959C1521.811,867.051,1515.824,865.757,1513.979,865.7Z" transform="translate(-1483.896 -841.326)"/>
        <path id="Path_551" data-name="Path 551" class="cls-43" d="M1514.2,865.724c-1.87-.122-8.513-1.825-10.051-6.187-1.946-5.524,6.671-4.582,8.4-4.191,1.691.381,12.337,8.727,10.588,10.4C1521.776,867.051,1516.074,865.846,1514.2,865.724Z" transform="translate(-1484.155 -841.565)"/>
        <path id="Path_552" data-name="Path 552" class="cls-44" d="M1514.429,865.68c-1.9-.183-8.139-1.864-9.536-5.953-1.764-5.163,6.34-4.287,8.108-3.856,1.723.421,11.669,8.233,10.031,9.843C1521.744,866.98,1516.323,865.863,1514.429,865.68Z" transform="translate(-1484.413 -841.733)"/>
        <path id="Path_553" data-name="Path 553" class="cls-45" d="M1514.653,865.636c-1.92-.244-7.763-1.9-9.021-5.719-1.583-4.8,6.01-3.992,7.814-3.519,1.756.46,11,7.738,9.476,9.284C1521.71,866.909,1516.574,865.88,1514.653,865.636Z" transform="translate(-1484.672 -841.9)"/>
        <path id="Path_554" data-name="Path 554" class="cls-46" d="M1514.878,865.591c-1.946-.306-7.389-1.944-8.506-5.485-1.4-4.441,5.68-3.7,7.521-3.183,1.791.5,10.335,7.244,8.919,8.726C1521.677,866.838,1516.823,865.9,1514.878,865.591Z" transform="translate(-1484.93 -842.067)"/>
        <path id="Path_555" data-name="Path 555" class="cls-47" d="M1515.1,865.546c-1.97-.367-7.014-1.982-7.991-5.25-1.22-4.08,5.35-3.4,7.229-2.846,1.827.541,9.668,6.75,8.362,8.167C1521.643,866.767,1517.072,865.914,1515.1,865.546Z" transform="translate(-1485.189 -842.233)"/>
        <path id="Path_556" data-name="Path 556" class="cls-48" d="M1515.325,865.5c-2-.428-6.639-2.022-7.476-5.016-1.039-3.719,5.021-3.107,6.936-2.51,1.864.581,9,6.257,7.806,7.61C1521.609,866.7,1517.32,865.929,1515.325,865.5Z" transform="translate(-1485.446 -842.399)"/>
        <path id="Path_557" data-name="Path 557" class="cls-49" d="M1515.548,865.455c-2.02-.489-6.264-2.06-6.96-4.782-.859-3.357,4.692-2.812,6.643-2.173,1.9.622,8.335,5.764,7.25,7.051C1521.575,866.623,1517.568,865.944,1515.548,865.455Z" transform="translate(-1485.703 -842.565)"/>
        <path id="Path_558" data-name="Path 558" class="cls-50" d="M1515.769,865.408c-2.046-.55-5.891-2.1-6.446-4.548-.678-2.995,4.364-2.516,6.351-1.837,1.941.664,7.67,5.272,6.693,6.493C1521.539,866.551,1517.814,865.959,1515.769,865.408Z" transform="translate(-1485.957 -842.73)"/>
        <path id="Path_559" data-name="Path 559" class="cls-51" d="M1515.989,865.361c-2.07-.612-5.517-2.135-5.931-4.314-.5-2.631,4.036-2.22,6.057-1.5,1.982.7,7.005,4.779,6.137,5.934C1521.5,866.479,1518.059,865.973,1515.989,865.361Z" transform="translate(-1486.211 -842.894)"/>
        <path id="Path_560" data-name="Path 560" class="cls-52" d="M1516.207,865.313c-2.1-.673-5.145-2.173-5.416-4.079-.322-2.269,3.708-1.925,5.764-1.164,2.023.747,6.341,4.287,5.582,5.376C1521.466,866.406,1518.3,865.986,1516.207,865.313Z" transform="translate(-1486.463 -843.058)"/>
        <path id="Path_561" data-name="Path 561" class="cls-53" d="M1516.421,865.264c-2.12-.734-4.774-2.209-4.9-3.845-.147-1.9,3.38-1.628,5.472-.828,2.065.79,5.677,3.8,5.025,4.818C1521.425,866.333,1518.541,866,1516.421,865.264Z" transform="translate(-1486.712 -843.22)"/>
        <path id="Path_562" data-name="Path 562" class="cls-54" d="M1516.631,865.214c-2.146-.8-4.407-2.245-4.386-3.611.025-1.538,3.053-1.331,5.179-.491,2.108.831,5.016,3.306,4.469,4.259C1521.382,866.259,1518.776,866.01,1516.631,865.214Z" transform="translate(-1486.955 -843.381)"/>
        <path id="Path_563" data-name="Path 563" class="cls-55" d="M1516.833,865.161c-2.171-.857-4.046-2.281-3.871-3.377.188-1.174,2.726-1.034,4.886-.155s4.356,2.816,3.912,3.7C1521.333,866.183,1519,866.018,1516.833,865.161Z" transform="translate(-1487.191 -843.54)"/>
        <path id="Path_564" data-name="Path 564" class="cls-56" d="M1521.616,865.285c-.342.818-2.4.736-4.594-.182s-3.7-2.325-3.355-3.143,2.4-.736,4.594.182S1521.957,864.467,1521.616,865.285Z" transform="translate(-1487.414 -843.694)"/>
      </g>
      <g id="Group_139" data-name="Group 139" transform="translate(1485.684 814.635)">
        <path id="Path_565" data-name="Path 565" class="cls-57" d="M1510.7,860.718l-.545-1.092a2.428,2.428,0,0,1-.021-2.113c.24-1.316,1.289-1.373,5.349-1.593a20.093,20.093,0,0,0,2.376-.234c.044-.609.043-1.693.043-2.161v-.242a1.478,1.478,0,0,0-.022-.254c-6-.1-15.58-.4-17.423-.957l-.149-.045c-3.033-.912-6.805-2.049-8.058-8.252-1.1-5.474-1.1-15.344.012-19.926,1.167-4.816,3.324-6.977,8.243-8.261,2.7-.7,13.461-.954,21.855-.954,3.049,0,18.389.047,20.984.991,3.7,1.347,7.115,2.994,8.14,8.284.908,4.693.9,16.238-.015,19.923-.919,3.707-2.046,6.468-8.209,8.245-2.769.8-10.883.994-17.559,1.01a1.651,1.651,0,0,0-.012.2v.232c0,.471,0,1.56.043,2.172a19.943,19.943,0,0,0,2.368.232c4.068.221,5.117.278,5.358,1.594a2.433,2.433,0,0,1-.021,2.113l-.546,1.092Z" transform="translate(-1491.426 -814.635)"/>
        <path id="Path_566" data-name="Path 566" class="cls-57" d="M1550.852,824.822c-.912-4.713-3.952-6.081-7.3-7.3s-37.394-1.216-42.056,0-6.283,3.117-7.3,7.3-1.115,13.833,0,19.356,4.357,6.409,7.3,7.3c1.361.41,9.281.788,17.949.914a3.191,3.191,0,0,1,.432,1.556v.241a14.169,14.169,0,0,1-.162,2.953c-.023.049-.042.1-.061.152a.411.411,0,0,1-.028.075c-.055.06-.48.373-3.405.53-3.68.2-4.112.223-4.156.688a1.129,1.129,0,0,0-.074,1.115l.182.364h20.559l.182-.364a1.132,1.132,0,0,0-.074-1.115c-.044-.465-.475-.487-4.156-.688-2.925-.157-3.35-.47-3.4-.527a.377.377,0,0,1-.03-.078c-.02-.052-.038-.1-.061-.152a14.3,14.3,0,0,1-.162-2.962v-.231a3.173,3.173,0,0,1,.408-1.512c8.1,0,15.693-.261,18.115-.959,5.624-1.622,6.46-3.928,7.3-7.3S1551.765,829.534,1550.852,824.822Z" transform="translate(-1492.088 -815.296)"/>
      </g>
      <path id="Path_567" data-name="Path 567" class="cls-58" d="M1521.284,877.538l-.185-.368a1.141,1.141,0,0,1,.075-1.128c.044-.469.48-.493,4.2-.7,2.957-.159,3.387-.475,3.443-.537a.451.451,0,0,0,.029-.075c.019-.052.038-.1.061-.153a14.34,14.34,0,0,0,.164-2.986v-.243a3.354,3.354,0,0,0-.719-2l-.954-1.072,3.568-.087v-.037l.686.019.686-.021,0,.037,3.615.088-.954,1.072a3.357,3.357,0,0,0-.72,2v.234a14.432,14.432,0,0,0,.164,2.995c.022.05.042.1.061.153a.345.345,0,0,0,.031.079c.053.058.482.374,3.441.533,3.721.2,4.157.226,4.2.7a1.143,1.143,0,0,1,.075,1.128l-.184.368Z" transform="translate(-15.625 -17.895)"/>
      <path id="Path_568" data-name="Path 568" class="cls-57" d="M1541.827,876.593s.555-.014-3.55-.236-3.917-.741-4.1-1.157a13.468,13.468,0,0,1-.222-3.5,3.987,3.987,0,0,1,.888-2.44l-2.782-.067v0h-.089v0l-2.782.067a3.989,3.989,0,0,1,.887,2.44,13.5,13.5,0,0,1-.221,3.5c-.187.416,0,.936-4.105,1.157s-3.55.236-3.55.236a.56.56,0,0,0-.166.624h19.964A.56.56,0,0,0,1541.827,876.593Z" transform="translate(-15.959 -18.24)"/>
      <path id="Path_569" data-name="Path 569" class="cls-59" d="M1541.827,876.593s.555-.014-3.55-.236-3.917-.741-4.1-1.157a13.468,13.468,0,0,1-.222-3.5,3.987,3.987,0,0,1,.888-2.44l-2.782-.067v0h-.089v0l-2.782.067a3.989,3.989,0,0,1,.887,2.44,13.5,13.5,0,0,1-.221,3.5c-.187.416,0,.936-4.105,1.157s-3.55.236-3.55.236a.56.56,0,0,0-.166.624h19.964A.56.56,0,0,0,1541.827,876.593Z" transform="translate(-15.959 -18.24)"/>
      <path id="Path_570" data-name="Path 570" class="cls-60" d="M1543.628,851.5c-5.687,1.639-39.552.9-42.523,0s-6.25-1.793-7.377-7.377-1.025-15.344,0-19.571,2.664-6.148,7.377-7.378,39.142-1.23,42.523,0,6.455,2.613,7.378,7.378.845,16.164,0,19.571S1549.315,849.859,1543.628,851.5Z" transform="translate(-6.242 -0.54)"/>
      <path id="Path_571" data-name="Path 571" class="cls-61" d="M1543.084,850.833c-5.216,1.5-36.281.822-39.007,0s-5.734-1.645-6.768-6.768-.94-14.076,0-17.953,2.443-5.64,6.768-6.768,35.905-1.128,39.007,0,5.922,2.4,6.768,6.768.775,14.827,0,17.953S1548.3,849.329,1543.084,850.833Z" transform="translate(-7.462 -1.292)"/>
      <g id="Group_140" data-name="Group 140" transform="translate(1499.158 828.561)">
        <circle id="Ellipse_16" data-name="Ellipse 16" class="cls-59" cx="2.874" cy="2.874" r="2.874"/>
        <circle id="Ellipse_17" data-name="Ellipse 17" class="cls-60" cx="2.371" cy="2.371" r="2.371" transform="translate(0.503 0.503)"/>
        <circle id="Ellipse_18" data-name="Ellipse 18" class="cls-59" cx="2.874" cy="2.874" r="2.874" transform="translate(28.04)"/>
        <circle id="Ellipse_19" data-name="Ellipse 19" class="cls-60" cx="2.371" cy="2.371" r="2.371" transform="translate(28.544 0.503)"/>
      </g>
      <path id="Path_572" data-name="Path 572" class="cls-62" d="M1532.424,846.75s3,3.162,6.157,0" transform="translate(-19.45 -10.738)"/>
      <g id="Group_142" data-name="Group 142" transform="translate(1486.678 815.71)">
        <g id="Group_141" data-name="Group 141" class="cls-63">
          <path id="Path_573" data-name="Path 573" class="cls-64" d="M1550.75,839.834c-5.216,1.5-36.281.822-39.006,0s-5.733-1.646-6.767-6.768-.94-14.076,0-17.953,2.443-5.64,6.767-6.768,35.905-1.128,39.006,0,5.922,2.4,6.768,6.768.776,14.827,0,17.953S1555.967,838.329,1550.75,839.834Z" transform="translate(-1496.703 -813.324)"/>
          <path id="Path_574" data-name="Path 574" class="cls-64" d="M1549.127,837.257c-4.1,1.182-28.528.647-30.671,0s-4.508-1.293-5.321-5.321a42.977,42.977,0,0,1,0-14.115c.739-3.049,1.922-4.435,5.321-5.321s28.232-.887,30.671,0,4.656,1.884,5.321,5.321.61,11.658,0,14.115S1553.229,836.075,1549.127,837.257Z" transform="translate(-1499.484 -814.773)"/>
        </g>
      </g>
    </g>
  </g>
</svg>
