<svg xmlns="http://www.w3.org/2000/svg" xmlns:xlink="http://www.w3.org/1999/xlink" width="80" height="80" viewBox="0 0 80 80">
  <defs>
    <style>
      .cls-1, .cls-57, .cls-63 {
        fill: #fff;
      }

      .cls-1 {
        stroke: #707070;
      }

      .cls-2 {
        fill: none;
      }

      .cls-3 {
        clip-path: url(#clip-path);
      }

      .cls-4 {
        opacity: 0.5;
      }

      .cls-10, .cls-11, .cls-12, .cls-13, .cls-14, .cls-15, .cls-16, .cls-17, .cls-18, .cls-19, .cls-20, .cls-21, .cls-22, .cls-23, .cls-24, .cls-25, .cls-26, .cls-27, .cls-28, .cls-29, .cls-30, .cls-31, .cls-32, .cls-33, .cls-34, .cls-35, .cls-36, .cls-37, .cls-38, .cls-39, .cls-40, .cls-41, .cls-42, .cls-43, .cls-44, .cls-45, .cls-46, .cls-47, .cls-48, .cls-49, .cls-5, .cls-50, .cls-51, .cls-52, .cls-53, .cls-54, .cls-55, .cls-56, .cls-6, .cls-7, .cls-8, .cls-9 {
        fill: #48443e;
      }

      .cls-5 {
        opacity: 0;
      }

      .cls-6 {
        opacity: 0.02;
      }

      .cls-7 {
        opacity: 0.039;
      }

      .cls-8 {
        opacity: 0.059;
      }

      .cls-9 {
        opacity: 0.078;
      }

      .cls-10 {
        opacity: 0.098;
      }

      .cls-11 {
        opacity: 0.118;
      }

      .cls-12 {
        opacity: 0.137;
      }

      .cls-13 {
        opacity: 0.157;
      }

      .cls-14 {
        opacity: 0.176;
      }

      .cls-15 {
        opacity: 0.196;
      }

      .cls-16 {
        opacity: 0.216;
      }

      .cls-17 {
        opacity: 0.235;
      }

      .cls-18 {
        opacity: 0.255;
      }

      .cls-19 {
        opacity: 0.275;
      }

      .cls-20 {
        opacity: 0.294;
      }

      .cls-21 {
        opacity: 0.314;
      }

      .cls-22 {
        opacity: 0.333;
      }

      .cls-23 {
        opacity: 0.353;
      }

      .cls-24 {
        opacity: 0.373;
      }

      .cls-25 {
        opacity: 0.392;
      }

      .cls-26 {
        opacity: 0.412;
      }

      .cls-27 {
        opacity: 0.431;
      }

      .cls-28 {
        opacity: 0.451;
      }

      .cls-29 {
        opacity: 0.471;
      }

      .cls-30 {
        opacity: 0.49;
      }

      .cls-31 {
        opacity: 0.51;
      }

      .cls-32 {
        opacity: 0.529;
      }

      .cls-33 {
        opacity: 0.549;
      }

      .cls-34 {
        opacity: 0.569;
      }

      .cls-35 {
        opacity: 0.588;
      }

      .cls-36 {
        opacity: 0.608;
      }

      .cls-37 {
        opacity: 0.627;
      }

      .cls-38 {
        opacity: 0.647;
      }

      .cls-39 {
        opacity: 0.667;
      }

      .cls-40 {
        opacity: 0.686;
      }

      .cls-41 {
        opacity: 0.706;
      }

      .cls-42 {
        opacity: 0.725;
      }

      .cls-43 {
        opacity: 0.745;
      }

      .cls-44 {
        opacity: 0.765;
      }

      .cls-45 {
        opacity: 0.784;
      }

      .cls-46 {
        opacity: 0.804;
      }

      .cls-47 {
        opacity: 0.824;
      }

      .cls-48 {
        opacity: 0.843;
      }

      .cls-49 {
        opacity: 0.863;
      }

      .cls-50 {
        opacity: 0.882;
      }

      .cls-51 {
        opacity: 0.902;
      }

      .cls-52 {
        opacity: 0.922;
      }

      .cls-53 {
        opacity: 0.941;
      }

      .cls-54 {
        opacity: 0.961;
      }

      .cls-55 {
        opacity: 0.98;
      }

      .cls-58 {
        clip-path: url(#clip-path-2);
      }

      .cls-59 {
        fill: #ffce2a;
      }

      .cls-60 {
        fill: #e0f6fe;
      }

      .cls-61 {
        fill: #ffb267;
      }

      .cls-62 {
        fill: #ff4c2e;
      }

      .cls-63 {
        opacity: 0.15;
      }
    </style>
    <clipPath id="clip-path">
      <rect id="Rectangle_244" data-name="Rectangle 244" class="cls-1" width="80" height="80" transform="translate(2706 -1041)"/>
    </clipPath>
    <clipPath id="clip-path-2">
      <circle id="Ellipse_8" data-name="Ellipse 8" class="cls-2" cx="28.808" cy="28.808" r="28.808"/>
    </clipPath>
  </defs>
  <g id="Mask_Group_75" data-name="Mask Group 75" class="cls-3" transform="translate(-2706 1041)">
    <g id="Group_566" data-name="Group 566" transform="translate(2709 -1032)">
      <g id="Group_113" data-name="Group 113" class="cls-4" transform="translate(0 22.862)">
        <path id="Path_303" data-name="Path 303" class="cls-5" d="M1338.734,830.513c-1.111,2.656-31.991-1.3-40.231-19.112-10.692-23.122,46.379-18.177,46.379-18.177.454-2.842-24.808,15.475-17.678,18.456S1339.844,827.858,1338.734,830.513Z" transform="translate(-1297.169 -792.78)"/>
        <path id="Path_304" data-name="Path 304" class="cls-6" d="M1338.754,830.363c-1.1,2.623-31.421-1.253-39.55-18.742-10.535-22.691,45.384-17.875,45.389-17.9.781-2.733-24.264,15.154-17.222,18.1S1339.851,827.74,1338.754,830.363Z" transform="translate(-1297.31 -792.885)"/>
        <path id="Path_305" data-name="Path 305" class="cls-7" d="M1338.774,830.213c-1.083,2.589-30.85-1.211-38.87-18.372-10.377-22.258,44.389-17.572,44.4-17.613.772-2.7-23.721,14.833-16.768,17.741S1339.858,827.623,1338.774,830.213Z" transform="translate(-1297.452 -792.99)"/>
        <path id="Path_306" data-name="Path 306" class="cls-8" d="M1338.795,830.062c-1.07,2.557-30.279-1.168-38.19-18-10.219-21.827,43.4-17.27,43.413-17.331.766-2.662-23.178,14.513-16.312,17.384S1339.863,827.505,1338.795,830.062Z" transform="translate(-1297.593 -793.095)"/>
        <path id="Path_307" data-name="Path 307" class="cls-9" d="M1338.815,829.912c-1.056,2.525-29.709-1.125-37.509-17.631-10.061-21.4,42.4-16.967,42.424-17.048.757-2.627-22.636,14.192-15.858,17.026S1339.871,827.387,1338.815,829.912Z" transform="translate(-1297.734 -793.2)"/>
        <path id="Path_308" data-name="Path 308" class="cls-10" d="M1338.835,829.761c-1.041,2.492-29.138-1.083-36.829-17.26-9.9-20.964,41.406-16.666,41.435-16.767.751-2.592-22.092,13.871-15.4,16.668S1339.877,827.269,1338.835,829.761Z" transform="translate(-1297.876 -793.306)"/>
        <path id="Path_309" data-name="Path 309" class="cls-11" d="M1338.855,829.609c-1.028,2.46-28.568-1.039-36.149-16.89-9.745-20.533,40.412-16.364,40.447-16.485.743-2.556-21.549,13.55-14.947,16.311S1339.884,827.151,1338.855,829.609Z" transform="translate(-1298.017 -793.41)"/>
        <path id="Path_310" data-name="Path 310" class="cls-12" d="M1338.876,829.452c-1.015,2.427-28-1-35.468-16.519-9.588-20.1,39.417-16.061,39.458-16.2.735-2.521-21.006,13.229-14.492,15.953S1339.89,827.026,1338.876,829.452Z" transform="translate(-1298.158 -793.508)"/>
        <path id="Path_311" data-name="Path 311" class="cls-13" d="M1338.894,829.295c-1,2.394-27.458-.939-34.788-16.149-9.47-19.65,38.422-15.759,38.47-15.92.728-2.485-20.463,12.909-14.037,15.6S1339.895,826.9,1338.894,829.295Z" transform="translate(-1298.297 -793.607)"/>
        <path id="Path_312" data-name="Path 312" class="cls-14" d="M1338.913,829.138c-.987,2.36-26.891-.895-34.108-15.779-9.317-19.215,37.428-15.457,37.481-15.638.721-2.45-19.919,12.587-13.582,15.237S1339.9,826.777,1338.913,829.138Z" transform="translate(-1298.438 -793.705)"/>
        <path id="Path_313" data-name="Path 313" class="cls-15" d="M1338.933,828.981c-.974,2.328-26.324-.85-33.427-15.408-9.164-18.781,36.433-15.154,36.492-15.355.713-2.415-19.376,12.266-13.127,14.88S1339.907,826.653,1338.933,828.981Z" transform="translate(-1298.579 -793.804)"/>
        <path id="Path_314" data-name="Path 314" class="cls-16" d="M1338.953,828.823c-.96,2.3-25.757-.805-32.747-15.038-9.01-18.347,35.438-14.852,35.5-15.073.706-2.379-18.833,11.945-12.672,14.522S1339.913,826.527,1338.953,828.823Z" transform="translate(-1298.72 -793.902)"/>
        <path id="Path_315" data-name="Path 315" class="cls-17" d="M1338.973,828.666c-.946,2.262-25.19-.76-32.066-14.667-8.858-17.913,34.443-14.55,34.515-14.791.7-2.344-18.291,11.625-12.217,14.164S1339.919,826.4,1338.973,828.666Z" transform="translate(-1298.861 -794.001)"/>
        <path id="Path_316" data-name="Path 316" class="cls-18" d="M1338.993,828.509c-.933,2.23-24.623-.715-31.386-14.3-8.7-17.478,33.448-14.248,33.525-14.509.691-2.309-17.747,11.3-11.761,13.807S1339.925,826.279,1338.993,828.509Z" transform="translate(-1299.002 -794.099)"/>
        <path id="Path_317" data-name="Path 317" class="cls-19" d="M1339.012,828.351c-.919,2.2-24.056-.67-30.706-13.926-8.551-17.045,32.453-13.946,32.538-14.227.683-2.273-17.2,10.983-11.306,13.449S1339.931,826.154,1339.012,828.351Z" transform="translate(-1299.142 -794.197)"/>
        <path id="Path_318" data-name="Path 318" class="cls-20" d="M1339.032,828.194c-.9,2.164-23.489-.626-30.025-13.555-8.4-16.61,31.457-13.644,31.548-13.945.676-2.238-16.661,10.663-10.85,13.092S1339.938,826.029,1339.032,828.194Z" transform="translate(-1299.284 -794.296)"/>
        <path id="Path_319" data-name="Path 319" class="cls-21" d="M1339.052,828.036c-.891,2.132-22.922-.581-29.345-13.185-8.245-16.177,30.463-13.342,30.56-13.663.668-2.2-16.118,10.342-10.4,12.735S1339.942,825.9,1339.052,828.036Z" transform="translate(-1299.424 -794.394)"/>
        <path id="Path_320" data-name="Path 320" class="cls-22" d="M1339.071,827.88c-.877,2.1-22.354-.537-28.665-12.815-8.091-15.742,29.468-13.039,29.572-13.38.66-2.168-15.575,10.021-9.941,12.377S1339.948,825.78,1339.071,827.88Z" transform="translate(-1299.565 -794.492)"/>
        <path id="Path_321" data-name="Path 321" class="cls-23" d="M1339.091,827.722c-.864,2.066-21.787-.492-27.984-12.444-7.938-15.308,28.472-12.738,28.583-13.1.653-2.133-15.032,9.7-9.485,12.02S1339.954,825.655,1339.091,827.722Z" transform="translate(-1299.705 -794.591)"/>
        <path id="Path_322" data-name="Path 322" class="cls-24" d="M1339.11,827.565c-.85,2.033-21.219-.447-27.3-12.074-7.783-14.873,27.478-12.436,27.595-12.816.646-2.1-14.489,9.379-9.031,11.662S1339.96,825.531,1339.11,827.565Z" transform="translate(-1299.846 -794.689)"/>
        <path id="Path_323" data-name="Path 323" class="cls-25" d="M1339.129,827.407c-.836,2-20.652-.4-26.624-11.7-7.63-14.44,26.482-12.133,26.605-12.534.638-2.063-13.945,9.059-8.575,11.3S1339.966,825.406,1339.129,827.407Z" transform="translate(-1299.986 -794.787)"/>
        <path id="Path_324" data-name="Path 324" class="cls-26" d="M1339.149,827.25c-.823,1.968-20.084-.356-25.943-11.333-7.476-14,25.487-11.831,25.617-12.251.63-2.027-13.4,8.738-8.12,10.946S1339.972,825.282,1339.149,827.25Z" transform="translate(-1300.127 -794.886)"/>
        <path id="Path_325" data-name="Path 325" class="cls-27" d="M1339.168,827.092c-.809,1.935-19.517-.311-25.263-10.962-7.322-13.57,24.491-11.529,24.628-11.969.623-1.992-12.86,8.416-7.665,10.589S1339.977,825.157,1339.168,827.092Z" transform="translate(-1300.267 -794.984)"/>
        <path id="Path_326" data-name="Path 326" class="cls-28" d="M1339.187,826.934c-.8,1.9-18.949-.266-24.583-10.591-7.167-13.137,23.495-11.228,23.64-11.687.616-1.957-12.317,8.1-7.21,10.231S1339.983,825.032,1339.187,826.934Z" transform="translate(-1300.407 -795.082)"/>
        <path id="Path_327" data-name="Path 327" class="cls-29" d="M1339.206,826.778c-.782,1.869-18.381-.222-23.9-10.221-7.013-12.7,22.5-10.926,22.651-11.405.609-1.921-11.773,7.775-6.755,9.873S1339.988,824.908,1339.206,826.778Z" transform="translate(-1300.547 -795.18)"/>
        <path id="Path_328" data-name="Path 328" class="cls-30" d="M1339.225,826.62c-.768,1.836-17.813-.177-23.222-9.851-6.859-12.268,21.5-10.624,21.663-11.123.6-1.887-11.23,7.454-6.3,9.516S1339.993,824.783,1339.225,826.62Z" transform="translate(-1300.687 -795.278)"/>
        <path id="Path_329" data-name="Path 329" class="cls-31" d="M1339.244,826.462c-.754,1.8-17.245-.132-22.542-9.48-6.7-11.834,20.508-10.323,20.674-10.841.593-1.852-10.687,7.133-5.844,9.158S1340,824.658,1339.244,826.462Z" transform="translate(-1300.827 -795.377)"/>
        <path id="Path_330" data-name="Path 330" class="cls-32" d="M1339.263,826.3c-.74,1.771-16.677-.087-21.862-9.11-6.549-11.4,19.511-10.02,19.685-10.558.586-1.816-10.144,6.813-5.389,8.8S1340,824.533,1339.263,826.3Z" transform="translate(-1300.967 -795.475)"/>
        <path id="Path_331" data-name="Path 331" class="cls-33" d="M1339.281,826.147c-.727,1.739-16.109-.042-21.182-8.74-6.394-10.966,18.515-9.719,18.7-10.276.579-1.781-9.6,6.492-4.933,8.443S1340.008,824.408,1339.281,826.147Z" transform="translate(-1301.107 -795.573)"/>
        <path id="Path_332" data-name="Path 332" class="cls-34" d="M1339.3,825.989c-.713,1.706-15.541,0-20.5-8.369-6.239-10.531,17.519-9.417,17.708-9.994.571-1.747-9.058,6.171-4.479,8.085S1340.013,824.283,1339.3,825.989Z" transform="translate(-1301.246 -795.671)"/>
        <path id="Path_333" data-name="Path 333" class="cls-35" d="M1339.318,825.831c-.7,1.673-14.972.049-19.82-8-6.084-10.1,16.522-9.115,16.719-9.711.564-1.711-8.515,5.85-4.024,7.728S1340.017,824.158,1339.318,825.831Z" transform="translate(-1301.385 -795.769)"/>
        <path id="Path_334" data-name="Path 334" class="cls-36" d="M1339.335,825.673c-.686,1.641-14.4.094-19.14-7.628-5.928-9.662,15.526-8.813,15.731-9.429.557-1.676-7.972,5.529-3.569,7.371S1340.021,824.033,1339.335,825.673Z" transform="translate(-1301.525 -795.867)"/>
        <path id="Path_335" data-name="Path 335" class="cls-37" d="M1339.354,825.516c-.672,1.607-13.834.139-18.46-7.257-5.772-9.229,14.529-8.512,14.741-9.148.549-1.641-7.429,5.209-3.113,7.013S1340.025,823.908,1339.354,825.516Z" transform="translate(-1301.663 -795.964)"/>
        <path id="Path_336" data-name="Path 336" class="cls-38" d="M1339.371,825.358c-.658,1.574-13.265.184-17.78-6.887-5.615-8.795,13.533-8.211,13.753-8.865.541-1.606-6.886,4.888-2.659,6.655S1340.029,823.783,1339.371,825.358Z" transform="translate(-1301.802 -796.062)"/>
        <path id="Path_337" data-name="Path 337" class="cls-39" d="M1339.388,825.2c-.645,1.542-12.7.229-17.1-6.517-5.458-8.36,12.536-7.909,12.764-8.583.535-1.572-6.342,4.566-2.2,6.3S1340.033,823.657,1339.388,825.2Z" transform="translate(-1301.94 -796.16)"/>
        <path id="Path_338" data-name="Path 338" class="cls-40" d="M1339.4,825.041c-.631,1.509-12.125.274-16.419-6.146-5.3-7.926,11.538-7.608,11.776-8.3.527-1.536-5.8,4.246-1.748,5.94S1340.036,823.532,1339.4,825.041Z" transform="translate(-1302.078 -796.257)"/>
        <path id="Path_339" data-name="Path 339" class="cls-41" d="M1339.421,824.883c-.617,1.476-11.555.319-15.739-5.776-5.143-7.492,10.54-7.306,10.787-8.019.521-1.5-5.256,3.925-1.293,5.582S1340.039,823.407,1339.421,824.883Z" transform="translate(-1302.215 -796.355)"/>
        <path id="Path_340" data-name="Path 340" class="cls-42" d="M1339.437,824.724c-.6,1.443-10.984.364-15.059-5.4-4.985-7.059,9.543-7.005,9.8-7.736.512-1.467-4.714,3.6-.838,5.225S1340.04,823.281,1339.437,824.724Z" transform="translate(-1302.352 -796.452)"/>
        <path id="Path_341" data-name="Path 341" class="cls-43" d="M1339.452,824.565c-.589,1.411-10.413.409-14.378-5.035-4.826-6.625,8.546-6.7,8.81-7.454.5-1.432-4.171,3.283-.384,4.867S1340.042,823.155,1339.452,824.565Z" transform="translate(-1302.488 -796.549)"/>
        <path id="Path_342" data-name="Path 342" class="cls-44" d="M1339.466,824.407c-.576,1.378-9.842.453-13.7-4.665-4.666-6.192,7.547-6.4,7.821-7.172.5-1.4-3.627,2.962.073,4.509S1340.042,823.029,1339.466,824.407Z" transform="translate(-1302.623 -796.646)"/>
        <path id="Path_343" data-name="Path 343" class="cls-45" d="M1339.478,824.248c-.562,1.345-9.269.5-13.018-4.294-4.505-5.759,6.549-6.1,6.833-6.889.49-1.362-3.084,2.642.528,4.152S1340.042,822.9,1339.478,824.248Z" transform="translate(-1302.757 -796.742)"/>
        <path id="Path_344" data-name="Path 344" class="cls-46" d="M1339.49,824.088c-.549,1.313-8.7.542-12.337-3.923-4.344-5.326,5.55-5.8,5.843-6.608.483-1.328-2.541,2.321.983,3.794S1340.039,822.776,1339.49,824.088Z" transform="translate(-1302.89 -796.838)"/>
        <path id="Path_345" data-name="Path 345" class="cls-47" d="M1339.5,823.928c-.535,1.28-8.121.586-11.657-3.552-4.18-4.894,4.552-5.5,4.856-6.326.476-1.293-2,2,1.438,3.436S1340.036,822.648,1339.5,823.928Z" transform="translate(-1303.02 -796.934)"/>
        <path id="Path_346" data-name="Path 346" class="cls-48" d="M1339.506,823.768c-.521,1.247-7.546.63-10.977-3.182-4.016-4.463,3.553-5.2,3.867-6.044.469-1.259-1.455,1.679,1.893,3.079S1340.027,822.521,1339.506,823.768Z" transform="translate(-1303.148 -797.029)"/>
        <path id="Path_347" data-name="Path 347" class="cls-49" d="M1339.51,823.607c-.508,1.214-6.969.672-10.3-2.812-3.851-4.033,2.553-4.9,2.879-5.761.461-1.225-.912,1.359,2.348,2.722S1340.017,822.392,1339.51,823.607Z" transform="translate(-1303.272 -797.124)"/>
        <path id="Path_348" data-name="Path 348" class="cls-50" d="M1339.507,823.444c-.494,1.182-6.392.713-9.616-2.441-3.684-3.6,1.553-4.6,1.889-5.479.455-1.19-.369,1.038,2.8,2.364S1340,822.263,1339.507,823.444Z" transform="translate(-1303.391 -797.217)"/>
        <path id="Path_349" data-name="Path 349" class="cls-51" d="M1339.5,823.281c-.48,1.149-5.812.753-8.936-2.071-3.514-3.177.553-4.3.9-5.2.447-1.156.174.717,3.258,2.006S1339.976,822.132,1339.5,823.281Z" transform="translate(-1303.501 -797.31)"/>
        <path id="Path_350" data-name="Path 350" class="cls-52" d="M1339.471,823.116c-.467,1.116-5.231.789-8.255-1.7-3.344-2.752-.448-4-.088-4.914.44-1.122.718.4,3.714,1.649S1339.937,822,1339.471,823.116Z" transform="translate(-1303.597 -797.4)"/>
        <path id="Path_351" data-name="Path 351" class="cls-53" d="M1339.417,822.948c-.453,1.083-4.648.824-7.575-1.33-3.169-2.332-1.448-3.7-1.077-4.632.433-1.087,1.26.075,4.169,1.291S1339.871,821.865,1339.417,822.948Z" transform="translate(-1303.665 -797.488)"/>
        <path id="Path_352" data-name="Path 352" class="cls-54" d="M1339.313,822.777c-.439,1.051-4.063.852-6.894-.96-3-1.916-2.45-3.4-2.066-4.35.426-1.053,1.8-.246,4.624.933S1339.752,821.726,1339.313,822.777Z" transform="translate(-1303.681 -797.573)"/>
        <path id="Path_353" data-name="Path 353" class="cls-55" d="M1339.134,822.6c-.425,1.018-3.475.875-6.214-.589-2.819-1.507-3.453-3.1-3.054-4.068.419-1.019,2.347-.567,5.079.576S1339.56,821.582,1339.134,822.6Z" transform="translate(-1303.624 -797.651)"/>
        <path id="Path_354" data-name="Path 354" class="cls-56" d="M1338.919,822.414c-.411.985-2.889.888-5.534-.218s-4.454-2.8-4.042-3.786,2.89-.888,5.534.218S1339.331,821.429,1338.919,822.414Z" transform="translate(-1303.53 -797.721)"/>
      </g>
      <circle id="Ellipse_6" data-name="Ellipse 6" class="cls-57" cx="30.256" cy="30.256" r="30.256" transform="translate(12.913 0)"/>
      <g id="Group_118" data-name="Group 118" transform="translate(14.361 1.449)">
        <g id="Group_117" data-name="Group 117" class="cls-58" transform="translate(0 0)">
          <g id="Group_116" data-name="Group 116" transform="translate(-1.755 -1.816)">
            <rect id="Rectangle_51" data-name="Rectangle 51" class="cls-59" width="61.307" height="61.307"/>
            <g id="Group_115" data-name="Group 115" transform="translate(1.79 1.79)">
              <circle id="Ellipse_7" data-name="Ellipse 7" class="cls-60" cx="28.863" cy="28.863" r="28.863"/>
              <g id="Group_114" data-name="Group 114" transform="translate(0.255 2.025)">
                <path id="Path_355" data-name="Path 355" class="cls-61" d="M1349.372,816.435c.434-.511.109-1.325-.393-1.77a13.445,13.445,0,0,1-1.586-1.228c-1.131-1.357-.107-3.437-.5-5.158-.276-1.2-1.257-2.312-.943-3.5.325-1.222,1.843-1.744,2.388-2.885a2.6,2.6,0,0,0-.9-3.039,4.624,4.624,0,0,0-3.258-.763,4.162,4.162,0,0,0-3.055,1.491c-.25.35-.418.755-.673,1.1-.945,1.284-3.163,1.859-4.77,2.481-.208.081-.406.162-.589.246a9.965,9.965,0,0,0-5.107,4.262,4,4,0,0,0-.446,2.532c.39,1.94,2.72,2.953,4.674,2.642a4.034,4.034,0,0,1,1.092-.105c1.114.132,1.675,1.361,2.405,2.213,2.354,2.742,7.479,2.419,10.629,1.919A1.639,1.639,0,0,0,1349.372,816.435Z" transform="translate(-1318.22 -774.412)"/>
                <path id="Path_356" data-name="Path 356" class="cls-62" d="M1316.52,787.5a7.693,7.693,0,0,0,3.292.4,12.056,12.056,0,0,1,2.385-.2,2.01,2.01,0,0,1,1.822,1.32c.384,1.556-1.917,3.207-.941,4.479a1.68,1.68,0,0,0,2.056.241,20.509,20.509,0,0,0,1.819-1.313c2.361-1.53,5.816-.534,8.019-2.286,2.152-1.712,2.014-5.184,3.958-7.13a12.4,12.4,0,0,1,3.877-2.1,3.1,3.1,0,0,0,.984-.626,2.112,2.112,0,0,0-.222-2.881c-2.635-2.458-5.821,1.35-8.362-.027a3.8,3.8,0,0,1-1.484-2.719,35.5,35.5,0,0,1-.916-5.657A28.938,28.938,0,0,0,1316.52,787.5Z" transform="translate(-1315.653 -768.654)"/>
                <path id="Path_357" data-name="Path 357" class="cls-62" d="M1380.276,805.283a4.772,4.772,0,0,1-2.277-3.813c-.018-.719.526-1.665,1.173-1.35s.267,1.382.665,1.993a3.02,3.02,0,0,0,.932.688,29.092,29.092,0,0,0,.33-4.378,28.719,28.719,0,0,0-3.984-14.637,3.284,3.284,0,0,0-2.817,3.039,12.232,12.232,0,0,1-.026,1.759c-.118.576-.606,1.151-1.188,1.07a7.035,7.035,0,0,1-.8-.3,2.135,2.135,0,0,0-1.679.56,29.345,29.345,0,0,0-4.092,3.247,4.206,4.206,0,0,1-1.544,1.188,5.1,5.1,0,0,1-2.807-.382c-.929-.242-2.154-.142-2.528.742-.342.81.29,1.709,1,2.225a6.447,6.447,0,0,1,2.024,1.656c.189.32.286.685.449,1.018.319.652.877,1.167,1.18,1.827s.22,1.614-.448,1.9c-.724.309-1.533-.379-2.308-.24a1.841,1.841,0,0,0-1.246,1.39,7.259,7.259,0,0,1-.621,1.856,6.124,6.124,0,0,1-1.767,1.448,2.153,2.153,0,0,0-1.1,1.887,2.121,2.121,0,0,0,.44.924c1.2,1.636,3.2,2.8,3.658,4.784.472,2.048-.923,4.272-.167,6.234.584,1.513,2.143,2.2,3.615,3.015A28.922,28.922,0,0,0,1380.276,805.283Z" transform="translate(-1323.627 -771.584)"/>
                <path id="Path_358" data-name="Path 358" class="cls-61" d="M1349.146,790.447c-.663.553-.3,1.381-.706,1.949-.491.679-1.65.21-2.061,1.112a1.235,1.235,0,0,0,.757,1.534,2.776,2.776,0,0,0,1.871-.073,8.771,8.771,0,0,1,1.834-.523c.424-.039.854.018,1.275-.044a2.368,2.368,0,0,0,1.961-2.2,1.3,1.3,0,0,0-.167-.735C1353.22,790.371,1350.228,789.546,1349.146,790.447Z" transform="translate(-1321.551 -772.827)"/>
                <path id="Path_359" data-name="Path 359" class="cls-62" d="M1329.374,827.783a24.876,24.876,0,0,0-1.638-7.191,5.519,5.519,0,0,0-1.35-2.2c-.933-.82-2.361-1.087-2.992-2.157a4.078,4.078,0,0,1-.321-2.346l.252-4.077c.054-.869.032-1.9-.688-2.394-.756-.514-1.841-.161-2.69-.272-.907-.119-1.751-.522-2.668-.6a4,4,0,0,0-1.841.225A28.873,28.873,0,0,0,1329.374,827.783Z" transform="translate(-1315.439 -776.086)"/>
                <path id="Path_360" data-name="Path 360" class="cls-62" d="M1345.048,824.969a7.147,7.147,0,0,0-1.434.058c-.542.076-1.234.146-1.495-.334-.159-.292-.066-.669-.215-.966-.247-.49-1.58-.857-2.085-.984a2.7,2.7,0,0,0-2.559.619,2.134,2.134,0,0,0-.388,2.782c.6.762,1.716.869,2.507,1.435a8.03,8.03,0,0,1,1.405,1.612,2.4,2.4,0,0,0,1.781,1.058,2.471,2.471,0,0,0,1.158-.4,4.494,4.494,0,0,0,2.54-3.676,1.248,1.248,0,0,0-.344-.938A1.425,1.425,0,0,0,1345.048,824.969Z" transform="translate(-1319.613 -779.282)"/>
                <path id="Path_361" data-name="Path 361" class="cls-61" d="M1346.031,768.9c-2.064.827-2.877,3.194-1.343,4.84a3.411,3.411,0,0,0,2.472,1.442c.5-.032.975-.291,1.48-.31a6.577,6.577,0,0,1,2.226.77,3.1,3.1,0,0,0,3.087-5.212,5.431,5.431,0,0,0-1.753-.978C1350.46,768.786,1347.871,768.167,1346.031,768.9Z" transform="translate(-1321.075 -768.571)"/>
                <path id="Path_362" data-name="Path 362" class="cls-62" d="M1379.2,782.626c-.849.179-1.42,1.085-1.746,1.823a4.851,4.851,0,0,0-.475,2.948.216.216,0,0,0,.414,0,7.935,7.935,0,0,1,.779-2.386,4.443,4.443,0,0,1,1.388-1.533A.468.468,0,0,0,1379.2,782.626Z" transform="translate(-1327.611 -771.352)"/>
                <path id="Path_363" data-name="Path 363" class="cls-62" d="M1377.593,781.873a2.889,2.889,0,0,0-1.242,1.457c-.125.265.165.685.459.459a9.427,9.427,0,0,0,1.42-1.09A.528.528,0,0,0,1377.593,781.873Z" transform="translate(-1327.497 -771.194)"/>
                <path id="Path_364" data-name="Path 364" class="cls-62" d="M1365.126,794.166a3.306,3.306,0,0,1-1.776.229,9.089,9.089,0,0,0-2.037-.008c-.953.133-2.224.714-2.318,1.806a.209.209,0,0,0,.313.18,6.011,6.011,0,0,1,1.451-.809,5.379,5.379,0,0,1,2.045-.1c.906.089,2.5.448,2.983-.636A.488.488,0,0,0,1365.126,794.166Z" transform="translate(-1324.066 -773.63)"/>
                <path id="Path_365" data-name="Path 365" class="cls-62" d="M1369.414,792.163c-.271.138-.528.322-.786.482a.3.3,0,0,0,.3.516c.261-.157.541-.3.788-.48A.3.3,0,0,0,1369.414,792.163Z" transform="translate(-1325.946 -773.236)"/>
                <path id="Path_366" data-name="Path 366" class="cls-61" d="M1344.415,775.179c-.4-.434-.944-.6-1.289-1.12a11.392,11.392,0,0,1-.589-1.5.183.183,0,0,0-.313,0c-.766,1.067.636,3.411,1.916,3.289A.4.4,0,0,0,1344.415,775.179Z" transform="translate(-1320.701 -769.342)"/>
                <path id="Path_367" data-name="Path 367" class="cls-61" d="M1357.618,774.086a3.413,3.413,0,0,1-.985,2.366,6.37,6.37,0,0,1-2.661,1.219c-.2.075-.269.441,0,.479a4.133,4.133,0,0,0,4.686-4.064A.52.52,0,0,0,1357.618,774.086Z" transform="translate(-1323.036 -769.564)"/>
                <path id="Path_368" data-name="Path 368" class="cls-61" d="M1361.019,775.6c-.084-.411-.59-.37-.8-.1a4.511,4.511,0,0,0-.347.943,4.422,4.422,0,0,1-.5.856c-.169.221.156.522.376.376a3.091,3.091,0,0,0,.885-.853A1.7,1.7,0,0,0,1361.019,775.6Z" transform="translate(-1324.131 -769.902)"/>
                <path id="Path_369" data-name="Path 369" class="cls-62" d="M1323.321,794.461c-.354-1.157-1.785-.823-2.661-.657a7.936,7.936,0,0,1-1.889.19c-.6-.037-.739-.6-1.285-.687a.236.236,0,0,0-.181.429c.306.236.328.7.678.941a2.408,2.408,0,0,0,1.34.326,9.2,9.2,0,0,0,1.742-.151,4.05,4.05,0,0,1,.836-.117,1.427,1.427,0,0,1,.69.289A.5.5,0,0,0,1323.321,794.461Z" transform="translate(-1315.787 -773.469)"/>
                <path id="Path_370" data-name="Path 370" class="cls-62" d="M1321.409,795.885a3.024,3.024,0,0,0-1.635.319c-.27.12-.135.577.151.556a9.758,9.758,0,0,1,1.484.068.475.475,0,0,0,.471-.472A.481.481,0,0,0,1321.409,795.885Z" transform="translate(-1316.269 -773.977)"/>
                <path id="Path_371" data-name="Path 371" class="cls-62" d="M1323.816,799.752c-.089-.059-.189-.1-.278-.157-.024-.02-.047-.042-.07-.064s-.059-.061-.087-.093l-.054-.077a1.384,1.384,0,0,0-.127-.176.452.452,0,0,0-.552-.106c-.378.224-.218.721-.043,1.024a1.516,1.516,0,0,0,.779.678.56.56,0,0,0,.664-.327A.568.568,0,0,0,1323.816,799.752Z" transform="translate(-1316.821 -774.602)"/>
                <path id="Path_372" data-name="Path 372" class="cls-62" d="M1326.06,806.871a2.665,2.665,0,0,0-2.613-1.081c-.238.039-.239.375-.062.484.651.407,1.466.557,1.84,1.3a5.386,5.386,0,0,1,.113,2.536.536.536,0,0,0,1.047.142A4.154,4.154,0,0,0,1326.06,806.871Z" transform="translate(-1316.988 -775.936)"/>
                <path id="Path_373" data-name="Path 373" class="cls-62" d="M1326.878,813.046a.451.451,0,0,0-.123-.195.618.618,0,0,0-.233-.136.413.413,0,0,0-.165-.018.729.729,0,0,0-.172,0,.646.646,0,0,0-.448.258.662.662,0,0,0-.124.6.724.724,0,0,0,.316.411.688.688,0,0,0,.941-.247A.691.691,0,0,0,1326.878,813.046Z" transform="translate(-1317.448 -777.31)"/>
                <path id="Path_374" data-name="Path 374" class="cls-62" d="M1328.895,818.453a4.762,4.762,0,0,0-1.331-1.184,2,2,0,0,1-.742-.7,3.4,3.4,0,0,1-.209-1.2c0-.187-.293-.239-.335-.045a2.6,2.6,0,0,0,.222,2.167,5.128,5.128,0,0,0,1.9,1.6C1328.765,819.234,1329.081,818.758,1328.895,818.453Z" transform="translate(-1317.56 -777.808)"/>
                <path id="Path_375" data-name="Path 375" class="cls-62" d="M1337.226,827.6a2.058,2.058,0,0,1-1.342-1.048,4.433,4.433,0,0,1-.2-2.088.236.236,0,0,0-.461-.062c-.3,1.123-.592,2.5.332,3.432a4.173,4.173,0,0,0,1.48.826,3.053,3.053,0,0,1,.843.449c.231.195.355.443.6.626a.445.445,0,0,0,.65-.265C1339.359,828.406,1338.014,827.883,1337.226,827.6Z" transform="translate(-1319.299 -779.596)"/>
                <path id="Path_376" data-name="Path 376" class="cls-62" d="M1340.713,831.343a.654.654,0,0,0,0,1.308A.654.654,0,0,0,1340.713,831.343Z" transform="translate(-1320.32 -781.004)"/>
                <path id="Path_377" data-name="Path 377" class="cls-62" d="M1346.4,831.107a4.971,4.971,0,0,1-3.294,1.407.264.264,0,0,0-.253.331c.582,1.6,3.626-.322,4.254-1.032A.5.5,0,0,0,1346.4,831.107Z" transform="translate(-1320.866 -780.928)"/>
                <path id="Path_378" data-name="Path 378" class="cls-61" d="M1351.762,822.038a5.933,5.933,0,0,0-1.346.164,14.472,14.472,0,0,1-1.478.108,6.578,6.578,0,0,1-2.648-.168c-.269-.112-.443.326-.2.466a5.958,5.958,0,0,0,2.731.924,9.562,9.562,0,0,0,1.592-.067,3.958,3.958,0,0,0,1.629-.383A.565.565,0,0,0,1351.762,822.038Z" transform="translate(-1321.487 -779.159)"/>
                <path id="Path_379" data-name="Path 379" class="cls-61" d="M1355.694,820.246a.664.664,0,0,0,0,1.327A.664.664,0,0,0,1355.694,820.246Z" transform="translate(-1323.285 -778.806)"/>
                <path id="Path_380" data-name="Path 380" class="cls-62" d="M1360.577,823.8a5.321,5.321,0,0,0-1.116-2.869.164.164,0,0,0-.284.166,5.528,5.528,0,0,1,.539,3.234c-.127.972-.824,1.841-.682,2.83.083.578.958.4.981-.133a8.934,8.934,0,0,1,.423-1.644A5.336,5.336,0,0,0,1360.577,823.8Z" transform="translate(-1324.07 -778.927)"/>
                <path id="Path_381" data-name="Path 381" class="cls-62" d="M1362.968,833.564c-.579-.543-1.386-.739-1.9-1.36a3.359,3.359,0,0,1-.785-2.152c.016-.242-.351-.282-.415-.056a3.1,3.1,0,0,0,.163,2.489,3.528,3.528,0,0,0,.864,1.026c.4.322.9.5,1.269.855C1362.693,834.872,1363.5,834.063,1362.968,833.564Z" transform="translate(-1324.203 -780.707)"/>
                <path id="Path_382" data-name="Path 382" class="cls-62" d="M1350.952,782.183a.224.224,0,0,0-.449,0,2.354,2.354,0,0,1-1,1.859,4.8,4.8,0,0,1-1.342.451,3.8,3.8,0,0,0-2.312,1.119c-.45.606.6,1.238,1.025.6.241-.359.939-.524,1.322-.655a7.057,7.057,0,0,0,1.4-.569A3.014,3.014,0,0,0,1350.952,782.183Z" transform="translate(-1321.44 -771.224)"/>
                <path id="Path_383" data-name="Path 383" class="cls-62" d="M1320.022,804.942a2.558,2.558,0,0,0-.541.068,1.223,1.223,0,0,1-.47.055c-.265-.049-.459.313-.194.459a4.764,4.764,0,0,0,.585.334,1.238,1.238,0,0,0,.75.051A.5.5,0,0,0,1320.022,804.942Z" transform="translate(-1316.083 -775.774)"/>
                <path id="Path_384" data-name="Path 384" class="cls-62" d="M1326.879,804.6c-.325-.044-.608.409-.249.589.667.333.74,1.16.838,1.8s1.081.458,1.094-.148A2.1,2.1,0,0,0,1326.879,804.6Z" transform="translate(-1317.622 -775.707)"/>
                <path id="Path_385" data-name="Path 385" class="cls-61" d="M1354.413,789.086a3.766,3.766,0,0,0-1.963-1.253,2.139,2.139,0,0,0-2.035.318.273.273,0,0,0,.118.448c.619.257,1.318.187,1.939.5a2.929,2.929,0,0,1,.825.622c.239.255.375.471.768.44a.517.517,0,0,0,.469-.357l.042-.1A.633.633,0,0,0,1354.413,789.086Z" transform="translate(-1322.351 -772.364)"/>
                <path id="Path_386" data-name="Path 386" class="cls-62" d="M1352.414,783.709a1.561,1.561,0,0,1-.658,1.444.265.265,0,0,0,.267.457,2.341,2.341,0,0,0,1.331-1.9C1353.394,783.109,1352.4,783.1,1352.414,783.709Z" transform="translate(-1322.607 -771.479)"/>
                <path id="Path_387" data-name="Path 387" class="cls-62" d="M1370.848,789.236a1.322,1.322,0,0,0-.92.165c-.311.126-.639.2-.95.329a9.036,9.036,0,0,0-2.018,1.366.329.329,0,0,0,.332.568,11.689,11.689,0,0,1,2.423-.939c.627-.178,1.37-.321,1.446-1.078A.427.427,0,0,0,1370.848,789.236Z" transform="translate(-1325.615 -772.657)"/>
                <path id="Path_388" data-name="Path 388" class="cls-62" d="M1333.517,824.321a2.827,2.827,0,0,0-.073,2.437.24.24,0,0,0,.468-.063,10.439,10.439,0,0,1,.472-2.007A.477.477,0,0,0,1333.517,824.321Z" transform="translate(-1318.957 -779.568)"/>
                <path id="Path_389" data-name="Path 389" class="cls-61" d="M1353.556,824.35c-.467-.067-.848.2-1.3.291a6.188,6.188,0,0,0-1.285.221.307.307,0,0,0-.062.48,1.8,1.8,0,0,0,1.483.314c.492-.06,1.186-.182,1.428-.661C1353.932,824.772,1353.855,824.393,1353.556,824.35Z" transform="translate(-1322.446 -779.617)"/>
                <path id="Path_390" data-name="Path 390" class="cls-62" d="M1357.987,831.418a2.511,2.511,0,0,1-.354-.586,4.113,4.113,0,0,1-.048-.916c-.01-.6.063-1.19.069-1.786a.251.251,0,0,0-.423-.176c-.74.72-1.344,4.245.353,4.164A.471.471,0,0,0,1357.987,831.418Z" transform="translate(-1323.57 -780.319)"/>
              </g>
            </g>
          </g>
        </g>
      </g>
      <ellipse id="Ellipse_9" data-name="Ellipse 9" class="cls-63" cx="18.937" cy="17.492" rx="18.937" ry="17.492" transform="translate(29.097 5.241)"/>
      <ellipse id="Ellipse_10" data-name="Ellipse 10" class="cls-63" cx="13.13" cy="12.128" rx="13.13" ry="12.128" transform="translate(36.281 8.395)"/>
    </g>
  </g>
</svg>
